SplineFontDB: 3.2
FontName: Untitled1
FullName: Untitled1
FamilyName: Untitled1
Weight: Regular
Copyright: Copyright (c) 2025, labsfiap
UComments: "2025-10-20: Created with FontForge (http://fontforge.org)"
Version: 001.000
ItalicAngle: 0
UnderlinePosition: -100
UnderlineWidth: 50
Ascent: 800
Descent: 200
InvalidEm: 0
LayerCount: 2
Layer: 0 0 "Back" 1
Layer: 1 0 "Fore" 0
XUID: [1021 854 -2030377145 7511]
OS2Version: 0
OS2_WeightWidthSlopeOnly: 0
OS2_UseTypoMetrics: 1
CreationTime: 1760962789
ModificationTime: 1760971239
OS2TypoAscent: 0
OS2TypoAOffset: 1
OS2TypoDescent: 0
OS2TypoDOffset: 1
OS2TypoLinegap: 0
OS2WinAscent: 0
OS2WinAOffset: 1
OS2WinDescent: 0
OS2WinDOffset: 1
HheadAscent: 0
HheadAOffset: 1
HheadDescent: 0
HheadDOffset: 1
OS2Vendor: 'PfEd'
DEI: 91125
Encoding: ISO8859-1
UnicodeInterp: none
NameList: AGL For New Fonts
DisplaySize: -48
AntiAlias: 1
FitToEm: 0
WinInfo: 0 23 7
BeginChars: 256 91

StartChar: A
Encoding: 65 65 0
Width: 1000
Flags: W
HStem: 684.699 5.11914<219.639 225.551>
LayerCount: 2
Back
Fore
SplineSet
1016.80175781 -94.75 m 4
 1023.4609375 -103.533203125 1016.60644531 -104.469726562 947.908203125 -104.154296875 c 4
 905.946289062 -103.95703125 859.953125 -101.213867188 845.693359375 -98.048828125 c 4
 831.170898438 -94.8251953125 781.868164062 -93.490234375 733.543945312 -95.015625 c 4
 656.400390625 -97.455078125 648.075195312 -96.7744140625 654.58203125 -88.580078125 c 4
 686.63671875 -48.1455078125 690.365234375 -35.9208984375 680.044921875 -5.08203125 c 4
 674.234375 12.3115234375 666.881835938 38.3310546875 663.703125 52.744140625 c 4
 659.196289062 73.193359375 652.928710938 79.87890625 635.154296875 83.1845703125 c 4
 612.50390625 87.3935546875 399.333007812 86.6865234375 391.310546875 82.3740234375 c 4
 389.002929688 81.1318359375 385.608398438 68.1513671875 383.778320312 53.5234375 c 4
 381.942382812 38.90234375 374.642578125 11.2666015625 367.575195312 -7.88671875 c 4
 354.745117188 -42.5966796875 354.805664062 -42.7939453125 388.161132812 -71.6484375 c 6
 421.620117188 -100.59765625 l 5
 352.25390625 -97.1123046875 l 6
 314.109375 -95.1953125 272.485351562 -89.9638671875 259.7578125 -85.4814453125 c 4
 240.647460938 -78.744140625 233.248046875 -78.580078125 217.120117188 -84.533203125 c 4
 198.594726562 -91.3720703125 5.767578125 -102.373046875 5.767578125 -96.58984375 c 4
 5.767578125 -95.08203125 16.7451171875 -85.1533203125 30.162109375 -74.5234375 c 4
 81.5234375 -33.8193359375 125.189453125 54.6181640625 142 152 c 4
 151.032226562 204.306640625 163.78125 244.923828125 180.530273438 274.6796875 c 4
 190.0390625 291.586914062 204.033203125 345.744140625 244.66015625 522.823242188 c 4
 249.58203125 544.295898438 258.341796875 574.888671875 264.114257812 590.811523438 c 4
 276.924804688 626.131835938 256.1953125 670.905273438 220.65234375 684.69921875 c 4
 198.66796875 693.232421875 199.995117188 693.465820312 249.450195312 689.818359375 c 4
 279.038085938 687.641601562 311.323242188 681.078125 324.629882812 674.538085938 c 6
 347.961914062 663.073242188 l 5
 347.961914062 675.202148438 l 6
 347.961914062 687.313476562 348.234375 687.32421875 596.524414062 687.32421875 c 6
 845.076171875 687.32421875 l 5
 819.465820312 667.028320312 l 6
 779.823242188 635.619140625 783.569335938 586.9765625 835.497070312 458.6953125 c 4
 846.045898438 432.626953125 857.41796875 384.755859375 860.771484375 352.317382812 c 4
 864.125976562 319.872070312 871.635742188 284.7421875 877.469726562 274.25 c 4
 883.311523438 263.75 892.658203125 232.581054688 898.25 204.975585938 c 4
 914.096679688 126.6953125 914.969726562 123.194335938 933.916015625 62.5302734375 c 4
 948.841796875 14.73046875 983.180664062 -50.4326171875 1016.80175781 -94.75 c 4
430.916015625 214.963867188 m 4
 430.916015625 212.129882812 448.19140625 213.057617188 573.810546875 222.608398438 c 6
 618.182617188 225.985351562 l 5
 611.8046875 268.456054688 l 6
 608.299804688 291.81640625 599.236328125 322.21875 591.662109375 336.017578125 c 4
 584.098632812 349.82421875 575.349609375 383.698242188 572.209960938 411.297851562 c 4
 565.828125 467.49609375 546.447265625 531.1875 535.736328125 531.1875 c 4
 524.234375 531.1875 495.095703125 452.265625 461.985351562 331.396484375 c 4
 444.899414062 269.043945312 430.916015625 216.650390625 430.916015625 214.963867188 c 4
3505.46875 -1254.61621094 m 1052
EndSplineSet
Validated: 524321
EndChar

StartChar: B
Encoding: 66 66 1
Width: 1000
HStem: -142.228 158.024<433.28 603.77> 231.721 146.451<435.141 607.998> 572.637 164.443<433.28 619.073>
VStem: 214.765 218.516<18.1338 226.425 377.162 544.592> 624.741 230.259<36.3616 213.275>
LayerCount: 2
Fore
SplineSet
740.044921875 -127.956054688 m 5
 707.85546875 -140.765625 695.126953125 -141.372070312 440.547851562 -142.227539062 c 6
 174.668945312 -143.12109375 l 5
 194.716796875 -110.619140625 l 5
 214.764648438 -78.1162109375 l 5
 211.194335938 161.487304688 l 6
 204.458984375 613.418945312 203.310546875 633.78125 182.330078125 673.487304688 c 4
 172.056640625 692.930664062 156.263671875 715.809570312 147.234375 724.329101562 c 6
 130.817382812 739.819335938 l 5
 414.419921875 737.080078125 l 6
 575.995117188 735.518554688 709.763671875 731.5546875 725.311523438 727.8671875 c 4
 762.686523438 719.002929688 821.607421875 681.293945312 834.987304688 657.674804688 c 4
 841.053710938 646.965820312 847.279296875 615.731445312 848.821289062 588.265625 c 4
 850.36328125 560.799804688 854.46484375 522.215820312 857.934570312 502.5234375 c 4
 864.16796875 467.146484375 852.365234375 403.59375 834.462890625 376.137695312 c 4
 829.98828125 369.276367188 810.696289062 351.38671875 791.590820312 336.383789062 c 4
 772.485351562 321.380859375 760.635742188 308.03515625 765.2578125 306.728515625 c 4
 791.033203125 299.4375 829.25 277.923828125 841.920898438 263.5703125 c 4
 854.706054688 249.091796875 856.28515625 230.743164062 855 112 c 4
 854.196289062 37.6962890625 851.259765625 -31.5185546875 848.474609375 -41.8115234375 c 4
 842.266601562 -64.75390625 785.461914062 -109.8828125 740.044921875 -127.956054688 c 5
473.202148438 15.796875 m 5
 473.204101562 15.796875 l 6
 495.161132812 14.51171875 522.581054688 12.9658203125 534.13671875 12.359375 c 4
 562.802734375 10.857421875 608.360351562 32.5869140625 618.647460938 52.66796875 c 4
 623.294921875 61.7421875 626.038085938 101.590820312 624.741210938 141.220703125 c 6
 622.383789062 213.275390625 l 5
 594.970703125 225.145507812 l 6
 570.857421875 235.586914062 559.219726562 236.37890625 498.318359375 231.720703125 c 6
 429.081054688 226.424804688 l 5
 430.700195312 170.282226562 l 6
 431.590820312 139.404296875 432.541015625 92.5380859375 432.801757812 66.13671875 c 6
 433.280273438 18.1337890625 l 5
 473.202148438 15.796875 l 5
447.98828125 377.995117188 m 5
 462.271484375 375.880859375 479.767578125 375.913085938 543.994140625 378.171875 c 4
 563.340820312 378.8515625 584.521484375 385.287109375 600.724609375 395.407226562 c 6
 626.583984375 411.556640625 l 5
 626.583984375 479.904296875 l 6
 626.583984375 545.109375 625.583984375 548.994140625 604.833984375 564.39453125 c 4
 584.7109375 579.331054688 579.27734375 580.2421875 532.163085938 576.587890625 c 4
 504.15625 574.415039062 470.450195312 572.63671875 457.260742188 572.63671875 c 6
 433.280273438 572.63671875 l 5
 433.280273438 476.404296875 l 6
 433.280273438 389.7421875 434.743164062 379.955078125 447.98828125 377.995117188 c 5
EndSplineSet
Validated: 524321
EndChar

StartChar: C
Encoding: 67 67 2
Width: 1000
HStem: 459.838 74.9365G<563.963 593.354 707.521 726.125> 629.191 178.735<397.44 545.605>
VStem: 177.454 198.561<20.3924 325.198 344.693 610.339>
LayerCount: 2
Fore
SplineSet
567.641601562 -179.731445312 m 4
 480.30859375 -186.958984375 407.641601562 -188.173828125 389.958984375 -182.704101562 c 4
 379.5625 -179.48828125 360.1171875 -176.541992188 346.748046875 -176.159179688 c 4
 330.838867188 -175.703125 319.689453125 -170.703125 314.4765625 -161.688476562 c 4
 308.223632812 -150.875976562 302.815429688 -149.216796875 289.310546875 -153.967773438 c 4
 266.141601562 -162.120117188 229.913085938 -147.396484375 210.649414062 -122 c 4
 178.7109375 -79.8935546875 175.5390625 -55.345703125 177.454101562 134.833007812 c 4
 178.455078125 234.296875 181.109375 320.1015625 183.3515625 325.509765625 c 4
 185.594726562 330.91796875 194.721679688 335.590820312 203.6328125 335.89453125 c 4
 214.93359375 336.280273438 216.404296875 337.682617188 208.495117188 340.529296875 c 4
 180.998046875 350.423828125 178.735351562 364.125976562 178.491210938 522.258789062 c 4
 178.275390625 661.180664062 179.860351562 681.615234375 193.41015625 714.684570312 c 4
 213.052734375 762.624023438 259.637695312 800.64453125 291.504882812 794.747070312 c 4
 305.895507812 792.083007812 316.23046875 794.331054688 322.685546875 801.530273438 c 4
 330.978515625 810.77734375 350.547851562 811.680664062 461.333007812 807.926757812 c 4
 532.278320312 805.5234375 622.424804688 803.928710938 661.658203125 804.3828125 c 4
 725.481445312 805.122070312 731.9609375 804.059570312 723.205078125 794.294921875 c 4
 715.959960938 786.216796875 714.795898438 769.260742188 718.721679688 729.046875 c 4
 721.638671875 699.163085938 724.564453125 638.501953125 725.223632812 594.243164062 c 6
 726.422851562 513.774414062 l 5
 707.520507812 515.237304688 l 6
 670.26171875 518.122070312 639.8125 509.413085938 601.185546875 484.823242188 c 6
 561.9375 459.837890625 l 5
 567.19921875 511.80078125 l 6
 576.135742188 600.068359375 549.704101562 629.081054688 460.252929688 629.19140625 c 4
 380.0703125 629.2890625 372.1875 607.728515625 375 396 c 4
 376.083984375 314.532226562 376.538085938 204.333984375 376.014648438 151.115234375 c 4
 374.91015625 39.1650390625 379.654296875 25.513671875 431.025390625 -7.1962890625 c 4
 465.213867188 -28.96484375 483.98828125 -33.5654296875 491.671875 -22.05859375 c 4
 494.044921875 -18.5068359375 506.112304688 -13.541015625 518.489257812 -11.025390625 c 4
 530.8671875 -8.509765625 547.385742188 1.0693359375 555.19921875 10.2607421875 c 4
 575.190429688 33.7822265625 582.461914062 91.904296875 568.530273438 116.8359375 c 6
 557.583984375 136.42578125 l 5
 589.076171875 138.327148438 l 6
 643.516601562 141.614257812 649.911132812 143.418945312 688.6171875 166.427734375 c 6
 726.422851562 188.901367188 l 5
 728.526367188 81.9404296875 l 6
 730.870117188 -37.189453125 723.549804688 -82.302734375 695.48828125 -121.638671875 c 4
 673.23046875 -152.840820312 624.383789062 -175.037109375 567.641601562 -179.731445312 c 4
EndSplineSet
Validated: 524321
EndChar

StartChar: D
Encoding: 68 68 3
Width: 1000
HStem: -197.433 176.861<447.308 603.955> 595.193 177.2<473.116 586.104>
VStem: 237.72 202.326<-7.57304 600.391> 613.297 203.843<37.7864 564.097>
LayerCount: 2
Fore
SplineSet
616.865234375 -191.483398438 m 4
 591.913085938 -194.16015625 487.782226562 -196.837890625 385.461914062 -197.432617188 c 6
 199.423828125 -198.512695312 l 5
 214.34765625 -167.610351562 l 6
 231.470703125 -132.151367188 248.26171875 19.6513671875 237.719726562 43.6875 c 4
 234.1640625 51.794921875 232.955078125 175.3046875 235.034179688 318.153320312 c 4
 239.407226562 618.54296875 235.796875 664.028320312 202.75 724.936523438 c 4
 189.868164062 748.6796875 180.8046875 769.450195312 182.608398438 771.094726562 c 4
 187.986328125 775.995117188 425.666015625 776.799804688 566.2578125 772.393554688 c 4
 657.409179688 769.537109375 703.46484375 765.283203125 718.045898438 758.376953125 c 4
 749.322265625 743.561523438 792.387695312 696.653320312 802.234375 666.674804688 c 4
 814.1171875 630.493164062 825.270507812 396.391601562 816.155273438 374.432617188 c 4
 811.62109375 363.505859375 811.978515625 323.33984375 817.139648438 264.13671875 c 4
 825.180664062 171.89453125 821.318359375 76.2177734375 808.641601562 53.654296875 c 4
 804.671875 46.5869140625 805.0703125 40.2548828125 809.650390625 37.662109375 c 4
 821.18359375 31.1328125 818.698242188 -48.8115234375 805.71875 -88.8486328125 c 4
 786.1484375 -149.215820312 730.887695312 -179.247070312 616.865234375 -191.483398438 c 4
447.0546875 -7.9033203125 m 5
 447.053710938 -7.9033203125 l 5
 452.345703125 -16.9599609375 466.578125 -19.6337890625 514.469726562 -20.5712890625 c 4
 547.858398438 -21.2236328125 581.61328125 -18.6025390625 589.479492188 -14.74609375 c 4
 613.723632812 -2.8603515625 612.755859375 -19.5283203125 613.296875 396.068359375 c 4
 613.493164062 547.150390625 609.161132812 565.172851562 567.96484375 584.6875 c 4
 555.766601562 590.46484375 530.505859375 595.193359375 511.831054688 595.193359375 c 4
 493.157226562 595.193359375 475.672851562 598.461914062 472.978515625 602.456054688 c 4
 464.58203125 614.900390625 448.303710938 596.4765625 443.259765625 568.822265625 c 4
 439.477539062 548.127929688 438.00390625 418.140625 439.532226562 241.967773438 c 4
 439.651367188 228.634765625 439.876953125 169.54296875 440.045898438 110.65234375 c 4
 440.211914062 51.76171875 443.365234375 -1.5888671875 447.0546875 -7.9033203125 c 5
EndSplineSet
Validated: 524321
EndChar

StartChar: E
Encoding: 69 69 4
Width: 1000
HStem: -207.627 200.259<438.873 694.34> 210.801 172.845<434.867 650.364> 588.268 187.747<432.482 686.105>
VStem: 231.664 202.407<-24.6836 210.801 385.456 583.84>
LayerCount: 2
Fore
SplineSet
747.171875 -106.063476562 m 6
 748.796875 -208.22265625 l 5
 731.313476562 -207.626953125 l 6
 721.697265625 -207.299804688 703.622070312 -203.911132812 691.146484375 -200.096679688 c 4
 662.068359375 -191.206054688 278.388671875 -187.415039062 234.59375 -195.584960938 c 4
 216.368164062 -198.985351562 199.504882812 -199.979492188 197.120117188 -197.794921875 c 4
 194.735351562 -195.610351562 198.103515625 -183.817382812 204.60546875 -171.587890625 c 4
 234.942382812 -114.52734375 242.979492188 -77.8427734375 237.952148438 -19.3955078125 c 4
 232.282226562 46.5146484375 231.405273438 68.05859375 231.6640625 134.614257812 c 4
 231.766601562 161.279296875 231.669921875 197.122070312 231.442382812 214.263671875 c 4
 231.217773438 231.405273438 231.702148438 256.338867188 232.51953125 269.671875 c 4
 233.337890625 283.00390625 232.611328125 381.180664062 230.907226562 487.840820312 c 4
 228.056640625 666.215820312 226.489257812 684.952148438 211.364257812 721.4609375 c 4
 202.3203125 743.29296875 191.73828125 762.956054688 187.849609375 765.157226562 c 4
 168.790039062 775.948242188 188.938476562 778.640625 280.9765625 777.604492188 c 4
 336.069335938 776.983398438 439.431640625 776.270507812 510.671875 776.014648438 c 4
 581.912109375 775.760742188 649.530273438 772.302734375 660.935546875 768.331054688 c 4
 676.911132812 762.767578125 683.625976562 763.327148438 690.188476562 770.768554688 c 4
 694.873046875 776.081054688 705.510742188 781.888671875 713.827148438 783.67578125 c 4
 728.436523438 786.814453125 728.950195312 783.389648438 728.950195312 682.401367188 c 4
 728.950195312 624.913085938 731.5 567.370117188 734.615234375 554.52734375 c 4
 740.24609375 531.319335938 740.176757812 531.24609375 723.2734375 542.48828125 c 4
 644.4765625 594.899414062 648.931640625 593.99609375 489.983398438 589.7890625 c 6
 432.482421875 588.267578125 l 5
 431.04296875 503.423828125 l 6
 430.251953125 456.759765625 427.763671875 411.844726562 425.515625 403.612304688 c 4
 421.719726562 389.713867188 425.0703125 388.286132812 472.376953125 383.645507812 c 4
 540.4765625 376.96484375 627.069335938 383.567382812 656.942382812 397.717773438 c 4
 670.2890625 404.040039062 682.58203125 407.955078125 684.260742188 406.416992188 c 4
 685.939453125 404.879882812 681.919921875 386.985351562 675.328125 366.653320312 c 4
 666.889648438 340.625976562 664.100585938 309.53125 665.90234375 261.579101562 c 4
 667.310546875 224.120117188 666.590820312 193.46875 664.303710938 193.478515625 c 4
 662.016601562 193.482421875 655.892578125 197.381835938 650.6953125 202.143554688 c 4
 644.055664062 208.2265625 610.447265625 210.80078125 537.658203125 210.80078125 c 6
 434.071289062 210.80078125 l 5
 434.071289062 93.05859375 l 5
 434.071289062 -24.68359375 l 5
 483.217773438 -26.5458984375 l 6
 606.688476562 -31.224609375 618.9453125 -30.599609375 633.044921875 -18.912109375 c 4
 640.703125 -12.5625 652.986328125 -7.3681640625 660.341796875 -7.3681640625 c 4
 667.696289062 -7.3681640625 689.0078125 8.21484375 707.702148438 27.26171875 c 4
 750.837890625 71.208984375 759.216796875 71.5400390625 751.508789062 28.9931640625 c 4
 748.23046875 10.8994140625 746.279296875 -49.876953125 747.171875 -106.063476562 c 6
EndSplineSet
Validated: 524321
EndChar

StartChar: F
Encoding: 70 70 5
Width: 1000
HStem: 187.122 176.397<465.591 674.265> 367.807 20G<697.798 699.034> 585.197 183.353<457.561 708.816>
VStem: 257.136 209.043<24.2055 186.485> 257.633 206.077<-114.328 186.216 358.869 582.637>
LayerCount: 2
Fore
SplineSet
308.7109375 -200.161132812 m 5xe8
 308.711914062 -200.162109375 l 5
 277.522460938 -204.076171875 244.348632812 -209.020507812 234.9921875 -211.149414062 c 4
 212.25 -216.323242188 212.977539062 -203.918945312 237.806640625 -163.227539062 c 6
 257.6328125 -130.733398438 l 5xe8
 257.135742188 258.399414062 l 6
 256.840820312 489.962890625 253.55078125 661.930664062 249.01171875 683.092773438 c 4
 244.81640625 702.651367188 234.485351562 729.905273438 226.0546875 743.655273438 c 6
 210.724609375 768.65625 l 5
 479.448242188 768.549804688 l 6
 627.247070312 768.490234375 751.416992188 770.279296875 755.383789062 772.524414062 c 4
 759.854492188 775.056640625 762.358398438 733.056640625 761.971679688 661.950195312 c 4
 761.630859375 598.888671875 763.482421875 544.133789062 766.086914062 540.272460938 c 4
 776.66015625 524.602539062 746.743164062 534.734375 718.407226562 556.420898438 c 4
 690.733398438 577.598632812 682.717773438 579.90234375 625.069335938 583.240234375 c 4
 590.383789062 585.249023438 538.50390625 586.51171875 509.782226562 586.044921875 c 6
 457.560546875 585.197265625 l 5
 460.435546875 529.790039062 l 6
 462.016601562 499.315429688 462.323242188 448.391601562 461.118164062 416.625 c 6
 458.92578125 358.869140625 l 5
 551.893554688 363.51953125 l 6
 603.133789062 366.083007812 656.375976562 372.577148438 670.515625 377.98828125 c 4
 684.624023438 383.388671875 697.1796875 387.806640625 698.416015625 387.806640625 c 4
 699.65234375 387.806640625 697.741210938 377.677734375 694.169921875 365.296875 c 4
 685.211914062 334.244140625 676.61328125 260.706054688 676.354492188 212.92578125 c 4
 676.235351562 191.021484375 675.3203125 173.100585938 674.3203125 173.100585938 c 4
 673.3203125 173.100585938 660.791015625 179.430664062 646.477539062 187.166992188 c 4
 624.205078125 199.204101562 615.692382812 200.227539062 587.447265625 194.26171875 c 4
 569.294921875 190.428710938 535.248046875 187.21484375 511.787109375 187.122070312 c 4
 473.53515625 186.970703125 468.826171875 185.34375 466.178710938 171.369140625 c 4xf0
 464.5546875 162.798828125 463.334960938 95.009765625 463.46875 20.728515625 c 6
 463.709960938 -114.328125 l 5
 486.166015625 -155.883789062 l 6
 498.516601562 -178.740234375 509.659179688 -199.229492188 510.926757812 -201.416992188 c 4
 512.194335938 -203.604492188 490.180664062 -202.700195312 462.0078125 -199.407226562 c 4
 394.955078125 -191.5703125 376.4375 -191.661132812 308.7109375 -200.161132812 c 5xe8
EndSplineSet
Validated: 524321
EndChar

StartChar: G
Encoding: 71 71 6
Width: 1000
HStem: 436.289 21G<585.142 588.153> 595.587 165.954<401.111 575.195>
VStem: 189.933 199.42<-27.6816 568.516> 555.592 198.809<-15.9306 188.613> 582.445 161.41<507.225 587.392>
LayerCount: 2
Fore
SplineSet
731.84765625 -202.705078125 m 5xf0
 727.515625 -213.141601562 722.451171875 -221.680664062 720.592773438 -221.680664062 c 4
 715.314453125 -221.680664062 655.65234375 -156.513671875 655.59765625 -150.689453125 c 4
 655.5 -140.337890625 641.959960938 -145.920898438 616.877929688 -166.655273438 c 4
 584.352539062 -193.54296875 569.923828125 -198.790039062 510.813476562 -205.228515625 c 4
 446.650390625 -212.217773438 398.258789062 -210.978515625 332.61328125 -200.666015625 c 4
 284.4921875 -193.106445312 273.505859375 -188.337890625 239.018554688 -160.04296875 c 6
 199.944335938 -127.984375 l 5
 194.630859375 -62.28515625 l 6
 191.708007812 -26.150390625 189.59375 96.9150390625 189.932617188 211.194335938 c 4
 190.423828125 377.186523438 192.513671875 418.606445312 200.322265625 417.143554688 c 4
 208.228515625 415.663085938 208.291992188 418.311523438 200.650390625 430.99609375 c 4
 194.209960938 441.686523438 191.098632812 483.055664062 190.875 560.95703125 c 4
 190.572265625 666.727539062 191.778320312 677.048828125 207.077148438 699.579101562 c 4
 229.80859375 733.056640625 266.521484375 756.302734375 303.311523438 760.515625 c 4
 342.96875 765.056640625 540.87109375 765.6796875 629.084960938 761.541015625 c 4
 693.815429688 758.50390625 698.736328125 759.301757812 729.982421875 777.89453125 c 4
 748.049804688 788.645507812 764.306640625 796.08984375 766.109375 794.438476562 c 4
 767.912109375 792.787109375 765.7109375 782.580078125 761.21875 771.756835938 c 4
 751.728515625 748.891601562 738.057617188 589.014648438 743.85546875 568.704101562 c 4
 746.015625 561.13671875 743.913085938 544.204101562 739.182617188 531.075195312 c 4
 732.115234375 511.4609375 722.880859375 504.030273438 687.39453125 489.404296875 c 4
 663.641601562 479.615234375 632.48828125 463.659179688 618.165039062 453.947265625 c 4
 603.841796875 444.235351562 589.658203125 436.2890625 586.647460938 436.2890625 c 4
 583.635742188 436.2890625 581.744140625 465.533203125 582.4453125 501.275390625 c 4xe8
 584.162109375 588.849609375 577.90625 595.586914062 494.873046875 595.586914062 c 4
 447.420898438 595.586914062 430.483398438 592.749023438 414.08203125 582.051757812 c 6
 393.329101562 568.515625 l 5
 389.21484375 421.021484375 l 6
 386.952148438 339.900390625 387.431640625 243.919921875 390.280273438 207.731445312 c 4
 393.12890625 171.54296875 392.7109375 113.883789062 389.352539062 79.6005859375 c 4
 381.255859375 -3.0380859375 385.408203125 -18.533203125 419.107421875 -31.4306640625 c 4
 441.779296875 -40.1083984375 453.16015625 -40.384765625 491.244140625 -33.1787109375 c 4
 555.359375 -21.048828125 558.173828125 -15.3203125 555.591796875 97.7470703125 c 6
 553.475585938 190.416015625 l 5
 506.205078125 190.416015625 l 6
 480.20703125 190.416015625 458.94921875 192.908203125 458.94921875 195.955078125 c 4
 458.956054688 199.000976562 464.276367188 210.90625 470.770507812 222.41015625 c 4
 479.119140625 237.197265625 482.106445312 259.676757812 480.96875 299.125 c 6
 479.358398438 354.924804688 l 5
 628.983398438 354.250976562 l 6
 711.27734375 353.880859375 779.955078125 352.34375 781.599609375 350.836914062 c 4
 783.245117188 349.329101562 777.524414062 324.5 768.887695312 295.66015625 c 4
 757.104492188 256.319335938 753.487304688 225.388671875 754.400390625 171.801757812 c 4
 756.150390625 69.16015625 741.125 -180.354492188 731.84765625 -202.705078125 c 5xf0
EndSplineSet
Validated: 524321
EndChar

StartChar: H
Encoding: 72 72 7
Width: 1000
HStem: 208.609 176.522<390.911 572.346>
VStem: 185.77 199.777<-108.188 210.407 377.645 746.145> 579.322 196.723<-100.041 201.247 389.136 723.089>
LayerCount: 2
Fore
SplineSet
248.075195312 -183.864257812 m 5
 248.075195312 -183.858398438 l 5
 203.708984375 -194.389648438 140.071289062 -198.635742188 140.071289062 -191.064453125 c 4
 140.071289062 -189.033203125 148.090820312 -172.670898438 157.891601562 -154.703125 c 4
 167.693359375 -136.735351562 178.182617188 -112.684570312 181.202148438 -101.256835938 c 4
 184.220703125 -89.8291015625 186.276367188 30.1640625 185.76953125 165.39453125 c 4
 185.262695312 300.624023438 184.716796875 448.666992188 184.556640625 494.37890625 c 4
 184.396484375 540.090820312 184.987304688 583.724609375 185.870117188 591.342773438 c 4
 186.752929688 598.961914062 184.791015625 634.462890625 181.510742188 670.235351562 c 4
 176.234375 727.770507812 173.0625 737.865234375 154.028320312 757.724609375 c 4
 132.463867188 780.221679688 125.846679688 793.323242188 140.1328125 785.235351562 c 4
 144.326171875 782.862304688 208.71484375 780.919921875 283.217773438 780.919921875 c 6
 418.6796875 780.919921875 l 5
 404.267578125 742.547851562 l 6
 387.793945312 698.688476562 381.42578125 586.389648438 387.916015625 454.225585938 c 4
 391.408203125 383.124023438 393.494140625 373.075195312 403.98828125 376.822265625 c 4
 410.62109375 379.190429688 452.784179688 382.9296875 497.684570312 385.131835938 c 6
 579.322265625 389.135742188 l 5
 577.075195312 564.130859375 l 6
 574.905273438 733.1640625 574.248046875 739.84375 557.80078125 760.205078125 c 6
 540.7734375 781.28515625 l 5
 683.83984375 781.130859375 l 5
 826.905273438 780.9765625 l 5
 803.012695312 734.638671875 l 6
 780.219726562 690.431640625 778.99609375 683.682617188 776.415039062 587.874023438 c 4
 774.926757812 532.639648438 774.759765625 468.747070312 776.044921875 445.891601562 c 4
 778.947265625 394.260742188 779.008789062 335.762695312 776.194335938 303.908203125 c 4
 775.016601562 290.575195312 774.37109375 192.399414062 774.759765625 85.7392578125 c 4
 775.45703125 -105.513671875 775.725585938 -108.69921875 794.233398438 -145.23828125 c 4
 804.5546875 -165.615234375 812.999023438 -183.5390625 812.999023438 -185.068359375 c 4
 812.999023438 -186.59765625 767.916992188 -187.067382812 712.81640625 -186.112304688 c 4
 657.71484375 -185.15625 593.268554688 -186.9140625 569.600585938 -190.016601562 c 6
 526.568359375 -195.659179688 l 5
 553.346679688 -147.849609375 l 5
 580.125 -100.041015625 l 5
 579.26171875 48.0078125 l 6
 578.786132812 129.43359375 575.755859375 198.475585938 572.526367188 201.43359375 c 4
 569.297851562 204.391601562 526.211914062 207.620117188 476.78125 208.609375 c 6
 386.907226562 210.407226562 l 5
 385.546875 51.109375 l 5
 384.1875 -108.188476562 l 5
 405.788085938 -144.4453125 l 6
 417.66796875 -164.38671875 427.388671875 -182.307617188 427.388671875 -184.26953125 c 4
 427.388671875 -190.640625 359.345703125 -188.038085938 326.234375 -180.401367188 c 4
 300.8515625 -174.546875 284.2265625 -175.283203125 248.075195312 -183.864257812 c 5
EndSplineSet
Validated: 524321
EndChar

StartChar: I
Encoding: 73 73 8
Width: 1000
HStem: -209.685 21G<362.547 394.101>
VStem: 393.122 202.815<-142.033 403.065>
LayerCount: 2
Fore
SplineSet
469.057617188 -197.654296875 m 5
 469.057617188 -197.65625 l 5
 452.245117188 -198.879882812 418.513671875 -202.086914062 394.100585938 -204.782226562 c 6
 349.713867188 -209.684570312 l 5
 371.41796875 -175.859375 l 5
 393.122070312 -142.033203125 l 5
 393.122070312 234.36328125 l 6
 393.122070312 441.380859375 390.5703125 612.204101562 387.452148438 613.969726562 c 4
 384.333007812 615.736328125 381.754882812 627.125976562 381.723632812 639.28125 c 4
 381.64453125 669.287109375 355.352539062 746.467773438 339.870117188 762.138671875 c 4
 327.743164062 774.4140625 329.5234375 774.741210938 390.193359375 771.408203125 c 4
 424.786132812 769.5078125 456.723632812 765.190429688 461.1640625 761.814453125 c 4
 465.877929688 758.233398438 473.856445312 758.3515625 480.327148438 762.100585938 c 4
 492.1171875 768.930664062 646.416015625 771.455078125 646.416015625 764.818359375 c 4
 646.416015625 762.663085938 642.634765625 754.428710938 638.013671875 746.51953125 c 4
 633.392578125 738.610351562 622.770507812 711.543945312 614.409179688 686.372070312 c 4
 595.456054688 629.314453125 592.40234375 521.551757812 595.9375 34.5810546875 c 4
 597.227539062 -143.181640625 597.814453125 -149.802734375 614.588867188 -175.803710938 c 4
 624.114257812 -190.568359375 630.793945312 -203.669921875 629.430664062 -204.91796875 c 4
 628.068359375 -206.166015625 598.305664062 -204.541992188 563.290039062 -201.30859375 c 4
 528.275390625 -198.075195312 485.87109375 -196.430664062 469.057617188 -197.654296875 c 5
EndSplineSet
Validated: 524321
EndChar

StartChar: J
Encoding: 74 74 9
Width: 1000
VStem: 147.992 191.494<30.0518 213.242> 491.223 193.272<-25.1092 637.08>
LayerCount: 2
Fore
SplineSet
520.809570312 -203.94140625 m 4
 485.032226562 -213.883789062 402.17578125 -218.185546875 393.823242188 -210.53515625 c 4
 391.588867188 -208.48828125 362.952148438 -206.55859375 330.184570312 -206.245117188 c 4
 267.522460938 -205.647460938 228.662109375 -193.526367188 192.372070312 -163.260742188 c 4
 153.91796875 -131.189453125 132.540039062 -62.99609375 154.604492188 -42.7841796875 c 4
 161.234375 -36.7119140625 160.97265625 -32.134765625 153.528320312 -23.91796875 c 4
 146.640625 -16.31640625 144.983398438 -0.162109375 147.9921875 30.0517578125 c 4
 151.981445312 70.1318359375 148.5546875 100.415039062 134.685546875 147.627929688 c 4
 129.411132812 165.583007812 130.514648438 166.673828125 153.946289062 166.673828125 c 4
 179.71484375 166.673828125 196.96875 170.884765625 285.09375 198.67578125 c 4
 313.854492188 207.74609375 338.331054688 214.30078125 339.486328125 213.2421875 c 4
 340.641601562 212.18359375 338.705078125 198.935546875 335.181640625 183.801757812 c 4
 315.521484375 99.3564453125 318.625 -27.25390625 340.354492188 -27.25390625 c 4
 353.170898438 -27.25390625 396.635742188 -48.283203125 404.427734375 -58.25390625 c 4
 412.5625 -68.662109375 465.547851562 -38.2451171875 478.495117188 -15.7353515625 c 4
 487.901367188 0.6201171875 490.034179688 50.345703125 491.22265625 280.953125 c 4
 492.970703125 620.427734375 486.776367188 672.232421875 438.116210938 725.112304688 c 6
 419.8203125 744.995117188 l 5
 481.302734375 742.682617188 l 6
 515.118164062 741.41015625 546.190429688 737.900390625 550.35546875 734.8828125 c 4
 554.518554688 731.865234375 576.639648438 731.899414062 599.51171875 734.958007812 c 4
 652.432617188 742.037109375 724.465820312 709.891601562 703.124023438 651.494140625 c 4
 685.045898438 602.029296875 679.8125 572.283203125 682.411132812 533.751953125 c 4
 683.052734375 524.229492188 683.9921875 388.65234375 684.495117188 232.471679688 c 4
 685.334960938 -27.42578125 684.209960938 -54.9794921875 671.227539062 -92.611328125 c 4
 654.45703125 -141.221679688 605.321289062 -193.432617188 576.234375 -193.552734375 c 4
 566.165039062 -193.59375 541.223632812 -198.268554688 520.809570312 -203.94140625 c 4
EndSplineSet
Validated: 524321
EndChar

StartChar: K
Encoding: 75 75 10
Width: 1000
LayerCount: 2
Fore
SplineSet
267.59765625 -176.356445312 m 5
 267.59765625 -176.357421875 l 5
 192.830078125 -192.716796875 172.489257812 -187.3203125 200.823242188 -158.642578125 c 4
 207.166015625 -152.221679688 218.998046875 -129.657226562 227.1171875 -108.498046875 c 4
 241.223632812 -71.7314453125 241.749023438 -52.8955078125 238.967773438 316.711914062 c 4
 237.249023438 545.115234375 232.997070312 711.95703125 228.583007812 724.228515625 c 4
 224.471679688 735.65625 218.729492188 750.365234375 215.821289062 756.9140625 c 4
 210.93359375 767.918945312 220.893554688 768.80078125 347.178710938 768.541015625 c 6
 483.82421875 768.260742188 l 5
 466.984375 747.416015625 l 6
 451.119140625 727.77734375 450.001953125 718.556640625 447.678710938 588.052734375 c 4
 446.323242188 511.868164062 447.26171875 444.646484375 449.763671875 438.672851562 c 4
 452.77734375 431.479492188 467.279296875 450.9609375 492.712890625 496.37109375 c 4
 513.833007812 534.079101562 535.583007812 569.60546875 541.046875 575.319335938 c 4
 546.510742188 581.034179688 563.530273438 610.642578125 578.866210938 641.1171875 c 4
 599.208007812 681.53515625 607.045898438 706.830078125 607.837890625 734.618164062 c 6
 608.924804688 772.7109375 l 5
 652.361328125 771.734375 l 6
 676.251953125 771.196289062 700.068359375 769.323242188 705.2890625 767.571289062 c 4
 710.5078125 765.819335938 753.05859375 766.258789062 799.845703125 768.548828125 c 4
 846.631835938 770.837890625 884.752929688 771.15234375 884.556640625 769.248046875 c 4
 884.361328125 767.342773438 870.935546875 756.434570312 854.72265625 745.006835938 c 4
 814.516601562 716.66796875 789.107421875 683.22265625 733.698242188 585.708984375 c 4
 707.723632812 539.997070312 676.40625 486.196289062 664.103515625 466.15234375 c 4
 643.473632812 432.540039062 642.333007812 427.15625 649.422851562 396.891601562 c 4
 657.766601562 361.276367188 690.177734375 277.779296875 721.305664062 211.705078125 c 4
 732.073242188 188.848632812 740.965820312 160.3359375 741.0625 148.342773438 c 4
 741.161132812 136.349609375 751.450195312 108.76171875 763.924804688 87.037109375 c 4
 776.400390625 65.3125 786.608398438 38.2041015625 786.608398438 26.796875 c 4
 786.608398438 -11.544921875 811.075195312 -71.8818359375 848.12109375 -124.8984375 c 4
 868.349609375 -153.848632812 884.901367188 -179.560546875 884.901367188 -182.037109375 c 4
 884.901367188 -189.520507812 850.852539062 -187.138671875 798.333984375 -175.981445312 c 4
 753.80078125 -166.521484375 744.006835938 -166.521484375 704.150390625 -175.981445312 c 4
 637.03125 -191.913085938 629.770507812 -190.75390625 633.934570312 -164.76953125 c 4
 638.62109375 -135.518554688 621.80078125 -52.322265625 603.369140625 -13.58984375 c 4
 595.159179688 3.662109375 577.28515625 48.943359375 563.6484375 87.037109375 c 4
 537.205078125 160.903320312 509.923828125 222.09375 503.434570312 222.09375 c 4
 501.259765625 222.09375 487.798828125 200.845703125 473.521484375 174.875 c 6
 447.5625 127.657226562 l 5
 443.85546875 1.681640625 l 6
 440.282226562 -119.748046875 440.780273438 -125.436523438 457.663085938 -155.983398438 c 6
 475.177734375 -187.673828125 l 5
 409.733398438 -182.743164062 l 6
 373.739257812 -180.03125 336.998046875 -175.3046875 328.0859375 -172.239257812 c 4
 318.520507812 -168.951171875 293.735351562 -170.637695312 267.59765625 -176.356445312 c 5
EndSplineSet
Validated: 524321
EndChar

StartChar: L
Encoding: 76 76 11
Width: 1000
HStem: -184.538 168.515<511.777 736.818>
VStem: 317.622 193.897<-15.6525 345.293> 317.987 202.328<-9.33621 706.11>
LayerCount: 2
Fore
SplineSet
420.571289062 -174.775390625 m 5xc0
 420.5703125 -174.775390625 l 5
 371.838867188 -184.180664062 258.787109375 -190.125976562 258.787109375 -183.282226562 c 4
 258.787109375 -179.822265625 271.166992188 -162.139648438 286.297851562 -143.987304688 c 6
 313.80859375 -110.984375 l 5
 317.622070312 21.5009765625 l 6xc0
 319.717773438 94.3671875 320.752929688 164.89453125 319.91796875 178.2265625 c 4
 319.083007812 191.559570312 318.262695312 278.643554688 318.090820312 371.747070312 c 4
 317.817382812 520.362304688 319.282226562 542.032226562 330.091796875 549.272460938 c 4
 340.25390625 556.079101562 340.541992188 558.172851562 331.7421875 561.265625 c 4
 323.833984375 564.045898438 320.282226562 583.225585938 317.987304688 635.561523438 c 6
 314.89453125 706.110351562 l 5
 283.828125 732.654296875 l 5
 252.76171875 759.19921875 l 5
 400.009765625 759.522460938 l 6
 480.99609375 759.69921875 550.842773438 761.874023438 555.22265625 764.354492188 c 4
 559.602539062 766.834960938 561.723632812 766.092773438 559.931640625 762.706054688 c 4
 522.791992188 692.479492188 525.333984375 719.262695312 520.315429688 345.350585938 c 4xa0
 517.739257812 153.4765625 513.78125 -6.2548828125 511.51953125 -9.607421875 c 4
 509.2578125 -12.958984375 523.770507812 -15.845703125 543.768554688 -16.0234375 c 4
 563.766601562 -16.2001953125 608.084960938 -16.650390625 642.252929688 -17.0234375 c 4
 699.56640625 -17.6494140625 706.590820312 -16.162109375 732.984375 2.2001953125 c 4
 748.719726562 13.146484375 770.137695312 30.6181640625 780.580078125 41.0263671875 c 6
 799.56640625 59.9482421875 l 5
 799.8515625 -41.9423828125 l 6
 800.0078125 -97.9814453125 802.296875 -154.376953125 804.9375 -167.263671875 c 6
 809.740234375 -190.6953125 l 5
 766.764648438 -185.42578125 l 6
 714.458984375 -179.012695312 703.909179688 -178.961914062 580.783203125 -184.538085938 c 4
 502.545898438 -188.080078125 479.853515625 -186.984375 466.58984375 -179.0234375 c 4
 454.526367188 -171.783203125 442.044921875 -170.630859375 420.571289062 -174.775390625 c 5xc0
EndSplineSet
Validated: 524321
EndChar

StartChar: M
Encoding: 77 77 12
Width: 1000
HStem: -144.413 21G<503.217 520.846> 750.504 20G<236.713 395.038>
VStem: 122.036 187.626<-111.516 373.813> 716.333 198.412<-46.9531 386.727>
LayerCount: 2
Fore
SplineSet
190.123046875 -176.693359375 m 5
 190.123046875 -176.69921875 l 5
 171.409179688 -180.404296875 138.5390625 -184.690429688 117.077148438 -186.224609375 c 6
 78.0556640625 -189.012695312 l 5
 100.045898438 -150.264648438 l 5
 122.036132812 -111.515625 l 5
 125.06640625 162.061523438 l 6
 126.732421875 312.528320312 125.803710938 496.759765625 123.00390625 571.463867188 c 4
 117.934570312 706.681640625 117.815429688 707.404296875 96.5458984375 732.948242188 c 4
 84.794921875 747.060546875 76.375 759.5390625 77.833984375 760.677734375 c 4
 79.2939453125 761.817382812 150.7890625 764.493164062 236.712890625 766.625976562 c 6
 392.936523438 770.50390625 l 5
 396.702148438 734.665039062 l 6
 402.586914062 678.670898438 415.815429688 622.333007812 431.805664062 585.172851562 c 4
 439.86328125 566.448242188 451.69921875 523.583984375 458.108398438 489.919921875 c 4
 464.516601562 456.255859375 478.892578125 402.428710938 490.052734375 370.303710938 c 6
 510.344726562 311.896484375 l 5
 520.092773438 355.669921875 l 6
 525.454101562 379.745117188 534.889648438 413.8203125 541.060546875 431.392578125 c 4
 547.231445312 448.96484375 559.385742188 491.392578125 568.071289062 525.67578125 c 4
 576.755859375 559.959960938 594.256835938 618.900390625 606.961914062 656.65625 c 4
 620.877929688 698.009765625 628.412109375 732.862304688 625.911132812 744.31640625 c 6
 621.759765625 763.331054688 l 5
 783.991210938 763.877929688 l 6
 873.217773438 764.177734375 946.22265625 763.048828125 946.22265625 761.368164062 c 4
 946.22265625 759.6875 937.716796875 746.830078125 927.3203125 732.796875 c 4
 909.420898438 708.63671875 908.340820312 701.725585938 906.96484375 602.626953125 c 4
 906.166992188 545.067382812 905.907226562 490.180664062 906.393554688 480.657226562 c 4
 910.365234375 402.573242188 916.958984375 202.259765625 916.196289062 182.838867188 c 4
 915.672851562 169.506835938 915.021484375 99.380859375 914.745117188 27.00390625 c 4
 914.301757812 -90.208984375 915.99609375 -109.06640625 930.25390625 -145.55078125 c 4
 939.05859375 -168.079101562 944.537109375 -188.090820312 942.430664062 -190.021484375 c 4
 940.323242188 -191.951171875 921.340820312 -189.881835938 900.248046875 -185.421875 c 4
 850.969726562 -175.000976562 773.735351562 -175.069335938 718.166015625 -185.583984375 c 4
 694.120117188 -190.1328125 672.05859375 -191.668945312 669.141601562 -188.997070312 c 4
 666.224609375 -186.32421875 676.6015625 -160.795898438 692.203125 -132.266601562 c 6
 720.568359375 -80.3955078125 l 5
 716.333007812 7.935546875 l 6
 714.00390625 56.5166015625 712.040039062 162.6796875 711.96484375 243.8515625 c 4
 711.891601562 325.024414062 709.09375 389.888671875 705.748046875 387.994140625 c 4
 702.40234375 386.099609375 691.741210938 360.203125 682.057617188 330.446289062 c 4
 672.375 300.688476562 649.321289062 235.82421875 630.829101562 186.303710938 c 4
 612.336914062 136.783203125 595.954101562 88.4736328125 594.422851562 78.951171875 c 4
 592.892578125 69.427734375 580.930664062 35.1435546875 567.842773438 2.7646484375 c 4
 554.75390625 -29.6142578125 537.297851562 -75.9755859375 529.049804688 -100.259765625 c 6
 514.053710938 -144.413085938 l 5
 503.216796875 -125.280273438 l 6
 497.256835938 -114.756835938 487.108398438 -89.5361328125 480.666015625 -69.2353515625 c 4
 474.223632812 -48.9345703125 460.279296875 -12.7412109375 449.6796875 11.1923828125 c 4
 431.782226562 51.60546875 424.559570312 72.990234375 401.067382812 155.13671875 c 4
 396.165039062 172.278320312 373.486328125 240.391601562 350.668945312 306.499023438 c 4
 310.333984375 423.360351562 293.104492188 448.497070312 303.837890625 374.8203125 c 4
 306.733398438 354.940429688 309.354492188 231.657226562 309.662109375 100.858398438 c 4
 310.138671875 -102.215820312 311.94140625 -139.365234375 322.000976562 -153.428710938 c 4
 328.48046875 -162.487304688 333.78125 -171.202148438 333.78125 -172.796875 c 4
 333.78125 -180.716796875 297.0546875 -182.74609375 262.70703125 -176.723632812 c 4
 237.689453125 -172.33203125 212.198242188 -172.323242188 190.123046875 -176.693359375 c 5
15.2177734375 -186.076171875 m 5
 10.416015625 -162.64453125 l 6
 7.775390625 -149.756835938 5.486328125 -93.3623046875 5.330078125 -37.3232421875 c 6
 5.044921875 64.568359375 l 1029
EndSplineSet
Validated: 524323
EndChar

StartChar: N
Encoding: 78 78 13
Width: 1000
VStem: 188.184 191.626<-120.748 336.831> 606.164 189.087<306.944 729.139>
LayerCount: 2
Fore
SplineSet
251.76171875 -185.444335938 m 6
 244.564453125 -188.837890625 220.811523438 -193.698242188 198.979492188 -196.244140625 c 4
 156.709960938 -201.173828125 152.296875 -197.59375 167.846679688 -170.978515625 c 4
 190.526367188 -132.16015625 194.9375 -84.1669921875 188.18359375 50.2724609375 c 4
 184.489257812 123.8203125 183.34375 196.462890625 185.638671875 211.700195312 c 4
 187.93359375 226.9375 189.340820312 275.24609375 188.765625 319.052734375 c 4
 188.190429688 362.859375 188.497070312 458.404296875 189.446289062 531.373046875 c 4
 191.32421875 675.6953125 186.331054688 703.806640625 153.00390625 736.509765625 c 6
 133.42578125 755.721679688 l 5
 269.201171875 753.825195312 l 5
 404.9765625 751.927734375 l 5
 402.56640625 726.375976562 l 6
 400.657226562 706.131835938 410.477539062 681.936523438 449.84375 609.89453125 c 4
 477.170898438 559.8828125 499.529296875 511.541015625 499.529296875 502.466796875 c 4
 499.529296875 487.606445312 596.858398438 302.009765625 602.123046875 306.83203125 c 4
 603.330078125 307.9375 605.1484375 391.39453125 606.1640625 492.291992188 c 4
 607.703125 645.0625 606.063476562 679.795898438 596.362304688 699.982421875 c 4
 589.955078125 713.315429688 582.666015625 732.166992188 580.1640625 741.875976562 c 6
 575.615234375 759.52734375 l 5
 626.4140625 754.25390625 l 6
 654.353515625 751.352539062 710.38671875 750.8671875 750.932617188 753.174804688 c 4
 791.478515625 755.482421875 824.65234375 754.79296875 824.65234375 751.641601562 c 4
 824.65234375 748.490234375 818.02734375 733.240234375 809.930664062 717.752929688 c 4
 797.020507812 693.05859375 795.1953125 674.25390625 795.250976562 564.92578125 c 4
 795.2734375 496.358398438 797.130859375 395.436523438 799.377929688 340.655273438 c 4
 802.353515625 268.142578125 800.901367188 236.665039062 794.041015625 224.923828125 c 4
 787.225585938 213.258789062 786.276367188 193.865234375 790.610351562 154.83984375 c 4
 793.90625 125.1640625 796.252929688 82.18359375 795.831054688 59.328125 c 4
 792.611328125 -114.315429688 793.5078125 -123.145507812 820.153320312 -180.135742188 c 4
 824.670898438 -189.797851562 811.87890625 -191.012695312 708.016601562 -190.782226562 c 6
 590.78125 -190.5234375 l 5
 596.192382812 -172.951171875 l 6
 608.053710938 -134.430664062 601.315429688 -99.94921875 570.42578125 -41.087890625 c 4
 553.4375 -8.71484375 535.92578125 27.1220703125 531.51171875 38.5498046875 c 4
 527.09765625 49.978515625 506.280273438 95.169921875 485.250976562 138.9765625 c 4
 464.220703125 182.784179688 446.921875 222.548828125 446.80859375 227.34375 c 4
 446.6953125 232.137695312 436.622070312 248.681640625 424.423828125 264.10546875 c 4
 412.2265625 279.53125 400.055664062 301.28515625 397.37890625 312.448242188 c 4
 394.702148438 323.612304688 389.372070312 334.524414062 385.533203125 336.697265625 c 4
 377.505859375 341.241210938 374.95703125 237.784179688 377.840820312 24.6982421875 c 6
 379.809570312 -120.748046875 l 5
 401.865234375 -154.106445312 l 6
 413.995117188 -172.454101562 423.919921875 -188.81640625 423.919921875 -190.46875 c 4
 423.919921875 -195.868164062 360.6796875 -193.51953125 312.25 -186.3203125 c 4
 284.004882812 -182.12109375 259.559570312 -181.767578125 251.76171875 -185.444335938 c 6
EndSplineSet
Validated: 524321
EndChar

StartChar: O
Encoding: 79 79 14
Width: 1000
HStem: -198.751 176.616<450.387 601.563>
VStem: 232.039 200.198<12.9082 587.812> 616.543 198.196<-5.57958 371.718 525.276 576.174>
LayerCount: 2
Fore
SplineSet
639.405273438 -186.051757812 m 5
 609.25 -191.26171875 576.0703125 -196.9765625 565.673828125 -198.750976562 c 4
 555.27734375 -200.524414062 538.237304688 -199.494140625 527.805664062 -196.4609375 c 4
 517.375 -193.427734375 490.155273438 -191.608398438 467.318359375 -192.41796875 c 4
 398.123046875 -194.872070312 285.916992188 -157.698242188 285.916992188 -132.3203125 c 4
 285.916992188 -128.446289062 278.376953125 -119.682617188 269.159179688 -112.845703125 c 4
 241.038085938 -91.9873046875 222.869140625 38.75 241.345703125 87.298828125 c 4
 247.62890625 103.810546875 247.450195312 111.739257812 240.625 119.2734375 c 4
 235.40234375 125.037109375 231.756835938 149.240234375 232.0390625 176.267578125 c 4
 232.309570312 202.10546875 233.485351562 319.862304688 234.650390625 437.950195312 c 4
 236.752929688 650.96484375 236.9140625 652.875 255.005859375 680.360351562 c 4
 279.706054688 717.885742188 300.463867188 738.369140625 327.502929688 751.89453125 c 4
 346.874023438 761.5859375 375.907226562 763.083984375 526.412109375 762.162109375 c 4
 717.668945312 760.989257812 721.643554688 760.260742188 760.498046875 719.236328125 c 4
 788.860351562 689.290039062 800.264648438 664.959960938 803.877929688 626.69140625 c 4
 805.766601562 606.688476562 810.399414062 565.545898438 814.172851562 535.262695312 c 4
 818.129882812 503.514648438 818.369140625 430.206054688 814.739257812 362.11328125 c 4
 811.276367188 297.163085938 810.172851562 195.713867188 812.286132812 136.669921875 c 4
 814.400390625 77.6259765625 812.576171875 1.3056640625 808.232421875 -32.9306640625 c 4
 799.943359375 -98.275390625 788.602539062 -120.4140625 753.327148438 -140.115234375 c 4
 742.844726562 -145.969726562 725.26171875 -156.568359375 714.251953125 -163.668945312 c 4
 703.2421875 -170.76953125 669.561523438 -180.841796875 639.405273438 -186.051757812 c 5
454.129882812 -6.953125 m 6
 473.995117188 -25.9443359375 476.973632812 -26.609375 522.1796875 -22.134765625 c 4
 592.420898438 -15.181640625 609.633789062 -5.7119140625 614.350585938 28.5703125 c 4
 616.504882812 44.2177734375 617.490234375 171.44921875 616.54296875 311.305664062 c 4
 615.037109375 533.541015625 613.298828125 566.983398438 602.75 576.64453125 c 4
 595.930664062 582.890625 567.137695312 590.688476562 536.559570312 594.5703125 c 4
 473.020507812 602.635742188 445.045898438 594.298828125 436.506835938 564.752929688 c 4
 433.54296875 554.498046875 431.622070312 426.138671875 432.237304688 279.508789062 c 6
 433.356445312 12.908203125 l 5
 454.129882812 -6.953125 l 6
EndSplineSet
Validated: 524321
EndChar

StartChar: P
Encoding: 80 80 15
Width: 1000
HStem: 144.27 167.483<513.95 644.602> 150.386 152.869<499.115 643.767> 596.843 167.581<502.431 651.174>
VStem: 295.139 204.274<-126.5 140.944 303.358 596.843> 652.667 200.002<316.855 585.225>
LayerCount: 2
Fore
SplineSet
398.466796875 -169.25 m 4xb8
 382.51171875 -176.827148438 260.478515625 -187.026367188 260.478515625 -180.783203125 c 4
 260.478515625 -178.362304688 268.731445312 -166.4609375 278.818359375 -154.334960938 c 4
 293.80859375 -136.3125 297.192382812 -124.067382812 297.358398438 -87.2685546875 c 4
 297.469726562 -62.5078125 296.470703125 121.897460938 295.138671875 322.521484375 c 6
 292.717773438 687.29296875 l 5
 272.817382812 719.907226562 l 6
 261.873046875 737.845703125 252.91796875 755.14453125 252.91796875 758.349609375 c 4
 252.91796875 761.5546875 299.701171875 764.288085938 356.881835938 764.423828125 c 4
 414.061523438 764.559570312 484.662109375 765.61328125 513.771484375 766.764648438 c 4
 542.881835938 767.916992188 607.84375 766.836914062 658.131835938 764.364257812 c 4
 745.396484375 760.073242188 751.208984375 758.83203125 785.62109375 737.14453125 c 4
 810.356445312 721.5546875 826.428710938 704.579101562 836.814453125 683.07421875 c 4
 851.16796875 653.348632812 851.303710938 650.483398438 839.4296875 627.674804688 c 4
 829.112304688 607.857421875 828.830078125 604.298828125 837.827148438 607.4609375 c 4
 855.326171875 613.612304688 857.100585938 592.76171875 852.668945312 433.12890625 c 4
 848.078125 267.796875 848.353515625 268.826171875 791.833984375 205.643554688 c 4
 751.298828125 160.330078125 731.747070312 153.606445312 631.158203125 150.385742188 c 4x78
 583.23046875 148.850585938 533.327148438 146.098632812 520.263671875 144.26953125 c 6
 496.510742188 140.944335938 l 5
 497.625976562 7.22265625 l 5
 498.741210938 -126.5 l 5
 520.231445312 -156.24609375 l 5
 541.721679688 -185.9921875 l 5
 489.94140625 -180.935546875 l 6
 461.462890625 -178.155273438 432.208007812 -172.974609375 424.930664062 -169.423828125 c 4
 416.947265625 -165.528320312 406.450195312 -165.459960938 398.466796875 -169.25 c 4xb8
499.413085938 322.455078125 m 4
 502.8359375 302.473632812 505.731445312 299.844726562 520.561523438 303.254882812 c 4x78
 530.012695312 305.426757812 561.787109375 309.251953125 591.172851562 311.752929688 c 6xb8
 644.6015625 316.301757812 l 5
 649.2265625 351.732421875 l 6
 651.76953125 371.21875 653.318359375 431.7265625 652.666992188 486.193359375 c 6
 651.482421875 585.224609375 l 5
 631.7734375 594.17578125 l 6
 618.8125 600.0625 593.296875 602.05078125 557.248046875 599.984375 c 6
 502.430664062 596.842773438 l 5
 501.301757812 575.114257812 l 6
 497.260742188 497.33203125 496.09765625 341.80859375 499.413085938 322.455078125 c 4
EndSplineSet
Validated: 524321
EndChar

StartChar: Q
Encoding: 81 81 16
Width: 1000
HStem: 619.475 169.814<321.824 485.228>
VStem: 119.174 195.226<55.167 615.17> 503.837 182.291<279.842 582.937>
LayerCount: 2
Fore
SplineSet
607.860351562 -220.21875 m 5
 597.142578125 -229.751953125 595.3515625 -229.650390625 572.072265625 -218.189453125 c 4
 561.727539062 -213.095703125 550.14453125 -210.64453125 546.331054688 -212.741210938 c 4
 521.393554688 -226.44921875 503.557617188 -218.625 459.71484375 -174.747070312 c 6
 414.57421875 -129.569335938 l 5
 344.811523438 -132.536132812 l 6
 256.887695312 -136.274414062 201.467773438 -125.797851562 167.069335938 -98.9326171875 c 4
 119.760742188 -61.986328125 118.6796875 -52.3212890625 119.173828125 329.1171875 c 4
 119.653320312 699.071289062 118.739257812 690.610351562 163.079101562 735.530273438 c 4
 202.112304688 775.073242188 261.484375 788.899414062 393.930664062 789.2890625 c 4
 537.670898438 789.711914062 585.349609375 780.296875 633.177734375 742.047851562 c 4
 653.022460938 726.176757812 672.686523438 703.455078125 676.875 691.553710938 c 4
 681.0625 679.65234375 684.73046875 597.28125 685.024414062 508.505859375 c 4
 685.318359375 419.73046875 685.814453125 264.793945312 686.127929688 164.204101562 c 6
 686.697265625 -18.689453125 l 5
 664.165039062 -47.646484375 l 6
 636.021484375 -83.814453125 612.8125 -102.301757812 581.96875 -113.122070312 c 6
 557.936523438 -121.552734375 l 5
 572.323242188 -142.793945312 l 6
 610.584960938 -199.283203125 616.618164062 -212.428710938 607.860351562 -220.21875 c 5
377.470703125 27.3134765625 m 5
 377.46875 27.3134765625 l 5
 427.026367188 16.5751953125 466.2421875 37.15625 466.0078125 73.78125 c 4
 465.901367188 90.26953125 444.250976562 156.107421875 418.155273438 219.295898438 c 4
 412.048828125 234.08203125 408.4375 248.173828125 410.130859375 250.610351562 c 4
 411.823242188 253.046875 425.551757812 251.670898438 440.638671875 247.551757812 c 4
 466.487304688 240.49609375 469.100585938 241.2109375 485.953125 259.953125 c 6
 503.836914062 279.841796875 l 5
 500.189453125 434.526367188 l 5
 496.541015625 589.2109375 l 5
 477.12890625 604.342773438 l 6
 460.29296875 617.466796875 449.278320312 619.474609375 394.135742188 619.474609375 c 4
 338.276367188 619.474609375 329.571289062 617.83984375 322.455078125 606.013671875 c 4
 315.745117188 594.861328125 312.641601562 512.787109375 314.19140625 387.448242188 c 4
 314.32421875 376.3515625 314.419921875 297.048828125 314.399414062 211.219726562 c 6
 314.361328125 55.1669921875 l 5
 333.724609375 43.8818359375 l 6
 344.373046875 37.67578125 364.059570312 30.2197265625 377.470703125 27.3134765625 c 5
EndSplineSet
Validated: 524321
EndChar

StartChar: R
Encoding: 82 82 17
Width: 1000
HStem: 189.628 147.959<422.565 512.995> 609.275 159.297<428.373 570.248>
VStem: 227.428 188.646<-112.739 189.628 337.587 379.62> 587.704 191.957<372.124 592.226>
LayerCount: 2
Fore
SplineSet
811.948242188 -124.029296875 m 5
 822.098632812 -137.333007812 829.384765625 -148.76171875 828.139648438 -149.424804688 c 4
 826.893554688 -150.087890625 802.05859375 -148.139648438 772.948242188 -145.095703125 c 4
 743.838867188 -142.05078125 686.366210938 -141.42578125 645.231445312 -143.70703125 c 4
 574.506835938 -147.62890625 570.780273438 -147.181640625 576.681640625 -135.478515625 c 4
 580.114257812 -128.671875 584.303710938 -107.372070312 585.990234375 -88.1455078125 c 4
 588.443359375 -60.1875 582.111328125 -33.83203125 554.356445312 43.5029296875 c 4
 535.270507812 96.6826171875 519.655273438 145.263671875 519.655273438 151.459960938 c 4
 519.655273438 173.611328125 491.706054688 189.627929688 453.056640625 189.627929688 c 6
 416.702148438 189.627929688 l 5
 416.073242188 63.52734375 l 6
 415.43359375 -64.9326171875 415.75 -66.90234375 448.078125 -135.82421875 c 4
 453.43359375 -147.2421875 451.40234375 -148.125 428.252929688 -144.44140625 c 4
 391.265625 -138.556640625 304.926757812 -138.259765625 245.569335938 -143.8125 c 4
 217.499023438 -146.438476562 194.532226562 -147.202148438 194.532226562 -145.510742188 c 4
 194.532226562 -143.818359375 202.813476562 -127.1640625 212.934570312 -108.501953125 c 4
 230.048828125 -76.9462890625 231.064453125 -69.20703125 227.427734375 2.0439453125 c 4
 225.27734375 44.1826171875 222.536132812 210.30859375 221.3359375 371.213867188 c 4
 219.046875 678.194335938 216.30078125 705.307617188 182.911132812 750.634765625 c 6
 170.087890625 768.041992188 l 5
 229.56640625 768.141601562 l 6
 262.279296875 768.196289062 299.251953125 768.661132812 311.727539062 769.174804688 c 4
 324.203125 769.688476562 408.860351562 769.416992188 499.853515625 768.572265625 c 4
 661.682617188 767.069335938 665.913085938 766.673828125 693.481445312 750.4453125 c 4
 708.983398438 741.3203125 732.805664062 720.057617188 746.420898438 703.1953125 c 4
 769.642578125 674.431640625 771.509765625 667.897460938 776.6015625 597.53515625 c 4
 779.5859375 556.28515625 780.962890625 478.97265625 779.661132812 425.728515625 c 4
 777.458007812 335.586914062 775.994140625 327.172851562 758.40625 303.533203125 c 4
 748.018554688 289.5703125 727.772460938 270.176757812 713.415039062 260.436523438 c 4
 699.057617188 250.6953125 685.493164062 238.514648438 683.272460938 233.366210938 c 4
 678.776367188 222.944335938 694.000976562 160.423828125 716.033203125 98.8349609375 c 4
 723.97265625 76.6416015625 732.782226562 48.0751953125 735.610351562 35.353515625 c 4
 742.774414062 3.1357421875 789.736328125 -94.916015625 811.948242188 -124.029296875 c 5
418.006835938 379.620117188 m 6
 422.565429688 337.586914062 l 5
 477.256835938 337.586914062 l 6
 527.177734375 337.586914062 533.639648438 339.200195312 551.340820312 356.081054688 c 4
 583.602539062 386.848632812 587.704101562 400.592773438 587.704101562 477.940429688 c 4
 587.704101562 593.141601562 574.504882812 610.762695312 489.323242188 609.275390625 c 4
 459.668945312 608.7578125 432.149414062 605.4375 428.168945312 601.896484375 c 4
 416.3046875 591.34375 410 453.438476562 418.006835938 379.620117188 c 6
EndSplineSet
Validated: 524321
EndChar

StartChar: S
Encoding: 83 83 18
Width: 1000
HStem: 432.994 21G<621.235 623.71> 560.777 164.682<443.118 609.342>
VStem: 234.999 180.297<-10.2453 98.2267> 236.315 199.064<430.601 555.276>
LayerCount: 2
Fore
SplineSet
505.038085938 -174.338867188 m 4xd0
 509.3828125 -184.41015625 503.981445312 -185.58984375 458.107421875 -184.587890625 c 4
 429.594726562 -183.96484375 399.4609375 -182.338867188 391.14453125 -180.974609375 c 4
 346.142578125 -173.590820312 340.7734375 -171.380859375 344.853515625 -161.921875 c 4
 348.864257812 -152.625976562 324.12890625 -149.4765625 249.375976562 -149.76953125 c 4
 236.782226562 -149.818359375 231.515625 -133.431640625 234.999023438 -105.038085938 c 4
 239.853515625 -65.4716796875 235.280273438 124.7109375 229.026367188 143.356445312 c 4
 224.766601562 156.057617188 222.256835938 167.318359375 223.44921875 168.37890625 c 4
 224.641601562 169.440429688 242.447265625 157.873046875 263.015625 142.674804688 c 4
 312.991210938 105.74609375 337.219726562 97.140625 371.346679688 104.197265625 c 4
 417.900390625 113.823242188 416.888671875 114.9921875 415.295898438 53.4140625 c 4xe0
 414.458984375 21.0712890625 417.23046875 -6.4033203125 421.73828125 -10.4521484375 c 4
 436.659179688 -23.8525390625 515.505859375 -32.8359375 539.764648438 -23.8984375 c 4
 570.05859375 -12.736328125 576.458984375 0.9033203125 581.557617188 65.1640625 c 6
 585.958984375 120.642578125 l 5
 542.51171875 155.962890625 l 6
 518.616210938 175.388671875 483.575195312 200.76171875 464.64453125 212.34765625 c 4
 378.963867188 264.782226562 269.40234375 346.103515625 260.94921875 363.538085938 c 4
 247.885742188 390.484375 235.717773438 486.25390625 236.315429688 557.4140625 c 4
 236.936523438 631.263671875 251.678710938 663.115234375 301.080078125 697.350585938 c 4
 332.67578125 719.247070312 340.283203125 721.309570312 404.747070312 725.458984375 c 4
 491.614257812 731.051757812 622.456054688 725.924804688 643.048828125 716.123046875 c 4
 665.458007812 705.455078125 680.217773438 706.892578125 717.275390625 723.35546875 c 4
 735.375976562 731.395507812 751.581054688 736.692382812 753.287109375 735.125 c 4
 756.060546875 732.576171875 760.874023438 549.8046875 758.723632812 528.6953125 c 4
 758.244140625 523.997070312 734.885742188 506.928710938 706.81640625 490.764648438 c 4
 678.74609375 474.600585938 649.296875 454.990234375 641.375976562 447.185546875 c 4
 633.454101562 439.379882812 624.948242188 432.994140625 622.47265625 432.994140625 c 4
 619.998046875 432.994140625 617.973632812 455.959960938 617.973632812 484.029296875 c 4
 617.973632812 529.549804688 616.045898438 536.453125 600.125 547.919921875 c 4
 590.306640625 554.991210938 572.220703125 560.77734375 559.932617188 560.77734375 c 4
 547.643554688 560.77734375 531.859375 563.440429688 524.85546875 566.697265625 c 4
 500.705078125 577.923828125 462.6171875 567.250976562 446.678710938 544.791015625 c 4
 434.796875 528.045898438 432.505859375 515.818359375 435.379882812 484.486328125 c 4
 439.67578125 437.655273438 452.369140625 423.3046875 516.301757812 392.994140625 c 4
 540.75 381.404296875 562.7265625 369.080078125 565.138671875 365.608398438 c 4
 567.551757812 362.13671875 590.162109375 348.537109375 615.38671875 335.387695312 c 4
 687.1875 297.956054688 756.634765625 240.055664062 765.71875 210.047851562 c 4
 775.151367188 178.889648438 776.250976562 41.1220703125 767.733398438 -42.4541015625 c 4
 760.829101562 -110.208007812 752.465820312 -125.361328125 701.861328125 -161.814453125 c 4
 675.260742188 -180.975585938 668.423828125 -182.540039062 601.697265625 -184.724609375 c 4
 541.056640625 -186.709960938 527.786132812 -185.221679688 515.10546875 -175.013671875 c 4
 501.669921875 -164.198242188 500.633789062 -164.12890625 505.038085938 -174.338867188 c 4xd0
EndSplineSet
Validated: 524321
EndChar

StartChar: T
Encoding: 84 84 19
Width: 1000
HStem: 502.354 27.1533G<214.641 245.879 778.39 780.918> 556.158 169.235<253.958 397.601>
VStem: 399.022 198.622<-135.03 543.979>
LayerCount: 2
Fore
SplineSet
455.173828125 -177.098632812 m 5
 455.172851562 -177.098632812 l 5
 421.905273438 -180.294921875 386.959960938 -183.07421875 377.51953125 -183.2734375 c 6
 360.353515625 -183.635742188 l 5
 375.31640625 -157.546875 l 6
 398.64453125 -116.870117188 403.8515625 -63.5361328125 399.022460938 85.3798828125 c 4
 396.564453125 161.208984375 396.283203125 235.356445312 398.399414062 250.15234375 c 4
 400.515625 264.948242188 401.200195312 339.852539062 399.923828125 416.60546875 c 6
 397.600585938 556.158203125 l 5
 340.708007812 556.158203125 l 6
 286.749023438 556.158203125 282.12890625 554.928710938 251.126953125 532.333007812 c 6
 218.439453125 508.5078125 l 5
 213.37109375 535.192382812 l 6
 210.41015625 550.782226562 211.760742188 567.624023438 216.622070312 575.702148438 c 4
 224.1875 588.27734375 221.901367188 674.625 212.94140625 714.696289062 c 4
 210.203125 726.94140625 212.791015625 728.271484375 234.206054688 725.62109375 c 4
 247.615234375 723.9609375 262.622070312 719.747070312 267.5546875 716.255859375 c 4
 273.198242188 712.26171875 281.671875 712.359375 290.412109375 716.51953125 c 4
 298.384765625 720.315429688 408.23046875 724.094726562 548.31640625 725.393554688 c 6
 792.333007812 727.655273438 l 5
 787.513671875 710.841796875 l 6
 784.86328125 701.594726562 783.046875 650.901367188 783.473632812 598.19140625 c 4
 783.90234375 545.481445312 782.182617188 502.354492188 779.654296875 502.354492188 c 4
 777.125 502.354492188 759.780273438 514.313476562 741.112304688 528.930664062 c 4
 692.749023438 566.796875 613.685546875 575.208984375 596.575195312 544.30859375 c 4
 593.016601562 537.87890625 592.89453125 493.275390625 596.3046875 445.188476562 c 4
 600.127929688 391.28125 599.66015625 345.515625 595.083007812 325.828125 c 4
 590.999023438 308.266601562 590.172851562 278.002929688 593.24609375 258.57421875 c 4
 596.318359375 239.146484375 598.297851562 189.958984375 597.64453125 149.270507812 c 4
 594.032226562 -75.701171875 594.540039062 -82.6982421875 618.141601562 -132.763671875 c 4
 630.235351562 -158.418945312 638.69921875 -180.681640625 636.951171875 -182.236328125 c 4
 635.202148438 -183.791992188 607.197265625 -181.963867188 574.716796875 -178.17578125 c 4
 538.047851562 -173.897460938 492.733398438 -173.489257812 455.173828125 -177.098632812 c 5
EndSplineSet
Validated: 524321
EndChar

StartChar: U
Encoding: 85 85 20
Width: 1000
HStem: -156.328 136.355<532.784 694.793>
VStem: 230.189 199.492<59.6231 674.74> 617.361 176.121<42.226 710.733>
LayerCount: 2
Fore
SplineSet
648.416992188 -165.588867188 m 4
 608.338867188 -183.768554688 503.052734375 -182.44921875 477.309570312 -163.444335938 c 4
 468.9765625 -157.29296875 462.534179688 -157.237304688 449.997070312 -163.205078125 c 4
 424.262695312 -175.455078125 374.127929688 -173.155273438 335.48828125 -157.952148438 c 4
 293.569335938 -141.458984375 258.711914062 -102.2421875 242.313476562 -53.1259765625 c 4
 230.3046875 -17.154296875 227.787109375 110.701171875 237.701171875 181.194335938 c 4
 240.659179688 202.227539062 240.247070312 226.247070312 236.784179688 234.572265625 c 4
 233.322265625 242.896484375 230.359375 327.073242188 230.189453125 421.630859375 c 4
 229.883789062 596.1796875 226.221679688 629.80078125 199.833984375 700.319335938 c 4
 191.702148438 722.049804688 186.041992188 740.56640625 187.254882812 741.467773438 c 4
 188.46875 742.368164062 251.176757812 741.590820312 326.606445312 739.741210938 c 6
 463.751953125 736.377929688 l 5
 447.583007812 712.043945312 l 6
 431.952148438 688.520507812 431.486328125 681.491210938 433.610351562 501.080078125 c 4
 434.994140625 383.551757812 433.08984375 314.450195312 428.467773438 314.450195312 c 4
 424.036132812 314.450195312 423.516601562 307.041015625 427.15625 295.75390625 c 4
 430.471679688 285.470703125 431.607421875 227.211914062 429.681640625 166.290039062 c 4
 424.599609375 5.6259765625 434.376953125 -12.03515625 532.784179688 -19.97265625 c 4
 570.427734375 -23.0087890625 578.509765625 -21.4306640625 596.661132812 -7.501953125 c 4
 621.685546875 11.7021484375 620.970703125 -1.728515625 617.361328125 381.678710938 c 4
 614.9453125 638.2734375 611.909179688 675.907226562 589.463867188 727.451171875 c 4
 584.204101562 739.528320312 586.9765625 740.072265625 636.1796875 736.618164062 c 4
 664.94921875 734.59765625 707.201171875 735.211914062 730.073242188 737.982421875 c 4
 752.9453125 740.752929688 784.526367188 741.512695312 800.25390625 739.670898438 c 4
 826.586914062 736.586914062 827.930664062 735.418945312 817.244140625 724.916015625 c 4
 802.37890625 710.3046875 791.254882812 654.426757812 790.424804688 590.19140625 c 4
 790.065429688 562.44921875 791.442382812 426.259765625 793.482421875 287.548828125 c 4
 796.7578125 64.8720703125 793.02734375 -30.9697265625 778.879882812 -87.5625 c 4
 776.776367188 -95.978515625 762.836914062 -114.893554688 747.903320312 -129.595703125 c 4
 726.291015625 -150.875 715.456054688 -156.328125 694.79296875 -156.328125 c 4
 680.515625 -156.328125 659.646484375 -160.495117188 648.416992188 -165.588867188 c 4
EndSplineSet
Validated: 524321
EndChar

StartChar: V
Encoding: 86 86 21
Width: 1000
LayerCount: 2
Fore
SplineSet
472.42578125 -166.795898438 m 5
 472.42578125 -166.798828125 l 5
 433.634765625 -171.98046875 391.098632812 -176.236328125 377.90234375 -176.266601562 c 6
 353.908203125 -176.310546875 l 5
 365.65625 -155.36328125 l 6
 378.263671875 -132.884765625 375.240234375 -66.6162109375 360.489257812 -42.099609375 c 4
 356.341796875 -35.20703125 351.62109375 -14.447265625 349.998046875 4.0322265625 c 4
 348.375 22.5107421875 341.525390625 44.642578125 334.776367188 53.2138671875 c 4
 328.02734375 61.7841796875 322.505859375 79.998046875 322.505859375 93.6884765625 c 4
 322.505859375 120.826171875 312.3359375 171.147460938 296.200195312 223.850585938 c 4
 272.194335938 302.263671875 269.578125 314.598632812 269.578125 349.38671875 c 4
 269.578125 369.487304688 266.390625 388.807617188 262.494140625 392.322265625 c 4
 258.59765625 395.8359375 248.384765625 428.975585938 239.797851562 465.96484375 c 4
 231.211914062 502.955078125 218.963867188 554.404296875 212.580078125 580.296875 c 4
 206.196289062 606.189453125 197.65625 642.506835938 193.602539062 661.001953125 c 4
 189.548828125 679.497070312 179.466796875 702.829101562 171.198242188 712.8515625 c 4
 162.928710938 722.874023438 156.163085938 732.619140625 156.163085938 734.508789062 c 4
 156.163085938 736.3984375 217.412109375 737.508789062 292.271484375 736.9765625 c 4
 428.158203125 736.010742188 428.362304688 735.986328125 418.21484375 722.043945312 c 4
 397.444335938 693.505859375 396.706054688 626.1171875 416.254882812 543.37109375 c 4
 437.442382812 453.688476562 448.586914062 398.905273438 455.259765625 351.633789062 c 4
 457.870117188 333.138671875 468.642578125 280.17578125 479.201171875 233.938476562 c 4
 489.7578125 187.701171875 500.021484375 140.03515625 502.009765625 128.013671875 c 4
 506.099609375 103.280273438 519.055664062 98.1748046875 519.110351562 121.288085938 c 4
 519.12109375 129.611328125 527.333007812 163.658203125 537.359375 196.94921875 c 4
 547.385742188 230.239257812 559.291992188 278.663085938 563.817382812 304.555664062 c 4
 568.342773438 330.448242188 575.384765625 366.765625 579.465820312 385.259765625 c 4
 583.546875 403.754882812 592.024414062 447.239257812 598.3046875 481.892578125 c 4
 604.583984375 516.545898438 613.215820312 556.439453125 617.486328125 570.544921875 c 4
 621.755859375 584.651367188 625.690429688 617.326171875 626.225585938 643.155273438 c 4
 627.000976562 680.545898438 623.80078125 695.2421875 610.525390625 715.256835938 c 6
 593.849609375 740.395507812 l 5
 656.653320312 736.046875 l 6
 691.1953125 733.655273438 747.48046875 731.681640625 781.729492188 731.659179688 c 6
 844.001953125 731.618164062 l 5
 830.130859375 696.309570312 l 6
 822.501953125 676.890625 812.198242188 647.381835938 807.234375 630.737304688 c 4
 802.271484375 614.091796875 793.124023438 585.33984375 786.909179688 566.845703125 c 4
 773.580078125 527.180664062 747.807617188 404.896484375 738.717773438 338.181640625 c 4
 735.189453125 312.2890625 728.599609375 282.024414062 724.073242188 270.927734375 c 4
 712.823242188 243.346679688 692.99609375 148.017578125 692.99609375 121.495117188 c 4
 692.995117188 109.587890625 684.752929688 77.390625 674.680664062 49.9443359375 c 4
 664.608398438 22.4990234375 654.173828125 -14.66796875 651.493164062 -32.6494140625 c 4
 648.811523438 -50.6298828125 643.165039062 -81.3857421875 638.9453125 -100.994140625 c 4
 632.59765625 -130.495117188 633.3671875 -139.48828125 643.405273438 -153.116210938 c 6
 655.538085938 -169.5859375 l 5
 623.1796875 -169.5859375 l 6
 605.381835938 -169.5859375 580.05078125 -166.838867188 566.888671875 -163.48046875 c 4
 551.038085938 -159.4375 519.13671875 -160.556640625 472.42578125 -166.795898438 c 5
EndSplineSet
Validated: 524321
EndChar

StartChar: W
Encoding: 87 87 22
Width: 1000
VStem: 177.3 257.446<-163.583 60.3598>
LayerCount: 2
Fore
SplineSet
1014.48828125 -166.126953125 m 1028
434.74609375 -168.619140625 m 6
 434.745117188 -168.619140625 l 5
 428.08984375 -174.5390625 357.717773438 -173.038085938 333.998046875 -166.469726562 c 4
 323.6015625 -163.590820312 283.046875 -162.869140625 243.876953125 -164.866210938 c 4
 180.709960938 -168.086914062 173.18359375 -167.28125 177.299804688 -157.741210938 c 4
 194.264648438 -118.416992188 198.107421875 -89.51953125 191.162109375 -53.4990234375 c 4
 187.079101562 -32.3232421875 179.801757812 7.7001953125 174.991210938 35.4423828125 c 4
 170.1796875 63.1845703125 161.064453125 108.581054688 154.735351562 136.323242188 c 4
 148.405273438 164.065429688 138.9140625 210.975585938 133.641601562 240.567382812 c 4
 128.370117188 270.159179688 120.275390625 306.4765625 115.654296875 321.272460938 c 4
 104.755859375 356.169921875 104.8671875 385.163085938 115.901367188 385.163085938 c 4
 121.36328125 385.163085938 120.2421875 389.571289062 112.90625 396.932617188 c 4
 105.950195312 403.9140625 97.45703125 434.696289062 92.03125 472.59375 c 4
 80.6689453125 551.962890625 49.2470703125 669.501953125 30.5224609375 702.670898438 c 4
 22.775390625 716.39453125 16.4365234375 729.256835938 16.4365234375 731.25390625 c 4
 16.4365234375 733.25 74.0869140625 734.883789062 144.548828125 734.883789062 c 6
 272.66015625 734.883789062 l 5
 257.057617188 703.510742188 l 6
 240.736328125 670.689453125 240.700195312 672.831054688 259.379882812 563.38671875 c 4
 263.166992188 541.193359375 269.48046875 497.669921875 273.41015625 466.66796875 c 4
 277.337890625 435.666992188 283.703125 400.86328125 287.553710938 389.326171875 c 4
 291.403320312 377.7890625 298.444335938 345.651367188 303.198242188 317.909179688 c 4
 319.97265625 220.040039062 328.206054688 183.401367188 333.426757812 183.401367188 c 4
 338.630859375 183.401367188 356.900390625 265.963867188 387.375976562 427.197265625 c 4
 395.940429688 472.509765625 409.486328125 531.26953125 417.478515625 557.7734375 c 4
 440.326171875 633.545898438 443.745117188 675.053710938 429.201171875 700.0703125 c 4
 416.873046875 721.276367188 416.918945312 721.43359375 435.385742188 721.43359375 c 4
 445.618164062 721.43359375 463.271484375 718.294921875 474.616210938 714.458007812 c 4
 488.859375 709.641601562 497.668945312 709.641601562 503.083984375 714.458007812 c 4
 507.397460938 718.294921875 531.024414062 721.43359375 555.588867188 721.43359375 c 4
 595.239257812 721.43359375 599.616210938 720.11328125 594.592773438 709.6640625 c 4
 582.583984375 684.688476562 582.295898438 659.603515625 593.470703125 612.384765625 c 4
 613.241210938 528.853515625 623.333984375 472.146484375 619.099609375 468.379882812 c 4
 616.868164062 466.395507812 619.856445312 454.522460938 625.740234375 441.997070312 c 4
 631.625 429.470703125 636.368164062 409.2890625 636.280273438 397.1484375 c 4
 636.079101562 369.063476562 682.529296875 190.126953125 690.020507812 190.126953125 c 4
 693.109375 190.126953125 697.719726562 213.581054688 700.266601562 242.249023438 c 4
 702.813476562 270.916015625 709.901367188 311.701171875 716.016601562 332.883789062 c 4
 722.131835938 354.065429688 729.111328125 391.895507812 731.528320312 416.951171875 c 4
 733.943359375 442.005859375 744.155273438 492.76953125 754.220703125 529.759765625 c 4
 778.815429688 620.149414062 778.568359375 670.0625 753.361328125 703.05859375 c 4
 735.711914062 726.161132812 735.502929688 731.390625 752.329101562 728.78125 c 4
 777.622070312 724.860351562 909.762695312 729.018554688 930.123046875 734.375976562 c 4
 944.021484375 738.033203125 964.62109375 739.383789062 975.90234375 737.376953125 c 6
 996.411132812 733.728515625 l 5
 979.515625 702.360351562 l 6
 968.822265625 682.5078125 955.403320312 630.254882812 942.961914062 560.0234375 c 4
 932.151367188 498.990234375 918.381835938 427.869140625 912.36328125 401.9765625 c 4
 906.345703125 376.083984375 899.856445312 338.25390625 897.943359375 317.909179688 c 4
 890.975585938 243.807617188 851.9375 38.119140625 839.509765625 10.0263671875 c 4
 823.2421875 -26.748046875 817.928710938 -103.731445312 829.33203125 -137.434570312 c 4
 835.216796875 -154.825195312 838.37109375 -170.530273438 836.344726562 -172.333984375 c 4
 834.31640625 -174.13671875 808.072265625 -171.967773438 778.0234375 -167.512695312 c 4
 738.922851562 -161.71484375 707.267578125 -161.291015625 666.682617188 -166.020507812 c 4
 573.721679688 -176.854492188 576.036132812 -177.390625 587.540039062 -147.690429688 c 4
 598.0859375 -120.463867188 589.551757812 -65.1328125 553.586914062 72.4326171875 c 4
 544.883789062 105.72265625 532.501953125 158.584960938 526.071289062 189.903320312 c 4
 508.953125 273.27734375 504.127929688 274.985351562 489.479492188 202.858398438 c 4
 482.422851562 168.114257812 465.184570312 94.2900390625 451.170898438 38.8056640625 c 4
 423.116210938 -72.279296875 415.997070312 -138.767578125 430.494140625 -154.3046875 c 4
 435.569335938 -159.744140625 437.482421875 -166.185546875 434.74609375 -168.619140625 c 6
EndSplineSet
Validated: 524321
EndChar

StartChar: X
Encoding: 88 88 23
Width: 1000
LayerCount: 2
Fore
SplineSet
384.034179688 -182.284179688 m 4
 377.559570312 -184.495117188 371.688476562 -186.05078125 370.989257812 -185.743164062 c 4
 370.290039062 -185.434570312 349.302734375 -180.7109375 324.3515625 -175.245117188 c 4
 288.771484375 -167.452148438 270.151367188 -166.846679688 238.029296875 -172.442382812 c 4
 186.015625 -181.50390625 139.107421875 -181.606445312 139.107421875 -172.66015625 c 4
 139.107421875 -168.85546875 159.727539062 -136.629882812 184.9296875 -101.046875 c 4
 242.873046875 -19.2373046875 270.635742188 29.6708984375 286.252929688 77.4580078125 c 4
 293.040039062 98.2236328125 303.577148438 118.893554688 309.669921875 123.390625 c 4
 323.166992188 133.354492188 344.803710938 175.236328125 374.995117188 249.83984375 c 6
 397.721679688 305.999023438 l 5
 375.159179688 350.721679688 l 6
 362.75 375.319335938 340.0546875 422.681640625 324.724609375 455.97265625 c 4
 279.932617188 553.243164062 237.731445312 641.141601562 214.1328125 686.317382812 c 4
 191.0625 730.48046875 192.034179688 733.140625 229.838867188 729.326171875 c 4
 236.077148438 728.697265625 288.153320312 728.333984375 345.563476562 728.521484375 c 4
 447.168945312 728.852539062 449.734375 728.508789062 441.966796875 715.59765625 c 4
 437.577148438 708.302734375 433.986328125 691.857421875 433.986328125 679.05078125 c 4
 433.986328125 658.590820312 444.672851562 634.366210938 501.818359375 525.295898438 c 6
 514.828125 500.463867188 l 5
 542.9921875 545.47265625 l 6
 558.482421875 570.2265625 580.069335938 613.926757812 590.961914062 642.58203125 c 6
 610.767578125 694.682617188 l 5
 593.708984375 715.205078125 l 5
 576.651367188 735.728515625 l 5
 713.24609375 734.611328125 l 6
 788.373046875 733.997070312 849.840820312 732.015625 849.840820312 730.208984375 c 4
 849.840820312 728.40234375 840.194335938 715.896484375 828.405273438 702.41796875 c 4
 805.932617188 676.725585938 790.069335938 650.00390625 696.083007812 479.51171875 c 4
 620.315429688 342.071289062 617.450195312 332.360351562 637.241210938 280.102539062 c 4
 645.806640625 257.487304688 671.626953125 204.887695312 694.620117188 163.215820312 c 4
 717.61328125 121.543945312 736.42578125 82.91796875 736.42578125 77.3798828125 c 4
 736.42578125 71.841796875 748.333984375 45.2880859375 762.889648438 18.3720703125 c 4
 777.444335938 -8.544921875 789.352539062 -33.9169921875 789.352539062 -38.0107421875 c 4
 789.352539062 -47.1875 830.018554688 -119.418945312 855.010742188 -154.633789062 c 6
 873.458984375 -180.627929688 l 5
 810.61328125 -176.96484375 l 6
 776.047851562 -174.950195312 740.962890625 -172.838867188 732.645507812 -172.2734375 c 4
 724.328125 -171.708984375 689.462890625 -173.568359375 655.166015625 -176.407226562 c 6
 592.809570312 -181.568359375 l 5
 604.703125 -160.361328125 l 6
 618.798828125 -135.228515625 618.814453125 -135.282226562 553.87109375 12.0966796875 c 4
 499.778320312 134.8515625 498.673828125 136.614257812 484.372070312 123.065429688 c 4
 478.515625 117.517578125 467.7734375 97.8447265625 460.500976562 79.3505859375 c 4
 453.229492188 60.85546875 441.251953125 30.353515625 433.885742188 11.5673828125 c 4
 426.51953125 -7.21875 413.19921875 -35.3056640625 404.28515625 -50.84765625 c 4
 380.325195312 -92.6220703125 372.443359375 -138.078125 385.318359375 -160.224609375 c 4
 394.484375 -175.991210938 394.322265625 -178.772460938 384.034179688 -182.284179688 c 4
EndSplineSet
Validated: 524321
EndChar

StartChar: Y
Encoding: 89 89 24
Width: 1000
LayerCount: 2
Fore
SplineSet
534.94921875 -172.657226562 m 4
 477.07421875 -172.451171875 411.30859375 -174.356445312 388.803710938 -176.890625 c 4
 355.369140625 -180.655273438 348.71875 -179.784179688 352.44140625 -172.130859375 c 4
 397.51171875 -79.4736328125 395.330078125 -90.51171875 395.385742188 45.7236328125 c 4
 395.4375 184.608398438 384.23828125 267.666015625 358.55859375 318.840820312 c 4
 350.001953125 335.891601562 337.500976562 368.9375 330.779296875 392.276367188 c 4
 324.057617188 415.614257812 308.955078125 451.599609375 297.217773438 472.2421875 c 4
 285.48046875 492.885742188 265.193359375 533.987304688 252.133789062 563.579101562 c 4
 218.622070312 639.515625 205.331054688 666.89453125 185.879882812 700.05859375 c 4
 176.5234375 716.010742188 168.876953125 729.66015625 168.90625 730.388671875 c 4
 168.947265625 731.755859375 333.538085938 730.969726562 398.016601562 729.295898438 c 4
 433.999023438 728.360351562 434.243164062 728.203125 422.58984375 713.404296875 c 4
 416.116210938 705.18359375 410.819335938 685.594726562 410.819335938 669.873046875 c 4
 410.819335938 642.841796875 448.654296875 532.166992188 480.490234375 466.07421875 c 6
 495.060546875 435.823242188 l 5
 513.358398438 469.4375 l 6
 523.422851562 487.924804688 531.688476562 506.661132812 531.7265625 511.07421875 c 4
 531.764648438 515.48828125 542.002929688 546.198242188 554.478515625 579.3203125 c 4
 579.259765625 645.11328125 583.322265625 691.633789062 566.060546875 711.93359375 c 4
 547.600585938 733.642578125 552.471679688 736.436523438 601.734375 732.397460938 c 4
 627.725585938 730.266601562 688.969726562 728.75390625 737.833007812 729.034179688 c 4
 786.6953125 729.315429688 826.674804688 727.716796875 826.674804688 725.482421875 c 4
 826.674804688 723.247070312 814.577148438 705.212890625 799.791992188 685.405273438 c 4
 785.006835938 665.598632812 764.911132812 628.571289062 755.134765625 603.123046875 c 4
 745.358398438 577.674804688 724.767578125 531.12890625 709.376953125 499.688476562 c 4
 693.986328125 468.247070312 668.34375 403.178710938 652.39453125 355.091796875 c 4
 636.4453125 307.004882812 617.892578125 254.04296875 611.166015625 237.397460938 c 4
 595.856445312 199.509765625 580.912109375 -59.796875 592.891601562 -79.7060546875 c 4
 597.099609375 -86.7021484375 598.545898438 -95.2998046875 596.104492188 -98.814453125 c 4
 591.181640625 -105.899414062 610.311523438 -142.743164062 628.482421875 -161.171875 c 4
 639.584960938 -172.432617188 634.865234375 -173.012695312 534.94921875 -172.657226562 c 4
EndSplineSet
Validated: 524321
EndChar

StartChar: Z
Encoding: 90 90 25
Width: 1000
HStem: -184.96 154.082<480.924 740.392> 551.591 171.269<323.055 543.365>
LayerCount: 2
Fore
SplineSet
342.0078125 -174.436523438 m 5
 318.342773438 -182.2890625 204.270507812 -190.62890625 197.91015625 -184.971679688 c 4
 195.118164062 -182.48828125 206.956054688 -161.959960938 224.216796875 -139.3515625 c 4
 253.1171875 -101.497070312 275.606445312 -54.1826171875 313.848632812 49.2265625 c 4
 321.912109375 71.0302734375 335.235351562 99.78125 343.455078125 113.118164062 c 4
 351.674804688 126.454101562 367.106445312 158.287109375 377.748046875 183.858398438 c 4
 388.388671875 209.4296875 407.116210938 247.259765625 419.36328125 267.92578125 c 4
 431.610351562 288.591796875 441.635742188 310.71875 441.647460938 317.095703125 c 4
 441.668945312 332.443359375 477.690429688 412.266601562 517.647460938 485.5078125 c 4
 535.334960938 517.930664062 548.44140625 545.666992188 546.771484375 547.14453125 c 4
 543.865234375 549.716796875 417.935546875 552.868164062 369.086914062 551.590820312 c 4
 351.666015625 551.135742188 336.637695312 542.840820312 310.489257812 519.25 c 4
 289.352539062 500.1796875 275.032226562 491.458984375 274.59375 497.392578125 c 4
 274.193359375 502.821289062 273.342773438 558.149414062 272.703125 620.344726562 c 6
 271.541015625 733.42578125 l 5
 298.004882812 728.6484375 l 6
 312.559570312 726.01953125 408.346679688 723.415039062 510.865234375 722.859375 c 4
 657.52734375 722.063476562 699.9609375 719.856445312 709.91796875 712.506835938 c 4
 720.014648438 705.052734375 723.770507812 704.887695312 728.497070312 711.69140625 c 4
 736.385742188 723.043945312 827.274414062 730.639648438 827.274414062 719.9453125 c 4
 827.274414062 715.676757812 817.381835938 696.340820312 805.291015625 676.977539062 c 4
 786.005859375 646.092773438 713.859375 490.83203125 713.859375 480.215820312 c 4
 713.859375 478.03125 703.65234375 457.9453125 691.176757812 435.579101562 c 4
 678.701171875 413.212890625 668.493164062 390.592773438 668.493164062 385.3125 c 4
 668.493164062 376.696289062 647.036132812 326.8046875 619.706054688 271.874023438 c 4
 614.184570312 260.77734375 590.169921875 206.301757812 566.338867188 150.81640625 c 4
 542.5078125 95.33203125 513.212890625 32.6201171875 501.239257812 11.4560546875 c 4
 489.265625 -9.70703125 479.46875 -28.298828125 479.46875 -29.8583984375 c 4
 479.46875 -31.4169921875 512.642578125 -31.8759765625 553.188476562 -30.8779296875 c 4
 593.734375 -29.87890625 633.846679688 -31.3984375 642.327148438 -34.25390625 c 4
 651.49609375 -37.341796875 673.805664062 -35.0634765625 697.370117188 -28.630859375 c 4
 729.852539062 -19.7646484375 743.426757812 -10.8642578125 772.682617188 20.7509765625 c 4
 792.311523438 41.9638671875 810.237304688 59.4775390625 812.517578125 59.6708984375 c 4
 814.797851562 59.865234375 813.7265625 33.54296875 810.137695312 1.1767578125 c 4
 806.547851562 -31.189453125 804.681640625 -85.595703125 805.991210938 -119.7265625 c 6
 808.372070312 -181.78125 l 5
 777.49609375 -185.89453125 l 6
 760.514648438 -188.157226562 721.38671875 -188.255859375 690.544921875 -186.115234375 c 4
 624.279296875 -181.515625 626.69140625 -181.529296875 488.80078125 -184.959960938 c 4
 402.859375 -187.09765625 378.763671875 -185.709960938 370.2421875 -178.129882812 c 4
 362.760742188 -171.474609375 354.276367188 -170.365234375 342.0078125 -174.436523438 c 5
EndSplineSet
Validated: 524321
EndChar

StartChar: a
Encoding: 97 97 26
Width: 1000
Flags: W
HStem: 383.481 3.78418<321.96 324.485>
LayerCount: 2
Fore
SplineSet
662.517578125 -192.717773438 m 4
 665.362304688 -199.2109375 662.43359375 -199.901367188 633.084960938 -199.668945312 c 4
 615.158203125 -199.524414062 595.509765625 -197.495117188 589.416992188 -195.155273438 c 4
 583.213867188 -192.7734375 562.150390625 -191.786132812 541.505859375 -192.9140625 c 4
 508.548828125 -194.715820312 504.9921875 -194.213867188 507.772460938 -188.157226562 c 4
 521.465820312 -158.264648438 523.05859375 -149.229492188 518.650390625 -126.431640625 c 4
 516.16796875 -113.573242188 513.026367188 -94.337890625 511.66796875 -83.6845703125 c 4
 509.743164062 -68.5673828125 507.065429688 -63.625 499.47265625 -61.181640625 c 4
 489.795898438 -58.0693359375 398.7265625 -58.5927734375 395.298828125 -61.7802734375 c 4
 394.313476562 -62.69921875 392.86328125 -72.2939453125 392.081054688 -83.1083984375 c 4
 391.296875 -93.9169921875 388.178710938 -114.345703125 385.159179688 -128.50390625 c 4
 379.677734375 -154.163085938 379.704101562 -154.309570312 393.954101562 -175.640625 c 6
 408.248046875 -197.040039062 l 5
 378.61328125 -194.463867188 l 6
 362.317382812 -193.046875 344.53515625 -189.178710938 339.098632812 -185.865234375 c 4
 330.93359375 -180.88671875 327.772460938 -180.764648438 320.883789062 -185.165039062 c 4
 312.967773438 -190.220703125 230.58984375 -198.352539062 230.58984375 -194.077148438 c 4
 230.58984375 -192.962890625 235.280273438 -185.624023438 241.01171875 -177.765625 c 4
 262.954101562 -147.67578125 281.609375 -82.298828125 288.790039062 -10.310546875 c 4
 292.6484375 28.3564453125 298.095703125 58.3818359375 305.250976562 80.3798828125 c 4
 309.313476562 92.876953125 315.291992188 132.913085938 332.6484375 263.815429688 c 4
 334.750976562 279.69140625 338.493164062 302.305664062 340.958984375 314.076171875 c 4
 346.431640625 340.185546875 337.576171875 373.28515625 322.392578125 383.481445312 c 4
 313 389.7890625 313.567382812 389.961914062 334.6953125 387.265625 c 4
 347.334960938 385.65625 361.126953125 380.8046875 366.811523438 375.969726562 c 6
 376.780273438 367.495117188 l 5
 376.780273438 376.4609375 l 6
 376.780273438 385.4140625 376.896484375 385.421875 482.969726562 385.421875 c 6
 589.153320312 385.421875 l 5
 578.212890625 370.418945312 l 6
 561.276367188 347.200195312 562.876953125 311.241210938 585.061523438 216.411132812 c 4
 589.568359375 197.139648438 594.426757812 161.751953125 595.859375 137.771484375 c 4
 597.291992188 113.788085938 600.5 87.818359375 602.9921875 80.0625 c 4
 605.487304688 72.2998046875 609.481445312 49.2578125 611.870117188 28.849609375 c 4
 618.640625 -29.015625 619.012695312 -31.6044921875 627.107421875 -76.4501953125 c 4
 633.483398438 -111.78515625 648.153320312 -159.956054688 662.517578125 -192.717773438 c 4
412.219726562 36.2353515625 m 4
 412.219726562 34.140625 419.599609375 34.8251953125 473.265625 41.8857421875 c 6
 492.221679688 44.3828125 l 5
 489.497070312 75.7783203125 l 6
 488 93.046875 484.127929688 115.5234375 480.892578125 125.72265625 c 4
 477.66015625 135.9296875 473.922851562 160.969726562 472.58203125 181.373046875 c 4
 469.85546875 222.916992188 461.576171875 270 457 270 c 4
 452.0859375 270 439.63671875 211.659179688 425.4921875 122.307617188 c 4
 418.192382812 76.2138671875 412.219726562 37.482421875 412.219726562 36.2353515625 c 4
1725.70800781 -1050.13476562 m 1052
EndSplineSet
Validated: 524321
EndChar

StartChar: b
Encoding: 98 98 27
Width: 1000
Flags: W
HStem: -170.073 115.474<370.432 497.149> 103.183 107.017<371.264 504.975> 352.299 120.164<370.432 503.73>
VStem: 211.34 159.092<-52.8936 99.3115 209.082 351.886> 508.904 165.728<-41.7412 89.7021 234.594 350.668>
LayerCount: 2
Fore
SplineSet
590.181640625 -159.64453125 m 5
 567.123046875 -169.004882812 558.005859375 -169.44921875 375.63671875 -170.073242188 c 6
 185.174804688 -170.7265625 l 5
 199.536132812 -146.975585938 l 5
 213.897460938 -123.225585938 l 5
 211.33984375 51.859375 l 6
 206.514648438 382.099609375 205.693359375 396.978515625 190.663085938 425.995117188 c 4
 183.303710938 440.201171875 171.990234375 456.919921875 165.5234375 463.147460938 c 6
 153.76171875 474.463867188 l 5
 356.920898438 472.462890625 l 6
 472.665039062 471.322265625 568.489257812 468.424804688 579.625976562 465.731445312 c 4
 606.401367188 459.25390625 648.609375 431.698242188 658.194335938 414.439453125 c 4
 662.540039062 406.614257812 666.999023438 383.791015625 668.103515625 363.719726562 c 4
 669.208984375 343.650390625 672.146484375 315.456054688 674.631835938 301.065429688 c 4
 679.096679688 275.21484375 670.643554688 228.775390625 657.817382812 208.711914062 c 4
 654.612304688 203.696289062 640.793945312 190.625976562 627.106445312 179.661132812 c 4
 613.420898438 168.69921875 604.932617188 158.947265625 608.243164062 157.993164062 c 4
 626.70703125 152.665039062 654.083984375 136.944335938 663.16015625 126.456054688 c 4
 672.319335938 115.875976562 673.450195312 102.466796875 672.530273438 15.6982421875 c 4
 671.954101562 -38.59765625 669.849609375 -89.173828125 667.85546875 -96.697265625 c 4
 663.409179688 -113.4609375 622.715820312 -146.4375 590.181640625 -159.64453125 c 5
399.029296875 -54.599609375 m 5
 399.030273438 -54.599609375 l 6
 414.758789062 -55.5380859375 434.401367188 -56.6689453125 442.6796875 -57.1123046875 c 4
 463.213867188 -58.208984375 495.848632812 -42.3310546875 503.21875 -27.6591796875 c 4
 506.547851562 -21.025390625 508.513671875 8.0927734375 507.583984375 37.05078125 c 6
 505.895507812 89.7021484375 l 5
 486.2578125 98.3779296875 l 6
 468.984375 106.0078125 460.647460938 106.5859375 417.020507812 103.182617188 c 6
 367.423828125 99.3115234375 l 5
 368.583007812 58.2861328125 l 6
 369.219726562 35.7236328125 369.901367188 1.4775390625 370.087890625 -17.814453125 c 6
 370.431640625 -52.8935546875 l 5
 399.029296875 -54.599609375 l 5
380.967773438 210.068359375 m 5
 391.198242188 208.5234375 403.731445312 208.547851562 449.741210938 210.19921875 c 4
 463.600585938 210.693359375 478.7734375 215.396484375 490.37890625 222.793945312 c 6
 508.904296875 234.59375 l 5
 508.904296875 284.537109375 l 6
 508.904296875 332.18359375 508.186523438 335.022460938 493.323242188 346.27734375 c 4
 478.908203125 357.19140625 475.015625 357.856445312 441.265625 355.185546875 c 4
 421.203125 353.598632812 397.05859375 352.298828125 387.609375 352.298828125 c 6
 370.431640625 352.298828125 l 5
 370.431640625 281.979492188 l 6
 370.431640625 218.654296875 371.479492188 211.500976562 380.967773438 210.068359375 c 5
EndSplineSet
Validated: 524321
EndChar

StartChar: c
Encoding: 99 99 28
Width: 1000
Flags: W
HStem: 304.848 107.442<432.944 540.391>
VStem: 299.904 125.63<-67.607 122.108 122.448 298.173>
LayerCount: 2
Fore
SplineSet
546.77734375 -181.419921875 m 4
 491.520507812 -185.763671875 445.543945312 -186.495117188 434.358398438 -183.206054688 c 4
 427.779296875 -181.2734375 415.475585938 -179.500976562 407.017578125 -179.271484375 c 4
 396.952148438 -178.997070312 389.8984375 -175.9921875 386.599609375 -170.573242188 c 4
 382.643554688 -164.073242188 379.221679688 -163.075195312 370.67578125 -165.931640625 c 4
 356.018554688 -170.833007812 333.095703125 -161.981445312 320.908203125 -146.71484375 c 4
 300.69921875 -121.403320312 298.693359375 -106.647460938 299.904296875 7.6748046875 c 4
 300.538085938 67.46484375 302.217773438 119.043945312 303.63671875 122.295898438 c 4
 305.0546875 125.545898438 310.830078125 128.35546875 316.467773438 128.538085938 c 4
 323.6171875 128.76953125 324.548828125 129.61328125 319.544921875 131.325195312 c 4
 302.1484375 137.271484375 300.71484375 145.508789062 300.561523438 240.567382812 c 4
 300.424804688 324.076171875 301.427734375 336.360351562 310 356.240234375 c 4
 322.427734375 385.057617188 351.904296875 407.911132812 372.064453125 404.366210938 c 4
 381.169921875 402.766601562 387.708007812 404.1171875 391.79296875 408.4453125 c 4
 397.040039062 414.002929688 409.422851562 414.545898438 479.514648438 412.290039062 c 4
 524.40234375 410.845703125 581.438476562 409.885742188 606.260742188 410.159179688 c 4
 646.640625 410.604492188 650.741210938 409.96484375 645.202148438 404.096679688 c 4
 640.618164062 399.23828125 639.880859375 389.045898438 642.364257812 364.873046875 c 4
 644.208984375 346.909179688 646.061523438 310.444335938 646.479492188 283.838867188 c 6
 647.237304688 235.466796875 l 5
 635.27734375 236.346679688 l 6
 611.705078125 238.080078125 592.439453125 232.844726562 568 218.063476562 c 6
 543.16796875 203.044921875 l 5
 546.49609375 234.280273438 l 6
 552.149414062 287.340820312 535.428710938 304.780273438 478.83203125 304.84765625 c 4
 428.100585938 304.905273438 423.111328125 291.9453125 424.892578125 164.669921875 c 4
 425.579101562 115.696289062 425.866210938 49.4521484375 425.534179688 17.4619140625 c 4
 424.834960938 -49.8349609375 427.8359375 -58.0400390625 460.33984375 -77.7041015625 c 4
 481.970703125 -90.7890625 493.849609375 -93.5546875 498.7109375 -86.6376953125 c 4
 500.212890625 -84.5029296875 507.84765625 -81.517578125 515.677734375 -80.005859375 c 4
 523.509765625 -78.494140625 533.9609375 -72.734375 538.904296875 -67.2099609375 c 4
 551.552734375 -53.0693359375 556.153320312 -18.1318359375 547.338867188 -3.14453125 c 6
 540.412109375 8.6318359375 l 5
 560.337890625 9.7744140625 l 6
 594.784179688 11.7509765625 598.827148438 12.8359375 623.317382812 26.6669921875 c 6
 647.237304688 40.1767578125 l 5
 648.569335938 -24.1201171875 l 6
 650.051757812 -95.7333984375 645.420898438 -122.8515625 627.666015625 -146.498046875 c 4
 613.583007812 -165.254882812 582.677734375 -178.59765625 546.77734375 -181.419921875 c 4
EndSplineSet
Validated: 524321
EndChar

StartChar: d
Encoding: 100 100 29
Width: 1000
Flags: W
HStem: -161.322 114.535<434.277 499.37> 351.978 114.756<446.126 501.883>
VStem: 338.055 92.8877<-38.3691 357.046> 510.483 93.584<-8.99665 343.187>
LayerCount: 2
Fore
SplineSet
512.12109375 -157.470703125 m 4
 500.665039062 -159.203125 452.859375 -160.938476562 405.884765625 -161.322265625 c 6
 320.474609375 -162.021484375 l 5
 327.326171875 -142.009765625 l 6
 335.1875 -119.045898438 342.89453125 -20.73828125 338.0546875 -5.1748046875 c 4
 336.423828125 0.076171875 335.8671875 80.0615234375 336.822265625 172.568359375 c 4
 338.83203125 367.099609375 337.172851562 396.557617188 322 436 c 4
 316.087890625 451.376953125 311.927734375 464.827148438 312.754882812 465.891601562 c 4
 315.224609375 469.065429688 424.341796875 469.587890625 488.885742188 466.733398438 c 4
 530.736328125 464.883789062 551.87890625 462.12890625 558.571289062 457.655273438 c 4
 572.930664062 448.0625 592.703125 417.68359375 597.223632812 398.270507812 c 4
 602.6796875 374.837890625 607.799804688 223.236328125 603.614257812 209.015625 c 4
 601.533203125 201.940429688 601.697265625 175.927734375 604.067382812 137.587890625 c 4
 607.759765625 77.853515625 605.986328125 15.892578125 600.165039062 1.2802734375 c 4
 598.34375 -3.2978515625 598.525390625 -7.3974609375 600.627929688 -9.0771484375 c 4
 605.923828125 -13.3046875 604.782226562 -65.0771484375 598.82421875 -91.0029296875 c 4
 589.837890625 -130.099609375 564.467773438 -149.544921875 512.12109375 -157.470703125 c 4
434.162109375 -38.5830078125 m 5
 434.16015625 -38.5830078125 l 5
 436.58984375 -44.44921875 443.124023438 -46.181640625 465.111328125 -46.787109375 c 4
 480.439453125 -47.2109375 495.938476562 -45.5107421875 499.547851562 -43.013671875 c 4
 510.677734375 -35.3173828125 510.234375 -46.11328125 510.483398438 223.026367188 c 4
 510.573242188 320.865234375 508.584960938 332.538085938 489.669921875 345.17578125 c 4
 484.0703125 348.916992188 472.471679688 351.977539062 463.899414062 351.977539062 c 4
 455.328125 351.977539062 447.299804688 354.095703125 446.063476562 356.682617188 c 4
 442.208984375 364.741210938 434.734375 352.809570312 432.420898438 334.900390625 c 4
 430.682617188 321.5 430.004882812 237.319335938 430.70703125 123.23046875 c 4
 430.762695312 114.596679688 430.8671875 76.3291015625 430.942382812 38.1923828125 c 4
 431.01953125 0.0546875 432.46875 -34.494140625 434.162109375 -38.5830078125 c 5
EndSplineSet
Validated: 524321
EndChar

StartChar: e
Encoding: 101 101 30
Width: 1000
Flags: W
HStem: -162.28 123.346<449.815 645.42> -159.393 109.377<446.311 631.802> 100.694 110.62<446.891 604.204> 342.272 120.158<445.15 642.704>
VStem: 298.553 147.758<-50.0156 100.694 211.85 339.439>
LayerCount: 2
Fore
SplineSet
674.874023438 -102.099609375 m 6xb8
 676.059570312 -167.481445312 l 5
 663.296875 -167.099609375 l 6
 656.27734375 -166.890625 643.08203125 -164.721679688 633.975585938 -162.280273438 c 4xb8
 612.748046875 -156.590820312 332.662109375 -154.1640625 300.69140625 -159.392578125 c 4
 287.38671875 -161.569335938 275.077148438 -162.205078125 273.3359375 -160.807617188 c 4
 271.594726562 -159.409179688 274.053710938 -151.861328125 278.799804688 -144.03515625 c 4
 300.946289062 -107.515625 306.813476562 -84.0380859375 303.143554688 -46.6318359375 c 4
 299.00390625 -4.44921875 298.364257812 9.3388671875 298.552734375 51.9345703125 c 4
 298.627929688 69 298.557617188 91.939453125 298.391601562 102.91015625 c 4
 298.227539062 113.880859375 298.581054688 129.837890625 299.177734375 138.37109375 c 4
 299.774414062 146.904296875 299.244140625 209.737304688 298 278 c 4
 295.919921875 392.159179688 294.775390625 404.150390625 283.734375 427.516601562 c 4
 277.131835938 441.489257812 269.407226562 454.073242188 266.568359375 455.482421875 c 4
 252.655273438 462.388671875 267.36328125 464.111328125 334.55078125 463.448242188 c 4
 374.768554688 463.05078125 450.223632812 462.594726562 502.228515625 462.430664062 c 4
 554.234375 462.268554688 603.595703125 460.055664062 611.920898438 457.513671875 c 4
 623.583007812 453.953125 628.485351562 454.310546875 633.275390625 459.073242188 c 4
 636.6953125 462.473632812 644.4609375 466.190429688 650.532226562 467.333984375 c 4
 661.197265625 469.342773438 661.572265625 467.150390625 661.572265625 402.518554688 c 4
 661.572265625 365.725585938 663.43359375 328.8984375 665.70703125 320.678710938 c 4
 669.817382812 305.826171875 669.767578125 305.779296875 657.427734375 312.973632812 c 4
 599.90625 346.516601562 603.158203125 345.938476562 487.125976562 343.24609375 c 6
 445.150390625 342.272460938 l 5
 444.099609375 287.97265625 l 6
 443.522460938 258.107421875 441.706054688 229.362304688 440.064453125 224.09375 c 4
 437.293945312 215.198242188 439.739257812 214.284179688 474.2734375 211.314453125 c 4
 523.986328125 207.0390625 587.19921875 211.264648438 609.005859375 220.321289062 c 4
 618.749023438 224.3671875 627.72265625 226.873046875 628.948242188 225.888671875 c 4
 630.173828125 224.904296875 627.239257812 213.452148438 622.427734375 200.439453125 c 4
 616.267578125 183.782226562 614.231445312 163.881835938 615.546875 133.192382812 c 4
 616.575195312 109.21875 616.049804688 89.6015625 614.379882812 89.607421875 c 4
 612.709960938 89.6103515625 608.240234375 92.10546875 604.4453125 95.1533203125 c 4
 599.598632812 99.046875 575.064453125 100.694335938 521.928710938 100.694335938 c 6
 446.310546875 100.694335938 l 5
 446.310546875 25.3388671875 l 5
 446.310546875 -50.015625 l 5x78
 482.1875 -51.2080078125 l 6
 572.3203125 -54.2021484375 581.268554688 -53.802734375 591.560546875 -46.322265625 c 4
 597.151367188 -42.2587890625 606.118164062 -38.9345703125 611.487304688 -38.9345703125 c 4
 616.856445312 -38.9345703125 632.4140625 -28.9609375 646.060546875 -16.771484375 c 4
 677.549804688 11.35546875 683.666015625 11.5673828125 678.040039062 -15.6630859375 c 4
 675.646484375 -27.2431640625 674.221679688 -66.1396484375 674.874023438 -102.099609375 c 6xb8
EndSplineSet
Validated: 524321
EndChar

StartChar: f
Encoding: 102 102 31
Width: 1000
Flags: W
HStem: 63.6826 132.581<537.571 681.427> 72.3408 108.926<537.571 680.025> 318.152 113.221<531.582 716.632>
VStem: 394.631 141.163<-113.805 72.1777 178.395 316.571>
LayerCount: 2
Fore
SplineSet
429.620117188 -166.806640625 m 5x70
 408.255859375 -169.223632812 385.53125 -172.27734375 379.122070312 -173.591796875 c 4
 363.543945312 -176.786132812 364.041992188 -169.126953125 381.05078125 -144 c 6
 394.630859375 -123.934570312 l 5
 394.291015625 116.354492188 l 6
 394.088867188 259.344726562 391.834960938 365.53515625 388.725585938 378.602539062 c 4
 385.8515625 390.680664062 378.775390625 407.509765625 373 416 c 6
 362.499023438 431.438476562 l 5
 546.575195312 431.373046875 l 6
 647.817382812 431.3359375 732.873046875 432.440429688 735.590820312 433.827148438 c 4
 738.653320312 435.390625 740.368164062 409.456054688 740.103515625 365.547851562 c 4
 739.870117188 326.606445312 741.138671875 292.795898438 742.921875 290.411132812 c 4
 750.165039062 280.735351562 729.671875 286.991210938 710.26171875 300.3828125 c 4
 691.305664062 313.459960938 685.814453125 314.8828125 646.325195312 316.944335938 c 4
 622.565429688 318.184570312 587.028320312 318.963867188 567.353515625 318.67578125 c 6
 531.58203125 318.15234375 l 5
 533.55078125 283.938476562 l 6
 534.633789062 265.120117188 534.84375 233.674804688 534.018554688 214.05859375 c 6
 532.516601562 178.39453125 l 5
 596.200195312 181.266601562 l 6x70
 631.299804688 182.849609375 667.770507812 186.859375 677.456054688 190.201171875 c 4
 687.120117188 193.53515625 695.720703125 196.263671875 696.567382812 196.263671875 c 4
 697.415039062 196.263671875 696.10546875 190.008789062 693.659179688 182.364257812 c 4
 687.5234375 163.188476562 681.6328125 117.779296875 681.456054688 88.2744140625 c 4
 681.374023438 74.7490234375 680.747070312 63.6826171875 680.0625 63.6826171875 c 4xb0
 679.376953125 63.6826171875 670.794921875 67.591796875 660.990234375 72.369140625 c 4
 645.733398438 79.8017578125 639.90234375 80.43359375 620.553710938 76.75 c 4
 608.120117188 74.3828125 584.797851562 72.3984375 568.7265625 72.3408203125 c 4
 542.524414062 72.2470703125 539.298828125 71.2431640625 537.485351562 62.61328125 c 4
 536.373046875 57.3212890625 535.537109375 15.4619140625 535.62890625 -30.4072265625 c 6
 535.793945312 -113.8046875 l 5
 551.176757812 -139.46484375 l 6
 559.63671875 -153.579101562 567.26953125 -166.231445312 568.137695312 -167.58203125 c 4
 569.005859375 -168.932617188 553.926757812 -168.374023438 534.627929688 -166.340820312 c 4
 488.697265625 -161.501953125 476.012695312 -161.557617188 429.620117188 -166.806640625 c 5x70
EndSplineSet
Validated: 524321
EndChar

StartChar: g
Encoding: 103 103 32
Width: 1000
Flags: W
HStem: 346.105 109.944<408.419 506.258>
VStem: 300.956 105.684<-72.1134 328.171> 493.841 104.872<-63.9712 76.4847> 508.007 85.1436<280.324 344.408>
LayerCount: 2
Fore
SplineSet
586.81640625 -182.763671875 m 5xe0
 584.53125 -189.677734375 581.859375 -195.334960938 580.87890625 -195.334960938 c 4
 578.094726562 -195.334960938 546.623046875 -152.161132812 546.594726562 -148.302734375 c 4
 546.54296875 -141.4453125 539.400390625 -145.143554688 526.169921875 -158.879882812 c 4
 509.012695312 -176.693359375 501.401367188 -180.169921875 470.220703125 -184.434570312 c 4
 436.375 -189.065429688 410.84765625 -188.244140625 376.219726562 -181.412109375 c 4
 350.8359375 -176.404296875 345.041015625 -173.245117188 326.848632812 -154.5 c 6
 306.237304688 -133.260742188 l 5
 303.434570312 -89.7353515625 l 6
 301.892578125 -65.7958984375 300.77734375 15.7353515625 300.956054688 91.4453125 c 4
 301.21484375 201.415039062 302.317382812 228.85546875 306.436523438 227.88671875 c 4
 310.607421875 226.905273438 310.640625 228.66015625 306.609375 237.063476562 c 4
 303.211914062 244.146484375 301.571289062 271.553710938 301.453125 323.163085938 c 4
 301.29296875 393.236328125 301.9296875 400.07421875 310 415 c 4
 321.990234375 437.178710938 341.356445312 452.579101562 360.763671875 455.370117188 c 4
 381.682617188 458.37890625 486.076171875 458.791992188 532.608398438 456.049804688 c 4
 566.75390625 454.038085938 569.349609375 454.56640625 585.83203125 466.883789062 c 4
 595.362304688 474.006835938 603.938476562 478.938476562 604.889648438 477.844726562 c 4
 605.83984375 476.75 604.678710938 469.98828125 602.309570312 462.817382812 c 4
 597.303710938 447.669921875 590.091796875 341.750976562 593.150390625 328.294921875 c 4
 594.290039062 323.282226562 593.180664062 312.064453125 590.685546875 303.366210938 c 4
 586.95703125 290.372070312 582.0859375 285.44921875 563.3671875 275.758789062 c 4
 550.837890625 269.274414062 534.404296875 258.703125 526.848632812 252.268554688 c 4
 519.29296875 245.834960938 511.811523438 240.5703125 510.22265625 240.5703125 c 4
 508.634765625 240.5703125 507.63671875 259.944335938 508.006835938 283.624023438 c 4xd0
 508.912109375 341.641601562 505.612304688 346.10546875 461.8125 346.10546875 c 4
 436.78125 346.10546875 427.846679688 344.225585938 419.194335938 337.138671875 c 6
 408.248046875 328.170898438 l 5
 406.077148438 230.456054688 l 6
 404.883789062 176.712890625 405.13671875 113.125976562 406.639648438 89.1513671875 c 4
 408.141601562 65.17578125 407.921875 26.9765625 406.150390625 4.2646484375 c 4
 401.87890625 -50.4833984375 404.069335938 -60.7490234375 421.845703125 -69.2939453125 c 4
 433.8046875 -75.04296875 439.80859375 -75.2255859375 459.897460938 -70.4521484375 c 4
 493.71875 -62.416015625 495.203125 -58.62109375 493.840820312 16.2861328125 c 6
 492.724609375 77.6796875 l 5
 467.790039062 77.6796875 l 6
 454.076171875 77.6796875 442.862304688 79.3310546875 442.862304688 81.349609375 c 4
 442.866210938 83.3671875 445.671875 91.25390625 449.09765625 98.8759765625 c 4
 453.501953125 108.671875 455.077148438 123.564453125 454.477539062 149.69921875 c 6
 453.627929688 186.666992188 l 5
 532.555664062 186.219726562 l 6
 575.96484375 185.974609375 612.192382812 184.95703125 613.060546875 183.958007812 c 4
 613.928710938 182.958984375 610.91015625 166.509765625 606.354492188 147.403320312 c 4
 600.138671875 121.340820312 598.231445312 100.848632812 598.712890625 65.34765625 c 4
 599.635742188 -2.65234375 591.709960938 -167.956054688 586.81640625 -182.763671875 c 5xe0
EndSplineSet
Validated: 524321
EndChar

StartChar: h
Encoding: 104 104 33
Width: 1000
Flags: W
HStem: 499.066 20G<520.825 601.49>
VStem: 282.726 127.857<-130.249 102.326 225.658 503.386> 534.599 125.903<-124.302 98.7532 232.798 494.78>
LayerCount: 2
Fore
SplineSet
322.600585938 -185.4921875 m 5
 322.600585938 -185.48828125 l 5
 294.206054688 -193.17578125 253.478515625 -196.275390625 253.478515625 -190.749023438 c 4
 253.478515625 -189.265625 258.611328125 -177.321289062 264.883789062 -164.205078125 c 4
 271.15625 -151.087890625 277.869140625 -133.53125 279.801757812 -125.189453125 c 4
 281.734375 -116.846679688 283.049804688 -29.251953125 282.725585938 69.466796875 c 4
 282.400390625 168.18359375 282.051757812 276.254882812 281.94921875 309.625 c 4
 281.846679688 342.995117188 282.224609375 374.84765625 282.790039062 380.408203125 c 4
 283.354492188 385.970703125 282.098632812 411.88671875 280 438 c 4
 276.623046875 480.000976562 274.592773438 487.370117188 262.411132812 501.8671875 c 4
 248.609375 518.290039062 244.375 527.854492188 253.517578125 521.950195312 c 4
 256.201171875 520.217773438 297.41015625 518.799804688 345.091796875 518.799804688 c 6
 431.788085938 518.799804688 l 5
 422.564453125 490.788085938 l 6
 412.020507812 458.771484375 407.9453125 376.79296875 412.098632812 280.313476562 c 4
 414.333984375 228.409179688 415.668945312 221.073242188 422.384765625 223.80859375 c 4
 426.629882812 225.537109375 453.614257812 228.267578125 482.350585938 229.875 c 6
 534.598632812 232.797851562 l 5
 533.161132812 360.543945312 l 6
 531.772460938 483.938476562 531.3515625 488.814453125 520.825195312 503.677734375 c 6
 509.927734375 519.06640625 l 5
 601.490234375 518.954101562 l 5
 693.051757812 518.841796875 l 5
 677.760742188 485.014648438 l 6
 663.173828125 452.743164062 662.390625 447.81640625 660.73828125 377.876953125 c 4
 659.786132812 337.555664062 659.678710938 290.9140625 660.501953125 274.229492188 c 4
 662.359375 236.5390625 662.3984375 193.834960938 660.596679688 170.581054688 c 4
 659.84375 160.848632812 659.430664062 89.1796875 659.678710938 11.318359375 c 4
 660.125 -128.296875 660.296875 -130.622070312 672.142578125 -157.295898438 c 4
 678.748046875 -172.170898438 684.15234375 -185.254882812 684.15234375 -186.37109375 c 4
 684.15234375 -187.48828125 655.299804688 -187.831054688 620.03515625 -187.133789062 c 4
 584.770507812 -186.435546875 543.524414062 -187.71875 528.376953125 -189.983398438 c 6
 500.836914062 -194.102539062 l 5
 517.974609375 -159.202148438 l 5
 535.112304688 -124.301757812 l 5
 534.560546875 -16.2255859375 l 6
 534.255859375 43.21484375 532.31640625 93.615234375 530.25 95.775390625 c 4
 528.18359375 97.9345703125 500.608398438 100.291015625 468.97265625 101.013671875 c 6
 411.453125 102.326171875 l 5
 410.583007812 -13.9619140625 l 5
 409.712890625 -130.249023438 l 5
 423.537109375 -156.716796875 l 6
 431.140625 -171.2734375 437.361328125 -184.356445312 437.361328125 -185.788085938 c 4
 437.361328125 -190.439453125 393.814453125 -188.5390625 372.623046875 -182.96484375 c 4
 356.377929688 -178.690429688 345.737304688 -179.228515625 322.600585938 -185.4921875 c 5
EndSplineSet
Validated: 524321
EndChar

StartChar: i
Encoding: 105 105 34
Width: 1000
Flags: W
VStem: 387.709 199.181<345.415 422.935> 396.286 152.618<-137.047 288.44>
LayerCount: 2
Fore
SplineSet
453.427734375 -171.392578125 m 5x40
 453.427734375 -171.393554688 l 5
 440.776367188 -172.149414062 415.393554688 -174.129882812 397.022460938 -175.793945312 c 6
 363.62109375 -178.821289062 l 5
 379.954101562 -157.934570312 l 5
 396.286132812 -137.046875 l 5
 396.286132812 95.3779296875 l 6x40
 396.286132812 223.211914062 394.366210938 328.6953125 392.01953125 329.78515625 c 4
 389.671875 330.875976562 387.732421875 337.909179688 387.708984375 345.415039062 c 4
 387.649414062 363.943359375 367.864257812 411.602539062 356.213867188 421.279296875 c 4
 347.087890625 428.859375 348.427734375 429.061523438 394.08203125 427.00390625 c 4
 420.11328125 425.830078125 444.146484375 423.1640625 447.487304688 421.079101562 c 4
 451.03515625 418.868164062 457.0390625 418.94140625 461.908203125 421.255859375 c 4
 470.779296875 425.473632812 586.889648438 427.032226562 586.889648438 422.934570312 c 4x80
 586.889648438 421.603515625 584.043945312 416.518554688 580.56640625 411.634765625 c 4
 577.08984375 406.750976562 569.096679688 390.037109375 562.8046875 374.494140625 c 4
 548.541992188 339.260742188 546.244140625 272.716796875 548.904296875 -27.9873046875 c 4
 549.875 -137.755859375 550.317382812 -141.84375 562.939453125 -157.899414062 c 4
 570.107421875 -167.016601562 575.133789062 -175.107421875 574.108398438 -175.877929688 c 4
 573.083007812 -176.6484375 550.686523438 -175.645507812 524.336914062 -173.649414062 c 4
 497.989257812 -171.65234375 466.080078125 -170.63671875 453.427734375 -171.392578125 c 5x40
EndSplineSet
Validated: 524321
EndChar

StartChar: j
Encoding: 106 106 35
Width: 1000
Flags: W
HStem: -187.6 122.608<375.847 468.839> 444 20G<444.298 470.966>
VStem: 265.146 118.247<-25.7363 99.749> 477.091 119.346<-56.5583 430.764>
LayerCount: 2
Fore
SplineSet
495.361328125 -186.021484375 m 4
 473.268554688 -192.83203125 422.104492188 -195.779296875 416.947265625 -190.538085938 c 4
 415.567382812 -189.13671875 397.883789062 -187.814453125 377.650390625 -187.599609375 c 4
 338.956054688 -187.190429688 314.959960938 -178.887695312 292.55078125 -158.155273438 c 4
 268.805664062 -136.186523438 255.604492188 -89.474609375 269.229492188 -75.62890625 c 4
 273.323242188 -71.4697265625 273.161132812 -68.333984375 268.564453125 -62.7060546875 c 4
 264.311523438 -57.4990234375 263.288085938 -46.4326171875 265.146484375 -25.736328125 c 4
 267.609375 1.71875 265.493164062 22.4619140625 256.9296875 54.802734375 c 4
 253.671875 67.1025390625 254.353515625 67.849609375 268.823242188 67.849609375 c 4
 284.734375 67.849609375 295.388671875 70.734375 349.806640625 89.7705078125 c 4
 367.56640625 95.984375 382.680664062 100.473632812 383.393554688 99.7490234375 c 4
 384.107421875 99.0234375 382.911132812 89.94921875 380.735351562 79.58203125 c 4
 368.595703125 21.7373046875 370.51171875 -64.9912109375 383.9296875 -64.9912109375 c 4
 391.84375 -64.9912109375 418.68359375 -79.3955078125 423.495117188 -86.2255859375 c 4
 428.518554688 -93.35546875 461.236328125 -72.51953125 469.231445312 -57.1005859375 c 4
 475.040039062 -45.8974609375 476.357421875 -11.8349609375 477.090820312 146.130859375 c 4
 478.169921875 378.670898438 474.345703125 414.157226562 444.297851562 450.379882812 c 6
 433 464 l 5
 470.965820312 462.416015625 l 6
 491.846679688 461.543945312 511.033203125 459.139648438 513.60546875 457.072265625 c 4
 516.17578125 455.005859375 529.8359375 455.029296875 543.958984375 457.124023438 c 4
 576.637695312 461.973632812 621.118164062 439.954101562 607.940429688 399.951171875 c 4
 596.776367188 366.068359375 593.544921875 345.692382812 595.149414062 319.297851562 c 4
 595.545898438 312.775390625 596.125976562 219.905273438 596.436523438 112.920898438 c 4
 596.955078125 -65.1083984375 596.260742188 -83.9833984375 588.244140625 -109.760742188 c 4
 577.887695312 -143.05859375 547.546875 -178.823242188 529.5859375 -178.905273438 c 4
 523.368164062 -178.93359375 507.966796875 -182.135742188 495.361328125 -186.021484375 c 4
EndSplineSet
Validated: 524321
EndChar

StartChar: k
Encoding: 107 107 36
Width: 1000
Flags: W
HStem: 406.579 20G<519.181 547.572>
VStem: 283 133.501<-145.164 28.2588 220.311 422.222>
LayerCount: 2
Fore
SplineSet
301.323242188 -159.469726562 m 5
 301.323242188 -159.470703125 l 5
 253.471679688 -169.572265625 240.454101562 -166.240234375 258.587890625 -148.532226562 c 4
 262.646484375 -144.56640625 270.219726562 -130.6328125 275.416015625 -117.567382812 c 4
 284.443359375 -94.8642578125 284.780273438 -83.2333984375 283 145 c 4
 281.900390625 286.0390625 279.178710938 389.063476562 276.353515625 396.641601562 c 4
 273.72265625 403.698242188 270.047851562 412.780273438 268.186523438 416.82421875 c 4
 265.057617188 423.620117188 271.432617188 424.1640625 352.254882812 424.00390625 c 6
 439.708007812 423.831054688 l 5
 428.930664062 410.958984375 l 6
 418.776367188 398.833007812 418.061523438 393.138671875 416.575195312 312.552734375 c 4
 415.70703125 265.508789062 416.307617188 223.999023438 417.909179688 220.310546875 c 4
 419.837890625 215.868164062 429.119140625 227.8984375 445.396484375 255.939453125 c 4
 458.9140625 279.223632812 472.833984375 301.161132812 476.331054688 304.689453125 c 4
 479.827148438 308.21875 490.719726562 326.501953125 500.53515625 345.3203125 c 4
 513.553710938 370.278320312 518.5703125 385.897460938 519.077148438 403.056640625 c 6
 519.772460938 426.579101562 l 5
 547.572265625 425.975585938 l 6
 562.862304688 425.643554688 578.104492188 424.487304688 581.4453125 423.405273438 c 4
 584.78515625 422.323242188 612.018554688 422.594726562 641.961914062 424.008789062 c 4
 671.905273438 425.422851562 696.302734375 425.616210938 696.176757812 424.440429688 c 4
 696.051757812 423.264648438 687.458984375 416.528320312 677.083007812 409.471679688 c 4
 651.3515625 391.97265625 635.088867188 371.3203125 599.627929688 311.10546875 c 4
 583.00390625 282.877929688 562.9609375 249.65625 555.086914062 237.279296875 c 4
 541.883789062 216.5234375 541.153320312 213.19921875 545.69140625 194.510742188 c 4
 551.03125 172.518554688 571.774414062 120.958984375 591.696289062 80.158203125 c 4
 598.587890625 66.0439453125 604.278320312 48.4375 604.340820312 41.03125 c 4
 604.403320312 33.6259765625 610.98828125 16.5908203125 618.97265625 3.17578125 c 4
 626.95703125 -10.2392578125 633.490234375 -26.978515625 633.490234375 -34.0224609375 c 4
 633.490234375 -57.69921875 649.1484375 -94.95703125 672.858398438 -127.694335938 c 4
 685.8046875 -145.571289062 696.397460938 -161.448242188 696.397460938 -162.977539062 c 4
 696.397460938 -167.598632812 674.606445312 -166.127929688 640.994140625 -159.23828125 c 4
 612.493164062 -153.397460938 606.224609375 -153.397460938 580.716796875 -159.23828125 c 4
 537.760742188 -169.076171875 533.11328125 -168.360351562 535.778320312 -152.315429688 c 4
 538.778320312 -134.252929688 528.012695312 -82.87890625 516.216796875 -58.9619140625 c 4
 510.962890625 -48.30859375 499.5234375 -20.34765625 490.795898438 3.17578125 c 4
 473.872070312 48.7880859375 456.412109375 86.5732421875 452.258789062 86.5732421875 c 4
 450.8671875 86.5732421875 442.251953125 73.4521484375 433.114257812 57.4150390625 c 6
 416.500976562 28.2587890625 l 5
 414.127929688 -49.53125 l 6
 411.840820312 -124.514648438 412.16015625 -128.02734375 422.96484375 -146.889648438 c 6
 434.174804688 -166.458984375 l 5
 392.290039062 -163.4140625 l 6
 369.25390625 -161.739257812 345.739257812 -158.8203125 340.03515625 -156.927734375 c 4
 333.9140625 -154.897460938 318.05078125 -155.938476562 301.323242188 -159.469726562 c 5
EndSplineSet
Validated: 524321
EndChar

StartChar: l
Encoding: 108 108 37
Width: 1000
Flags: W
HStem: -160.494 102.225<460.328 646.714>
VStem: 311.664 155.202<-54.2134 291.841>
LayerCount: 2
Fore
SplineSet
390.491210938 -154.572265625 m 5
 353.177734375 -160.27734375 266.61328125 -163.883789062 266.61328125 -159.733398438 c 4
 266.61328125 -157.633789062 276.092773438 -146.90625 287.678710938 -135.895507812 c 6
 308.743164062 -115.875 l 5
 311.6640625 -35.505859375 l 6
 313.268554688 8.6962890625 314.060546875 51.4794921875 313.420898438 59.5673828125 c 4
 312.78125 67.65625 312.154296875 120.482421875 312.022460938 176.961914062 c 4
 311.8125 267.115234375 312.934570312 280.260742188 321.2109375 284.653320312 c 4
 328.9921875 288.782226562 329.212890625 290.052734375 322.475585938 291.928710938 c 4
 316.418945312 293.615234375 313.701171875 305.25 311.942382812 336.998046875 c 6
 309.575195312 379.795898438 l 5
 285.787109375 395.897460938 l 5
 262 412 l 5
 374.748046875 412.196289062 l 6
 436.758789062 412.302734375 490.241210938 413.623046875 493.59375 415.127929688 c 4
 496.948242188 416.6328125 498.572265625 416.182617188 497.200195312 414.126953125 c 4
 468.762695312 371.526367188 470.708007812 387.7734375 466.866210938 160.94921875 c 4
 464.893554688 44.5537109375 461.862304688 -52.34375 460.130859375 -54.3779296875 c 4
 458.399414062 -56.41015625 469.510742188 -58.1611328125 484.823242188 -58.26953125 c 4
 500.13671875 -58.376953125 534.0703125 -58.6494140625 560.233398438 -58.8759765625 c 4
 604.118164062 -59.255859375 609.49609375 -58.353515625 629.706054688 -47.21484375 c 4
 641.754882812 -40.57421875 658.154296875 -29.974609375 666.150390625 -23.6611328125 c 6
 680.688476562 -12.1826171875 l 5
 680.90625 -73.9931640625 l 6
 681.026367188 -107.987304688 682.778320312 -142.198242188 684.80078125 -150.015625 c 6
 688.478515625 -164.229492188 l 5
 655.571289062 -161.033203125 l 6
 615.520507812 -157.142578125 607.444335938 -157.112304688 513.166015625 -160.494140625 c 4
 453.259765625 -162.642578125 435.884765625 -161.977539062 425.728515625 -157.1484375 c 4
 416.491210938 -152.756835938 406.934570312 -152.05859375 390.491210938 -154.572265625 c 5
EndSplineSet
Validated: 524321
EndChar

StartChar: m
Encoding: 109 109 38
Width: 1000
Flags: W
VStem: 174.902 153.853<-135.456 128.956> 662.226 162.698<-116.843 149.788>
LayerCount: 2
Fore
SplineSet
230.733398438 -172.770507812 m 5
 230.733398438 -172.7734375 l 5
 215.387695312 -174.89453125 188.434570312 -177.348632812 170.8359375 -178.2265625 c 6
 138.837890625 -179.823242188 l 5
 156.870117188 -157.639648438 l 5
 174.90234375 -135.456054688 l 5
 177.38671875 21.1669921875 l 6
 178.752929688 107.309570312 177.991210938 212.782226562 175.6953125 255.549804688 c 4
 171.5390625 332.961914062 171.44140625 333.375976562 154 348 c 4
 144.364257812 356.079101562 137.459960938 363.22265625 138.65625 363.875 c 4
 139.853515625 364.52734375 198.479492188 366.059570312 268.936523438 367.280273438 c 6
 397.040039062 369.5 l 5
 400.127929688 348.982421875 l 6
 404.954101562 316.92578125 415.80078125 284.672851562 428.913085938 263.3984375 c 4
 435.520507812 252.678710938 445.225585938 228.138671875 450.481445312 208.866210938 c 4
 455.736328125 189.59375 467.524414062 158.77734375 476.67578125 140.385742188 c 6
 493.315429688 106.947265625 l 5
 501.30859375 132.0078125 l 6
 505.705078125 145.791015625 513.44140625 165.298828125 518.501953125 175.359375 c 4
 523.5625 185.418945312 533.528320312 209.708984375 540.650390625 229.3359375 c 4
 547.772460938 248.963867188 562.123046875 282.70703125 572.541015625 304.322265625 c 4
 583.952148438 327.997070312 590.129882812 347.950195312 588.079101562 354.5078125 c 6
 584.67578125 365.393554688 l 5
 717.705078125 365.70703125 l 6
 790.87109375 365.87890625 850.735351562 365.232421875 850.735351562 364.270507812 c 4
 850.735351562 363.307617188 843.759765625 355.947265625 835.235351562 347.913085938 c 4
 820.557617188 334.081054688 819.671875 330.125 818.543945312 273.390625 c 4
 817.889648438 240.438476562 817.676757812 209.015625 818.075195312 203.563476562 c 4
 821.33203125 158.860351562 826.73828125 44.1806640625 826.11328125 33.0625 c 4
 825.684570312 25.4296875 825.150390625 -14.7177734375 824.923828125 -56.1533203125 c 4
 824.559570312 -123.2578125 825.94921875 -134.053710938 837.640625 -154.940429688 c 4
 844.860351562 -167.837890625 849.352539062 -179.294921875 847.625976562 -180.400390625 c 4
 845.897460938 -181.504882812 830.33203125 -180.3203125 813.036132812 -177.767578125 c 4
 772.627929688 -171.80078125 709.294921875 -171.83984375 663.728515625 -177.860351562 c 4
 644.010742188 -180.463867188 625.920898438 -181.34375 623.528320312 -179.813476562 c 4
 621.13671875 -178.284179688 629.645507812 -163.668945312 642.438476562 -147.3359375 c 6
 665.698242188 -117.639648438 l 5
 662.225585938 -67.0703125 l 6
 660.315429688 -39.2578125 658.705078125 21.521484375 658.643554688 67.9921875 c 4
 658.583007812 114.463867188 656.2890625 151.598632812 653.545898438 150.513671875 c 4
 650.802734375 149.428710938 642.060546875 134.603515625 634.119140625 117.567382812 c 4
 626.1796875 100.53125 607.275390625 63.396484375 592.112304688 35.0458984375 c 4
 576.948242188 6.6953125 563.514648438 -20.9619140625 562.258789062 -26.4130859375 c 4
 561.00390625 -31.865234375 551.1953125 -51.4931640625 540.463867188 -70.0302734375 c 4
 529.73046875 -88.5673828125 515.416992188 -115.109375 508.653320312 -129.01171875 c 6
 496.356445312 -154.290039062 l 5
 487.469726562 -143.3359375 l 6
 482.583007812 -137.311523438 474.26171875 -122.872070312 468.978515625 -111.25 c 4
 463.6953125 -99.6279296875 452.26171875 -78.9072265625 443.569335938 -65.205078125 c 4
 428.893554688 -42.0693359375 422.971679688 -29.826171875 403.708007812 17.203125 c 4
 399.6875 27.0166015625 381.090820312 66.0107421875 362.380859375 103.857421875 c 4
 329.306640625 170.760742188 315.177734375 185.151367188 323.979492188 142.971679688 c 4
 326.353515625 131.58984375 328.502929688 61.0107421875 328.754882812 -13.8720703125 c 4
 329.146484375 -130.131835938 330.624023438 -151.399414062 338.873046875 -159.451171875 c 4
 344.186523438 -164.63671875 348.533203125 -169.625976562 348.533203125 -170.5390625 c 4
 348.533203125 -175.073242188 318.416992188 -176.235351562 290.251953125 -172.787109375 c 4
 269.737304688 -170.2734375 248.834960938 -170.268554688 230.733398438 -172.770507812 c 5
87.310546875 -178.141601562 m 5
 83.373046875 -164.727539062 l 6
 81.2080078125 -157.348632812 79.3310546875 -125.063476562 79.203125 -92.98046875 c 6
 78.96875 -34.6474609375 l 1029
EndSplineSet
Validated: 524323
EndChar

StartChar: n
Encoding: 110 110 39
Width: 1000
Flags: W
HStem: 388 20G<229.676 304.91 506.249 536.195>
VStem: 252.453 124.072<-143.017 144.653> 523.084 122.428<125.794 405.336>
LayerCount: 2
Fore
SplineSet
293.618164062 -183.689453125 m 6
 288.958984375 -185.822265625 273.579101562 -188.877929688 259.443359375 -190.478515625 c 4
 232.075195312 -193.578125 229.217773438 -191.327148438 239.286132812 -174.594726562 c 4
 253.970703125 -150.190429688 256.826171875 -120.018554688 252.453125 -35.5 c 4
 250.061523438 10.73828125 249.3203125 56.4072265625 250.805664062 65.986328125 c 4
 252.291992188 75.5654296875 253.203125 105.936523438 252.830078125 133.4765625 c 4
 252.458007812 161.016601562 252.65625 221.083007812 253.271484375 266.95703125 c 4
 254.487304688 357.689453125 251.25390625 375.362304688 229.67578125 395.921875 c 6
 217 408 l 5
 304.91015625 406.807617188 l 5
 392.8203125 405.615234375 l 5
 391.259765625 389.55078125 l 6
 390.024414062 376.82421875 396.3828125 361.61328125 421.87109375 316.322265625 c 4
 439.564453125 284.880859375 454.041015625 254.489257812 454.041015625 248.784179688 c 4
 454.041015625 239.442382812 517.05859375 122.76171875 520.466796875 125.793945312 c 4
 521.249023438 126.48828125 522.42578125 178.956054688 523.083984375 242.387695312 c 4
 524.080078125 338.430664062 523.018554688 360.267578125 516.737304688 372.958007812 c 4
 512.588867188 381.33984375 507.869140625 393.19140625 506.249023438 399.295898438 c 6
 503.3046875 410.392578125 l 5
 536.1953125 407.077148438 l 6
 554.28515625 405.252929688 590.564453125 404.948242188 616.817382812 406.3984375 c 4
 643.069335938 407.849609375 664.548828125 407.416015625 664.548828125 405.434570312 c 4
 664.548828125 403.454101562 660.258789062 393.866210938 655.016601562 384.129882812 c 4
 646.657226562 368.60546875 645.475585938 356.783203125 645.51171875 288.05078125 c 4
 645.526367188 244.944335938 646.729492188 181.497070312 648.18359375 147.057617188 c 4
 650.110351562 101.470703125 649.169921875 81.6806640625 644.728515625 74.2998046875 c 4
 640.315429688 66.9658203125 639.701171875 54.7734375 642.506835938 30.2392578125 c 4
 644.641601562 11.5830078125 646.161132812 -15.4375 645.887695312 -29.806640625 c 4
 643.802734375 -138.971679688 644.3828125 -144.5234375 661.635742188 -180.3515625 c 4
 664.560546875 -186.42578125 656.278320312 -187.189453125 589.030273438 -187.044921875 c 6
 513.124023438 -186.8828125 l 5
 516.626953125 -175.834960938 l 6
 524.307617188 -151.618164062 519.944335938 -129.940429688 499.944335938 -92.935546875 c 4
 488.944335938 -72.583984375 477.606445312 -50.0537109375 474.748046875 -42.869140625 c 4
 471.890625 -35.6845703125 458.412109375 -7.2734375 444.795898438 20.2666015625 c 4
 431.1796875 47.8076171875 419.979492188 72.806640625 419.905273438 75.8212890625 c 4
 419.83203125 78.8349609375 413.310546875 89.2353515625 405.412109375 98.9326171875 c 4
 397.514648438 108.629882812 389.634765625 122.306640625 387.901367188 129.32421875 c 4
 386.16796875 136.342773438 382.716796875 143.203125 380.231445312 144.569335938 c 4
 375.034179688 147.42578125 373.383789062 82.384765625 375.250976562 -51.5771484375 c 6
 376.525390625 -143.016601562 l 5
 390.806640625 -163.98828125 l 6
 398.66015625 -175.522460938 405.0859375 -185.809570312 405.0859375 -186.84765625 c 4
 405.0859375 -190.2421875 364.139648438 -188.765625 332.783203125 -184.240234375 c 4
 314.495117188 -181.599609375 298.666992188 -181.377929688 293.618164062 -183.689453125 c 6
EndSplineSet
Validated: 524321
EndChar

StartChar: o
Encoding: 111 111 40
Width: 1000
Flags: W
HStem: -176.618 112.812<408.869 519.962> 344.761 111.03<410.89 515.369>
VStem: 278.329 128.127<-40.5898 343.324> 523.009 126.679<-56.9917 332.574>
LayerCount: 2
Fore
SplineSet
539.04296875 -172.401367188 m 5
 519.744140625 -175.852539062 498.508789062 -179.638671875 491.85546875 -180.814453125 c 4
 485.201171875 -181.989257812 474.295898438 -181.306640625 467.619140625 -179.296875 c 4
 460.944335938 -177.287109375 443.5234375 -176.08203125 428.908203125 -176.618164062 c 4
 384.623046875 -178.244140625 312.810546875 -153.616210938 312.810546875 -136.803710938 c 4
 312.810546875 -134.237304688 307.985351562 -128.431640625 302.0859375 -123.90234375 c 4
 284.087890625 -110.083007812 272.459960938 -23.4697265625 284.28515625 8.6943359375 c 4
 288.306640625 19.6328125 288.192382812 24.8857421875 283.82421875 29.876953125 c 4
 280.481445312 33.6953125 278.1484375 49.73046875 278.329101562 67.6357421875 c 4
 278.501953125 84.7529296875 279.254882812 162.767578125 280 241 c 4
 281.345703125 382.123046875 281.44921875 383.387695312 293.02734375 401.596679688 c 4
 308.8359375 426.458007812 322.12109375 440.028320312 339.42578125 448.98828125 c 4
 351.823242188 455.409179688 370.404296875 456.401367188 466.727539062 455.791015625 c 4
 589.131835938 455.013671875 591.67578125 454.53125 616.54296875 427.352539062 c 4
 634.694335938 407.512695312 641.993164062 391.39453125 644.305664062 366.041015625 c 4
 645.514648438 352.7890625 648.479492188 325.532226562 650.89453125 305.469726562 c 4
 653.426757812 284.436523438 653.580078125 235.870117188 651.256835938 190.758789062 c 4
 649.041015625 147.728515625 648.334960938 80.5185546875 649.6875 41.40234375 c 4
 651.040039062 2.28515625 649.873046875 -48.2763671875 647.092773438 -70.9580078125 c 4
 641.788085938 -114.249023438 634.529296875 -128.916015625 611.953125 -141.967773438 c 4
 605.244140625 -145.846679688 593.991210938 -152.868164062 586.9453125 -157.572265625 c 4
 579.899414062 -162.276367188 558.34375 -168.94921875 539.04296875 -172.401367188 c 5
420.466796875 -53.748046875 m 6
 433.180664062 -66.330078125 435.086914062 -66.7705078125 464.018554688 -63.8056640625 c 4
 508.973632812 -59.19921875 519.989257812 -52.92578125 523.008789062 -30.2138671875 c 4
 524.38671875 -19.84765625 525.017578125 64.443359375 524.411132812 157.098632812 c 4
 523.447265625 304.329101562 522.334960938 326.485351562 515.583984375 332.885742188 c 4
 511.219726562 337.0234375 492.791992188 342.189453125 473.221679688 344.760742188 c 4
 432.556640625 350.104492188 414.653320312 344.581054688 409.188476562 325.006835938 c 4
 407.291015625 318.212890625 406.0625 233.174804688 406.456054688 136.033203125 c 6
 407.171875 -40.58984375 l 5
 420.466796875 -53.748046875 l 6
EndSplineSet
Validated: 524321
EndChar

StartChar: p
Encoding: 112 112 41
Width: 1000
Flags: W
HStem: 73.3428 137.453<499.192 594.244> 78.3623 125.459<496.315 593.684> 444.769 137.532<498.795 598.658>
VStem: 359.625 138.412<-148.876 70.6143 205.593 444.769> 597.35 136.585<214.529 435.233>
LayerCount: 2
Fore
SplineSet
428.997070312 -183.9609375 m 4xb8
 418.28515625 -190.1796875 336.35546875 -198.549804688 336.35546875 -193.42578125 c 4
 336.35546875 -191.439453125 341.896484375 -181.671875 348.668945312 -171.720703125 c 4
 358.732421875 -156.9296875 361.00390625 -146.879882812 361.116210938 -116.678710938 c 4
 361.190429688 -96.3583984375 360.51953125 54.982421875 359.625 219.633789062 c 6
 358 519 l 5
 344.639648438 545.766601562 l 6
 337.291992188 560.48828125 331.280273438 574.685546875 331.280273438 577.31640625 c 4
 331.280273438 579.946289062 362.688476562 582.189453125 401.078125 582.30078125 c 4
 439.466796875 582.412109375 486.866210938 583.27734375 506.409179688 584.22265625 c 4
 525.953125 585.16796875 569.56640625 584.28125 603.328125 582.251953125 c 4
 661.915039062 578.73046875 665.817382812 577.711914062 688.920898438 559.913085938 c 4
 705.52734375 547.119140625 716.317382812 533.186523438 723.290039062 515.538085938 c 4
 732.926757812 491.142578125 733.017578125 488.791015625 725.045898438 470.072265625 c 4
 718.119140625 453.807617188 717.9296875 450.887695312 723.969726562 453.482421875 c 4
 735.71875 458.53125 736.909179688 441.418945312 733.934570312 310.409179688 c 4
 730.852539062 174.721679688 731.037109375 175.56640625 693.091796875 123.712890625 c 4
 665.877929688 86.5244140625 652.750976562 81.005859375 585.21875 78.3623046875 c 4x78
 553.041992188 77.1025390625 519.538085938 74.8447265625 510.767578125 73.3427734375 c 6
 494.8203125 70.6142578125 l 5
 495.569335938 -39.130859375 l 5
 496.318359375 -148.875976562 l 5
 510.74609375 -173.2890625 l 5
 525.173828125 -197.701171875 l 5
 490.41015625 -193.551757812 l 6
 471.290039062 -191.26953125 451.649414062 -187.017578125 446.763671875 -184.103515625 c 4
 441.404296875 -180.90625 434.356445312 -180.850585938 428.997070312 -183.9609375 c 4xb8
496.76953125 219.579101562 m 4
 499.067382812 203.180664062 501.010742188 201.0234375 510.967773438 203.821289062 c 4x78
 517.3125 205.604492188 538.645507812 208.743164062 558.374023438 210.795898438 c 6xb8
 594.244140625 214.529296875 l 5
 597.349609375 243.607421875 l 6
 599.056640625 259.599609375 600.096679688 309.2578125 599.659179688 353.958984375 c 6
 598.864257812 435.233398438 l 5
 585.631835938 442.579101562 l 6
 576.930664062 447.41015625 559.799804688 449.041992188 535.59765625 447.346679688 c 6
 498.794921875 444.768554688 l 5
 498.037109375 426.935546875 l 6
 495.32421875 363.099609375 494.54296875 235.462890625 496.76953125 219.579101562 c 4
EndSplineSet
Validated: 524321
EndChar

StartChar: q
Encoding: 113 113 42
Width: 1000
Flags: W
HStem: 389.113 112.502<410.841 505.312>
VStem: 298.853 107.374<15.2588 379.815> 489.611 121.065<-2.97732 110.24> 508.411 101.659<164.106 369.063>
LayerCount: 2
Fore
SplineSet
567.629882812 -167.18359375 m 5xe0
 561.735351562 -173.5 560.75 -173.432617188 547.946289062 -165.83984375 c 4
 542.256835938 -162.46484375 535.88671875 -160.840820312 533.7890625 -162.23046875 c 4
 520.073242188 -171.311523438 510.263671875 -166.127929688 486.150390625 -137.05859375 c 6
 461.322265625 -107.12890625 l 5
 422.953125 -109.094726562 l 6
 374.594726562 -111.571289062 344.114257812 -104.629882812 325.1953125 -86.83203125 c 4
 299.174804688 -62.35546875 298.581054688 -55.9521484375 298.852539062 196.750976562 c 4
 299.116210938 441.845703125 298.61328125 436.240234375 323 466 c 4
 344.46875 492.197265625 377.123046875 501.356445312 449.96875 501.615234375 c 4
 529.025390625 501.895507812 555.249023438 495.657226562 581.5546875 470.317382812 c 4
 592.46875 459.802734375 603.284179688 444.75 605.587890625 436.865234375 c 4
 607.891601562 428.98046875 609.908203125 374.41015625 610.0703125 315.595703125 c 4xd0
 610.231445312 256.782226562 610.504882812 154.13671875 610.676757812 87.49609375 c 6
 610.990234375 -33.6708984375 l 5
 598.59765625 -52.8544921875 l 6
 583.118164062 -76.81640625 570.353515625 -89.064453125 553.389648438 -96.232421875 c 6
 540.171875 -101.817382812 l 5
 548.084960938 -115.889648438 l 6
 569.12890625 -153.314453125 572.447265625 -162.0234375 567.629882812 -167.18359375 c 5xe0
440.916015625 -3.1943359375 m 5
 440.915039062 -3.1943359375 l 5
 468.170898438 -10.3076171875 489.740234375 3.3271484375 489.611328125 27.5908203125 c 4xe0
 489.552734375 38.5146484375 477.64453125 82.1318359375 463.291992188 123.994140625 c 4
 459.93359375 133.790039062 457.947265625 143.125976562 458.87890625 144.740234375 c 4
 459.809570312 146.354492188 467.360351562 145.443359375 475.658203125 142.713867188 c 4
 489.875 138.040039062 491.3125 138.512695312 500.581054688 150.9296875 c 6
 510.416992188 164.106445312 l 5
 508.411132812 266.584960938 l 5
 506.404296875 369.063476562 l 5
 495.727539062 379.087890625 l 6
 486.467773438 387.782226562 480.41015625 389.11328125 450.081054688 389.11328125 c 4
 419.358398438 389.11328125 414.571289062 388.030273438 410.657226562 380.1953125 c 4
 406.966796875 372.806640625 405.259765625 318.432617188 406.112304688 235.395507812 c 4
 406.185546875 228.043945312 406.237304688 175.505859375 406.2265625 118.643554688 c 6
 406.205078125 15.2587890625 l 5
 416.85546875 7.7822265625 l 6
 422.711914062 3.6708984375 433.540039062 -1.2685546875 440.916015625 -3.1943359375 c 5
EndSplineSet
Validated: 524321
EndChar

StartChar: r
Encoding: 114 114 43
Width: 1000
Flags: W
HStem: 75.7715 104.682<421.628 489.125> 372.673 112.702<425.736 529.618>
VStem: 283.567 133.467<-152.234 75.7715 180.453 366.594> 538.463 135.81<197.871 365.225>
LayerCount: 2
Fore
SplineSet
697.116210938 -146.140625 m 5
 704.296875 -155.552734375 709.452148438 -163.638671875 708.571289062 -164.108398438 c 4
 707.689453125 -164.577148438 690.119140625 -163.19921875 669.5234375 -161.044921875 c 4
 648.928710938 -158.890625 608.266601562 -158.448242188 579.1640625 -160.0625 c 4
 529.125976562 -162.837890625 526.489257812 -162.520507812 530.665039062 -154.241210938 c 4
 533.09375 -149.42578125 536.057617188 -134.35546875 537.250976562 -120.752929688 c 4
 538.986328125 -100.97265625 534.505859375 -82.326171875 514.870117188 -27.611328125 c 4
 501.366210938 10.0126953125 490.318359375 44.3837890625 490.318359375 48.767578125 c 4
 490.318359375 64.4404296875 470.544921875 75.771484375 443.200195312 75.771484375 c 6
 417.479492188 75.771484375 l 5
 417.034179688 -13.4443359375 l 6
 416.58203125 -104.330078125 416.805664062 -105.723632812 439.677734375 -154.485351562 c 4
 443.466796875 -162.563476562 442.029296875 -163.188476562 425.651367188 -160.58203125 c 4
 399.483398438 -156.418945312 338.3984375 -156.208984375 296.403320312 -160.137695312 c 4
 276.54296875 -161.995117188 260.293945312 -162.53515625 260.293945312 -161.338867188 c 4
 260.293945312 -160.141601562 266.153320312 -148.358398438 273.313476562 -135.155273438 c 4
 285.421875 -112.829101562 286.140625 -107.353515625 283.567382812 -56.9443359375 c 4
 282.045898438 -27.130859375 280.106445312 90.4033203125 279.2578125 204.244140625 c 4
 277.638671875 421.432617188 275.6953125 440.615234375 252.072265625 472.684570312 c 6
 243 485 l 5
 285.081054688 485.0703125 l 6
 308.225585938 485.109375 334.383789062 485.4375 343.209960938 485.80078125 c 4
 352.036132812 486.165039062 411.931640625 485.97265625 476.30859375 485.375 c 4
 590.802734375 484.311523438 593.795898438 484.032226562 613.30078125 472.549804688 c 4
 624.268554688 466.09375 641.123046875 451.05078125 650.754882812 439.12109375 c 4
 667.184570312 418.770507812 668.505859375 414.147460938 672.108398438 364.366210938 c 4
 674.219726562 335.181640625 675.193359375 280.483398438 674.272460938 242.8125 c 4
 672.713867188 179.038085938 671.678710938 173.084960938 659.235351562 156.359375 c 4
 651.885742188 146.481445312 637.561523438 132.759765625 627.403320312 125.869140625 c 4
 617.24609375 118.9765625 607.649414062 110.359375 606.078125 106.716796875 c 4
 602.896484375 99.3427734375 613.66796875 55.1103515625 629.255859375 11.5361328125 c 4
 634.873046875 -4.166015625 641.106445312 -24.376953125 643.106445312 -33.376953125 c 4
 648.17578125 -56.171875 681.401367188 -125.54296875 697.116210938 -146.140625 c 5
418.40234375 210.19140625 m 6
 421.627929688 180.453125 l 5
 460.322265625 180.453125 l 6
 495.640625 180.453125 500.212890625 181.59375 512.736328125 193.537109375 c 4
 535.561523438 215.305664062 538.462890625 225.029296875 538.462890625 279.752929688 c 4
 538.462890625 361.2578125 529.125 373.724609375 468.858398438 372.672851562 c 4
 447.877929688 372.306640625 428.408203125 369.95703125 425.591796875 367.452148438 c 4
 417.198242188 359.985351562 412.737304688 262.41796875 418.40234375 210.19140625 c 6
EndSplineSet
Validated: 524321
EndChar

StartChar: s
Encoding: 115 115 44
Width: 1000
Flags: W
HStem: 309.32 109.102<423.245 523.288>
VStem: 298.111 111.333<-68.9821 2.88091> 298.924 122.922<214.872 309.366> 534.598 86.9131<269.463 300.449>
LayerCount: 2
Fore
SplineSet
464.860351562 -177.693359375 m 4xb0
 467.54296875 -184.366210938 464.20703125 -185.147460938 435.879882812 -184.483398438 c 4
 418.2734375 -184.071289062 399.666015625 -182.994140625 394.530273438 -182.08984375 c 4
 366.7421875 -177.198242188 363.426757812 -175.734375 365.946289062 -169.467773438 c 4
 368.422851562 -163.30859375 353.1484375 -161.22265625 306.98828125 -161.416992188 c 4
 299.211914062 -161.44921875 295.959960938 -150.592773438 298.111328125 -131.782226562 c 4
 301.108398438 -105.569335938 298.284179688 20.4267578125 294.422851562 32.779296875 c 4
 291.791992188 41.193359375 290.2421875 48.654296875 290.978515625 49.3564453125 c 4
 291.71484375 50.0595703125 302.709960938 42.396484375 315.411132812 32.328125 c 4
 346.271484375 7.8623046875 361.232421875 2.1611328125 382.305664062 6.8359375 c 4
 411.052734375 13.2138671875 410.427734375 13.98828125 409.444335938 -26.8076171875 c 4xd0
 408.927734375 -48.234375 410.638671875 -66.4365234375 413.421875 -69.119140625 c 4
 422.635742188 -77.9970703125 471.32421875 -83.9482421875 486.303710938 -78.02734375 c 4
 505.009765625 -70.6318359375 508.961914062 -61.595703125 512.110351562 -19.0234375 c 6
 514.829101562 17.7314453125 l 5
 488 41.130859375 l 6
 473.244140625 54.0009765625 451.606445312 70.810546875 439.916992188 78.486328125 c 4
 387.008789062 113.223632812 319.354492188 167.099609375 314.134765625 178.649414062 c 4
 306.068359375 196.501953125 298.5546875 259.94921875 298.923828125 307.092773438 c 4
 299.307617188 356.017578125 308.41015625 377.119140625 338.916015625 399.80078125 c 4
 358.42578125 414.306640625 363.124023438 415.672851562 402.930664062 418.421875 c 4
 456.5703125 422.127929688 537.365234375 418.73046875 550.08203125 412.237304688 c 4
 563.918945312 405.169921875 573.033203125 406.122070312 595.916015625 417.028320312 c 4
 607.09375 422.35546875 617.100585938 425.864257812 618.153320312 424.826171875 c 4
 619.866210938 423.137695312 622.838867188 302.05078125 621.510742188 288.06640625 c 4
 621.21484375 284.954101562 606.791015625 273.645507812 589.458007812 262.9375 c 4
 572.125 252.228515625 553.939453125 239.236328125 549.048828125 234.06640625 c 4
 544.157226562 228.89453125 538.904296875 224.6640625 537.375976562 224.6640625 c 4
 535.84765625 224.6640625 534.59765625 239.87890625 534.59765625 258.474609375 c 4
 534.59765625 288.6328125 533.407226562 293.206054688 523.576171875 300.802734375 c 4
 517.513671875 305.487304688 506.345703125 309.3203125 498.7578125 309.3203125 c 4
 491.168945312 309.3203125 481.421875 311.084960938 477.09765625 313.2421875 c 4
 462.184570312 320.680664062 438.665039062 313.609375 428.823242188 298.729492188 c 4
 421.486328125 287.635742188 420.071289062 279.53515625 421.845703125 258.778320312 c 4
 424.499023438 227.751953125 432.336914062 218.245117188 471.815429688 198.1640625 c 4
 486.912109375 190.486328125 500.482421875 182.321289062 501.971679688 180.021484375 c 4
 503.461914062 177.721679688 517.423828125 168.711914062 533 160 c 4
 577.336914062 135.201171875 620.220703125 96.8427734375 625.830078125 76.9619140625 c 4
 631.655273438 56.3203125 632.333984375 -34.951171875 627.07421875 -90.3203125 c 4
 622.810546875 -135.20703125 617.646484375 -145.24609375 586.3984375 -169.396484375 c 4
 569.97265625 -182.090820312 565.750976562 -183.126953125 524.546875 -184.57421875 c 4
 487.1015625 -185.889648438 478.907226562 -184.903320312 471.076171875 -178.140625 c 4
 462.780273438 -170.975585938 462.140625 -170.9296875 464.860351562 -177.693359375 c 4xb0
EndSplineSet
Validated: 524321
EndChar

StartChar: t
Encoding: 116 116 45
Width: 1000
Flags: W
HStem: 386.818 131.425<252.208 361.723>
VStem: 362.743 142.54<-164.436 377.361>
LayerCount: 2
Fore
SplineSet
403.040039062 -182.612304688 m 5
 379.1640625 -185.094726562 354.086914062 -187.252929688 347.311523438 -187.407226562 c 6
 334.9921875 -187.688476562 l 5
 345.729492188 -167.428710938 l 6
 362.471679688 -135.83984375 366.208984375 -94.4228515625 362.743164062 21.22265625 c 4
 360.978515625 80.109375 360.776367188 137.690429688 362.295898438 149.180664062 c 4
 363.814453125 160.670898438 364.3046875 218.83984375 363.389648438 278.444335938 c 6
 361.72265625 386.818359375 l 5
 320.89453125 386.818359375 l 6
 282.169921875 386.818359375 278.85546875 385.864257812 256.606445312 368.31640625 c 6
 233.1484375 349.815429688 l 5
 229.510742188 370.537109375 l 6
 227.385742188 382.642578125 228.35546875 395.72265625 231.84375 401.995117188 c 4
 237.272460938 411.760742188 235.6328125 478.817382812 229.202148438 509.935546875 c 4
 227.237304688 519.4453125 229.094726562 520.477539062 244.463867188 518.419921875 c 4
 254.084960938 517.129882812 264.85546875 513.856445312 268.39453125 511.146484375 c 4
 272.4453125 508.044921875 278.526367188 508.120117188 284.797851562 511.3515625 c 4
 290.520507812 514.299804688 369.3515625 517.234375 469.881835938 518.243164062 c 6
 645 520 l 5
 641.541992188 506.942382812 l 6
 639.639648438 499.76171875 638.336914062 460.393554688 638.642578125 419.4609375 c 4
 638.94921875 378.526367188 637.715820312 345.03515625 635.90234375 345.03515625 c 4
 634.0859375 345.03515625 621.638671875 354.323242188 608.243164062 365.673828125 c 4
 573.53515625 395.080078125 516.794921875 401.612304688 504.515625 377.616210938 c 4
 501.9609375 372.623046875 501.874023438 337.984375 504.321289062 300.642578125 c 4
 507.064453125 258.778320312 506.729492188 223.23828125 503.4453125 207.94921875 c 4
 500.514648438 194.311523438 499.920898438 170.810546875 502.125976562 155.720703125 c 4
 504.331054688 140.633789062 505.751953125 102.4375 505.283203125 70.837890625 c 4
 502.690429688 -103.869140625 503.0546875 -109.302734375 519.9921875 -148.182617188 c 4
 528.671875 -168.106445312 534.745117188 -185.39453125 533.491210938 -186.602539062 c 4
 532.236328125 -187.810546875 512.138671875 -186.390625 488.829101562 -183.44921875 c 4
 462.513671875 -180.126953125 429.995117188 -179.80859375 403.040039062 -182.612304688 c 5
EndSplineSet
Validated: 524321
EndChar

StartChar: u
Encoding: 117 117 46
Width: 1000
Flags: W
HStem: -167.473 103.684<494.146 594.88>
VStem: 310.671 119.369<-51.8653 476.54> 546.734 109.507<-33.0208 510.477>
LayerCount: 2
Fore
SplineSet
566.043945312 -174.513671875 m 4
 541.124023438 -188.336914062 475.66015625 -187.333007812 459.653320312 -172.881835938 c 4
 454.471679688 -168.206054688 450.466796875 -168.162109375 442.670898438 -172.700195312 c 4
 426.669921875 -182.015625 395.498046875 -180.265625 371.47265625 -168.70703125 c 4
 345.408203125 -156.166015625 323.734375 -126.345703125 313.5390625 -88.9990234375 c 4
 306.071289062 -61.646484375 304.505859375 35.5732421875 310.670898438 89.1748046875 c 4
 312.509765625 105.16796875 312.25390625 123.431640625 310.100585938 129.762695312 c 4
 307.948242188 136.091796875 306.106445312 200.098632812 306 272 c 4
 305.810546875 404.723632812 303.534179688 430.288085938 287.125976562 483.909179688 c 4
 282.0703125 500.432617188 278.55078125 514.51171875 279.3046875 515.197265625 c 4
 280.059570312 515.8828125 319.049804688 515.291992188 365.950195312 513.884765625 c 6
 451.223632812 511.327148438 l 5
 441.170898438 492.825195312 l 6
 431.451171875 474.936523438 431.161132812 469.59375 432.482421875 332.411132812 c 4
 433.34375 243.044921875 432.158203125 190.500976562 429.28515625 190.500976562 c 4
 426.529296875 190.500976562 426.206054688 184.8671875 428.469726562 176.284179688 c 4
 430.53125 168.465820312 431.237304688 124.165039062 430.040039062 77.841796875 c 4
 426.879882812 -44.3232421875 432.958984375 -57.75390625 494.146484375 -63.7890625 c 4
 517.551757812 -66.0966796875 522.577148438 -64.8974609375 533.86328125 -54.306640625 c 4
 549.422851562 -39.7041015625 548.978515625 -49.916015625 546.734375 241.620117188 c 4
 545.231445312 436.731445312 543.34375 465.345703125 529.388671875 504.540039062 c 4
 526.118164062 513.723632812 527.841796875 514.13671875 558.435546875 511.510742188 c 4
 576.323242188 509.974609375 602.594726562 510.440429688 616.815429688 512.547851562 c 4
 631.037109375 514.653320312 650.673828125 515.231445312 660.452148438 513.831054688 c 4
 676.825195312 511.486328125 677.661132812 510.599609375 671.016601562 502.612304688 c 4
 661.7734375 491.501953125 654.856445312 449.014648438 654.340820312 400.169921875 c 4
 654.1171875 379.07421875 654.97265625 275.518554688 656.241210938 170.045898438 c 4
 658.278320312 0.7255859375 655.958984375 -72.1513671875 647.162109375 -115.18359375 c 4
 645.854492188 -121.583007812 637.1875 -135.965820312 627.90234375 -147.14453125 c 4
 614.463867188 -163.325195312 607.7265625 -167.47265625 594.879882812 -167.47265625 c 4
 586.001953125 -167.47265625 573.026367188 -170.640625 566.043945312 -174.513671875 c 4
EndSplineSet
Validated: 524321
EndChar

StartChar: v
Encoding: 118 118 47
Width: 1000
Flags: W
HStem: 475.046 20G<542.195 568.881>
LayerCount: 2
Fore
SplineSet
462.302734375 -168.213867188 m 5
 462.302734375 -168.215820312 l 5
 439.862304688 -172.00390625 415.25390625 -175.116210938 407.620117188 -175.137695312 c 6
 393.739257812 -175.169921875 l 5
 400.53515625 -159.85546875 l 6
 407.829101562 -143.420898438 406.080078125 -94.970703125 397.546875 -77.046875 c 4
 395.147460938 -72.0078125 392.416015625 -56.830078125 391.477539062 -43.3193359375 c 4
 390.538085938 -29.8095703125 386.575195312 -13.6279296875 382.670898438 -7.361328125 c 4
 378.766601562 -1.095703125 375.572265625 12.220703125 375.572265625 22.2294921875 c 4
 375.572265625 42.0703125 369.689453125 78.861328125 360.354492188 117.393554688 c 4
 346.466796875 174.721679688 344.953125 183.740234375 344.953125 209.173828125 c 4
 344.953125 223.870117188 343.109375 237.995117188 340.854492188 240.565429688 c 4
 338.600585938 243.133789062 332.692382812 267.362304688 327.724609375 294.40625 c 4
 322.7578125 321.450195312 315.671875 359.065429688 311.978515625 377.99609375 c 4
 308.286132812 396.92578125 303.345703125 423.478515625 301 437 c 4
 298.655273438 450.522460938 292.822265625 467.581054688 288.0390625 474.908203125 c 4
 283.254882812 482.235351562 279.340820312 489.360351562 279.340820312 490.7421875 c 4
 279.340820312 492.124023438 314.774414062 492.935546875 358.081054688 492.545898438 c 4
 436.693359375 491.83984375 436.811523438 491.822265625 430.94140625 481.62890625 c 4
 418.92578125 460.764648438 418.498046875 411.495117188 429.807617188 350.999023438 c 4
 442.064453125 285.430664062 448.51171875 245.377929688 452.372070312 210.817382812 c 4
 453.8828125 197.294921875 460.114257812 158.573242188 466.22265625 124.768554688 c 4
 472.330078125 90.9638671875 478.267578125 56.1142578125 479.41796875 47.3251953125 c 4
 481.784179688 29.2421875 489.279296875 25.509765625 489.310546875 42.408203125 c 4
 489.317382812 48.4931640625 494.067382812 73.3857421875 499.868164062 97.7255859375 c 4
 505.668945312 122.063476562 512.556640625 157.466796875 515.174804688 176.397460938 c 4
 517.791992188 195.328125 521.866210938 221.879882812 524.227539062 235.401367188 c 4
 526.587890625 248.923828125 531.4921875 280.715820312 535.125976562 306.05078125 c 4
 538.758789062 331.38671875 543.751953125 360.553710938 546.22265625 370.866210938 c 4
 548.692382812 381.1796875 550.96875 405.068359375 551.278320312 423.952148438 c 4
 551.7265625 451.2890625 549.875976562 462.034179688 542.1953125 476.666992188 c 6
 532.548828125 495.045898438 l 5
 568.880859375 491.866210938 l 6
 588.864257812 490.118164062 621.42578125 488.674804688 641.239257812 488.659179688 c 6
 677.264648438 488.62890625 l 5
 669.240234375 462.814453125 l 6
 664.827148438 448.616210938 658.866210938 427.041992188 655.994140625 414.873046875 c 4
 653.123046875 402.704101562 647.831054688 381.682617188 644.236328125 368.161132812 c 4
 636.524414062 339.162109375 621.615234375 249.7578125 616.356445312 200.982421875 c 4
 614.315429688 182.051757812 610.502929688 159.924804688 607.884765625 151.811523438 c 4
 601.375976562 131.646484375 589.90625 61.9501953125 589.90625 42.5595703125 c 4
 589.905273438 33.8544921875 585.137695312 10.314453125 579.310546875 -9.751953125 c 4
 573.483398438 -29.8173828125 567.447265625 -56.9912109375 565.896484375 -70.1376953125 c 4
 564.344726562 -83.283203125 561.078125 -105.76953125 558.63671875 -120.10546875 c 4
 554.96484375 -141.673828125 555.41015625 -148.249023438 561.216796875 -158.211914062 c 6
 568.236328125 -170.25390625 l 5
 549.516601562 -170.25390625 l 6
 539.219726562 -170.25390625 524.565429688 -168.245117188 516.951171875 -165.790039062 c 4
 507.78125 -162.833984375 489.326171875 -163.65234375 462.302734375 -168.213867188 c 5
EndSplineSet
Validated: 524321
EndChar

StartChar: w
Encoding: 119 119 48
Width: 1000
Flags: W
HStem: 496.54 20G<282.751 388.688 488.234 497.541 564.215 585.039>
VStem: 326.842 166.967<-138.532 60.0624>
LayerCount: 2
Fore
SplineSet
869.799804688 -140.38671875 m 1028
493.80859375 -142.203125 m 6
 493.807617188 -142.203125 l 5
 489.491210938 -146.520507812 443.8515625 -145.424804688 428.467773438 -140.63671875 c 4
 421.725585938 -138.536132812 395.422851562 -138.01171875 370.01953125 -139.466796875 c 4
 329.053710938 -141.814453125 324.171875 -141.228515625 326.841796875 -134.272460938 c 4
 337.84375 -105.6015625 340.336914062 -84.5322265625 335.83203125 -58.26953125 c 4
 333.18359375 -42.830078125 328.463867188 -13.6494140625 325.34375 6.5771484375 c 4
 322.223632812 26.8046875 316.311523438 59.90234375 312.20703125 80.1298828125 c 4
 308.1015625 100.357421875 301.946289062 134.55859375 298.52734375 156.133789062 c 4
 295.108398438 177.709960938 289.858398438 204.188476562 286.860351562 214.977539062 c 4
 279.79296875 240.420898438 279.865234375 261.559570312 287.021484375 261.559570312 c 4
 290.563476562 261.559570312 289.836914062 264.7734375 285.079101562 270.141601562 c 4
 280.567382812 275.23046875 275.059570312 297.673828125 271.540039062 325.3046875 c 4
 264.171875 383.172851562 243.79296875 468.87109375 231.6484375 493.053710938 c 4
 226.624023438 503.060546875 222.513671875 512.438476562 222.513671875 513.893554688 c 4
 222.513671875 515.348632812 259.90234375 516.540039062 305.600585938 516.540039062 c 6
 388.6875 516.540039062 l 5
 378.568359375 493.666015625 l 6
 367.982421875 469.736328125 367.958984375 471.298828125 380.075195312 391.501953125 c 4
 382.530273438 375.3203125 386.625 343.587890625 389.173828125 320.985351562 c 4
 391.720703125 298.381835938 395.848632812 273.005859375 398.345703125 264.594726562 c 4
 400.84375 256.182617188 405.41015625 232.750976562 408.4921875 212.5234375 c 4
 419.372070312 141.16796875 424.711914062 114.455078125 428.09765625 114.455078125 c 4
 431.47265625 114.455078125 443.321289062 174.651367188 463.0859375 292.206054688 c 4
 468.640625 325.243164062 477.42578125 368.0859375 482.609375 387.409179688 c 4
 497.427734375 442.655273438 499.64453125 472.918945312 490.211914062 491.157226562 c 4
 482.216796875 506.619140625 482.24609375 506.733398438 494.22265625 506.733398438 c 4
 500.859375 506.733398438 512.30859375 504.4453125 519.666015625 501.6484375 c 4
 528.903320312 498.13671875 534.616210938 498.13671875 538.12890625 501.6484375 c 4
 540.926757812 504.4453125 556.249023438 506.733398438 572.180664062 506.733398438 c 4
 597.896484375 506.733398438 600.735351562 505.772460938 597.4765625 498.153320312 c 4
 589.688476562 479.943359375 589.501953125 461.653320312 596.748046875 427.2265625 c 4
 609.571289062 366.32421875 616.1171875 324.978515625 613.37109375 322.232421875 c 4
 611.923828125 320.78515625 613.861328125 312.129882812 617.677734375 302.997070312 c 4
 621.494140625 293.86328125 624.5703125 279.149414062 624.512695312 270.297851562 c 4
 624.3828125 249.821289062 654.5078125 119.358398438 659.366210938 119.358398438 c 4
 661.369140625 119.358398438 664.359375 136.458984375 666.01171875 157.360351562 c 4
 667.663085938 178.26171875 672.259765625 207.998046875 676.225585938 223.442382812 c 4
 680.192382812 238.885742188 684.71875 266.467773438 686.286132812 284.735351562 c 4
 687.852539062 303.00390625 694.475585938 340.015625 701.002929688 366.984375 c 4
 716.954101562 432.888671875 716.793945312 469.280273438 700.446289062 493.336914062 c 4
 688.999023438 510.180664062 688.864257812 513.994140625 699.77734375 512.090820312 c 4
 716.1796875 509.233398438 801.879882812 512.263671875 815.084960938 516.170898438 c 4
 824.098632812 518.837890625 837.458984375 519.822265625 844.774414062 518.357421875 c 6
 858.076171875 515.698242188 l 5
 847.118164062 492.827148438 l 6
 840.18359375 478.353515625 831.48046875 440.255859375 823.411132812 389.049804688 c 4
 816.400390625 344.55078125 807.469726562 292.696289062 803.56640625 273.817382812 c 4
 799.6640625 254.939453125 795.455078125 227.357421875 794.21484375 212.5234375 c 4
 789.6953125 158.498046875 764.377929688 8.529296875 756.317382812 -11.953125 c 4
 745.767578125 -38.765625 742.321289062 -94.8935546875 749.716796875 -119.466796875 c 4
 753.534179688 -132.145507812 755.579101562 -143.596679688 754.265625 -144.912109375 c 4
 752.94921875 -146.2265625 735.928710938 -144.64453125 716.44140625 -141.397460938 c 4
 691.08203125 -137.169921875 670.552734375 -136.860351562 644.23046875 -140.30859375 c 4
 583.94140625 -148.208007812 585.442382812 -148.599609375 592.90234375 -126.944335938 c 4
 599.7421875 -107.09375 594.208007812 -66.751953125 570.881835938 33.546875 c 4
 565.237304688 57.8193359375 557.20703125 96.3603515625 553.037109375 119.194335938 c 4
 541.935546875 179.983398438 538.805664062 181.227539062 529.305664062 128.641601562 c 4
 524.728515625 103.30859375 513.548828125 49.484375 504.459960938 9.029296875 c 4
 486.265625 -71.9619140625 481.6484375 -120.439453125 491.05078125 -131.766601562 c 4
 494.341796875 -135.733398438 495.583007812 -140.4296875 493.80859375 -142.203125 c 6
EndSplineSet
Validated: 524321
EndChar

StartChar: x
Encoding: 120 120 49
Width: 1000
Flags: W
HStem: 414.181 20G<542.411 632.362>
LayerCount: 2
Fore
SplineSet
384.629882812 -173.486328125 m 4
 379.7578125 -174.950195312 375.33984375 -175.979492188 374.814453125 -175.776367188 c 4
 374.288085938 -175.571289062 358.495117188 -172.444335938 339.71875 -168.827148438 c 4
 312.9453125 -163.66796875 298.93359375 -163.267578125 274.76171875 -166.97265625 c 4
 235.62109375 -172.970703125 200.323242188 -173.038085938 200.323242188 -167.115234375 c 4
 200.323242188 -164.59765625 215.83984375 -143.266601562 234.8046875 -119.712890625 c 4
 278.40625 -65.5595703125 299.297851562 -33.185546875 311.049804688 -1.552734375 c 4
 316.157226562 12.1923828125 324.086914062 25.875 328.670898438 28.8515625 c 4
 338.828125 35.4462890625 355.109375 63.169921875 377.828125 112.553710938 c 6
 394.930664062 149.7265625 l 5
 377.952148438 179.330078125 l 6
 368.614257812 195.612304688 351.536132812 226.963867188 340 249 c 4
 306.293945312 313.38671875 274.537109375 371.5703125 256.779296875 401.473632812 c 4
 239.418945312 430.706054688 240.150390625 432.467773438 268.598632812 429.942382812 c 4
 273.29296875 429.526367188 312.48046875 429.28515625 355.681640625 429.41015625 c 4
 432.139648438 429.62890625 434.069335938 429.401367188 428.224609375 420.854492188 c 4
 424.921875 416.026367188 422.219726562 405.140625 422.219726562 396.663085938 c 4
 422.219726562 383.120117188 430.260742188 367.084960938 473.262695312 294.88671875 c 6
 483.052734375 278.450195312 l 5
 504.24609375 308.243164062 l 6
 515.90234375 324.62890625 532.146484375 353.5546875 540.34375 372.5234375 c 6
 555.247070312 407.010742188 l 5
 542.411132812 420.594726562 l 5
 529.575195312 434.180664062 l 5
 632.362304688 433.44140625 l 6
 688.895507812 433.03515625 735.149414062 431.723632812 735.149414062 430.52734375 c 4
 735.149414062 429.331054688 727.890625 421.052734375 719.01953125 412.130859375 c 4
 702.109375 395.124023438 690.171875 377.435546875 619.447265625 264.581054688 c 4
 562.431640625 173.603515625 560.276367188 167.176757812 575.168945312 132.584960938 c 4
 581.614257812 117.615234375 601.043945312 82.796875 618.346679688 55.212890625 c 4
 635.6484375 27.6279296875 649.8046875 2.060546875 649.8046875 -1.60546875 c 4
 649.8046875 -5.2705078125 658.765625 -22.84765625 669.71875 -40.6640625 c 4
 680.671875 -58.4814453125 689.6328125 -75.2763671875 689.6328125 -77.986328125 c 4
 689.6328125 -84.060546875 720.233398438 -131.873046875 739.040039062 -155.18359375 c 6
 752.922851562 -172.390625 l 5
 705.630859375 -169.96484375 l 6
 679.62109375 -168.631835938 653.21875 -167.234375 646.959960938 -166.860351562 c 4
 640.701171875 -166.486328125 614.465820312 -167.717773438 588.657226562 -169.595703125 c 6
 541.733398438 -173.012695312 l 5
 550.68359375 -158.974609375 l 6
 561.291015625 -142.338867188 561.302734375 -142.374023438 512.432617188 -44.818359375 c 4
 471.727539062 36.4375 470.896484375 37.603515625 460.134765625 28.6357421875 c 4
 455.727539062 24.9638671875 447.64453125 11.94140625 442.171875 -0.30078125 c 4
 436.700195312 -12.54296875 427.686523438 -32.7333984375 422.143554688 -45.1689453125 c 4
 416.600585938 -57.603515625 406.577148438 -76.1962890625 399.869140625 -86.4833984375 c 4
 381.83984375 -114.135742188 375.908203125 -144.224609375 385.596679688 -158.884765625 c 4
 392.494140625 -169.321289062 392.372070312 -171.161132812 384.629882812 -173.486328125 c 4
EndSplineSet
Validated: 524321
EndChar

StartChar: y
Encoding: 121 121 50
Width: 1000
Flags: W
LayerCount: 2
Fore
SplineSet
506.364257812 -185.618164062 m 4
 462.497070312 -185.458007812 412.6484375 -186.947265625 395.590820312 -188.928710938 c 4
 370.249023438 -191.87109375 365.208007812 -191.190429688 368.029296875 -185.20703125 c 4
 402.19140625 -112.763671875 400.538085938 -121.393554688 400.580078125 -14.87890625 c 4
 400.619140625 93.70703125 392.129882812 158.643554688 372.666015625 198.655273438 c 4
 366.1796875 211.985351562 356.705078125 237.822265625 351.610351562 256.0703125 c 4
 346.515625 274.31640625 335.068359375 302.451171875 326.171875 318.58984375 c 4
 317.275390625 334.73046875 301.8984375 366.864257812 292 390 c 4
 266.598632812 449.370117188 256.525390625 470.776367188 241.78125 496.705078125 c 4
 234.689453125 509.177734375 228.89453125 519.849609375 228.916015625 520.418945312 c 4
 228.947265625 521.48828125 353.702148438 520.873046875 402.57421875 519.564453125 c 4
 429.846679688 518.833984375 430.032226562 518.7109375 421.19921875 507.139648438 c 4
 416.29296875 500.711914062 412.278320312 485.396484375 412.278320312 473.10546875 c 4
 412.278320312 451.971679688 440.956054688 365.44140625 465.0859375 313.767578125 c 6
 476.129882812 290.116210938 l 5
 489.999023438 316.397460938 l 6
 497.626953125 330.850585938 503.892578125 345.5 503.920898438 348.94921875 c 4
 503.950195312 352.401367188 511.709960938 376.411132812 521.166992188 402.307617188 c 4
 539.94921875 453.747070312 543.029296875 490.118164062 529.9453125 505.990234375 c 4
 515.954101562 522.962890625 519.645507812 525.147460938 556.984375 521.989257812 c 4
 576.685546875 520.323242188 623.106445312 519.140625 660.142578125 519.360351562 c 4
 697.178710938 519.580078125 727.482421875 518.330078125 727.482421875 516.583007812 c 4
 727.482421875 514.8359375 718.3125 500.735351562 707.106445312 485.249023438 c 4
 695.8984375 469.762695312 680.666992188 440.814453125 673.2578125 420.916992188 c 4
 665.846679688 401.020507812 650.239257812 364.629882812 638.57421875 340.047851562 c 4
 626.908203125 315.466796875 607.471679688 264.59375 595.383789062 226.997070312 c 4
 583.294921875 189.400390625 569.231445312 147.9921875 564.133789062 134.978515625 c 4
 552.529296875 105.357421875 541.203125 -97.37890625 550.283203125 -112.946289062 c 4
 553.471679688 -118.416015625 554.568359375 -125.137695312 552.717773438 -127.884765625 c 4
 548.986328125 -133.423828125 563.486328125 -162.23046875 577.258789062 -176.638671875 c 4
 585.673828125 -185.443359375 582.096679688 -185.896484375 506.364257812 -185.618164062 c 4
EndSplineSet
Validated: 524321
EndChar

StartChar: z
Encoding: 122 122 51
Width: 1000
Flags: W
HStem: -168.439 91.6787<472.271 634.728> 267.163 104.55<332.234 520.664> 358 20G<310.268 330.51>
LayerCount: 2
Fore
SplineSet
364.611328125 -162.177734375 m 5xc0
 346.271484375 -166.850585938 257.865234375 -171.8125 252.936523438 -168.446289062 c 4
 250.772460938 -166.96875 259.946289062 -154.754882812 273.323242188 -141.302734375 c 4
 295.721679688 -118.779296875 313.150390625 -90.626953125 342.788085938 -29.0986328125 c 4
 349.037109375 -16.125 359.36328125 0.9814453125 365.733398438 8.9169921875 c 4
 372.103515625 16.8515625 384.063476562 35.7919921875 392.310546875 51.0078125 c 4
 400.556640625 66.22265625 415.0703125 88.7314453125 424.5625 101.02734375 c 4
 434.053710938 113.323242188 441.823242188 126.489257812 441.83203125 130.283203125 c 4
 441.848632812 139.415039062 469.765625 186.91015625 500.732421875 230.48828125 c 4
 514.440429688 249.780273438 524.59765625 266.283203125 523.303710938 267.163085938 c 4xc0
 521.05078125 268.693359375 423.456054688 270.568359375 385.59765625 269.80859375 c 4
 372.096679688 269.537109375 360.450195312 264.6015625 340.184570312 250.565429688 c 4
 323.803710938 239.21875 312.706054688 234.029296875 312.366210938 237.560546875 c 4
 312.055664062 240.790039062 311.396484375 273.7109375 310.900390625 310.716796875 c 6
 310 378 l 5xa0
 330.509765625 375.157226562 l 6
 341.7890625 373.592773438 416.024414062 372.043945312 495.4765625 371.712890625 c 4
 609.139648438 371.239257812 642.025390625 369.92578125 649.7421875 365.552734375 c 4
 657.567382812 361.118164062 660.477539062 361.01953125 664.140625 365.068359375 c 4
 670.254882812 371.822265625 740.693359375 376.341796875 740.693359375 369.979492188 c 4
 740.693359375 367.439453125 733.026367188 355.934570312 723.65625 344.413085938 c 4
 708.709960938 326.037109375 652.796875 233.65625 652.796875 227.33984375 c 4
 652.796875 226.040039062 644.88671875 214.088867188 635.217773438 200.78125 c 4
 625.548828125 187.473632812 617.637695312 174.014648438 617.637695312 170.872070312 c 4
 617.637695312 165.74609375 601.008789062 136.060546875 579.828125 103.376953125 c 4
 575.548828125 96.7744140625 556.9375 64.361328125 538.46875 31.34765625 c 4
 519.999023438 -1.666015625 497.295898438 -38.9794921875 488.015625 -51.572265625 c 4
 478.736328125 -64.1640625 471.143554688 -75.2265625 471.143554688 -76.154296875 c 4
 471.143554688 -77.0810546875 496.853515625 -77.3544921875 528.276367188 -76.7607421875 c 4
 559.700195312 -76.166015625 590.787109375 -77.0703125 597.359375 -78.76953125 c 4
 604.46484375 -80.6064453125 621.754882812 -79.2509765625 640.017578125 -75.423828125 c 4
 665.19140625 -70.1484375 675.7109375 -64.8525390625 698.384765625 -46.0419921875 c 4
 713.596679688 -33.419921875 727.489257812 -22.9990234375 729.256835938 -22.8837890625 c 4
 731.024414062 -22.7685546875 730.193359375 -38.4306640625 727.412109375 -57.6884765625 c 4
 724.629882812 -76.9462890625 723.18359375 -109.317382812 724.19921875 -129.625976562 c 6
 726.043945312 -166.547851562 l 5
 702.115234375 -168.99609375 l 6
 688.954101562 -170.341796875 658.630859375 -170.400390625 634.727539062 -169.126953125 c 4
 583.372070312 -166.390625 585.241210938 -166.3984375 478.375976562 -168.439453125 c 4
 411.771484375 -169.711914062 393.09765625 -168.885742188 386.493164062 -164.375976562 c 4
 380.6953125 -160.416015625 374.120117188 -159.755859375 364.611328125 -162.177734375 c 5xc0
EndSplineSet
Validated: 524321
EndChar

StartChar: zero
Encoding: 48 48 52
Width: 1000
HStem: -148.347 142.657<515.077 604.536>
VStem: 252.178 190.349<29.5859 466.712> 612.786 197.805<10.2753 424.72>
LayerCount: 2
Fore
SplineSet
514.487304688 -157.235351562 m 1
 514.487304688 -157.236328125 l 1
 487.09765625 -165.506835938 471.541992188 -165.478515625 457.017578125 -157.129882812 c 0
 450.780273438 -153.543945312 435.009765625 -150.561523438 421.971679688 -150.5078125 c 0
 349.228515625 -150.19140625 277.40625 -105.592773438 260.68359375 -50.353515625 c 0
 256.215820312 -35.5947265625 252.38671875 36.4541015625 252.177734375 109.755859375 c 0
 251.612304688 306.2578125 252.548828125 333.70703125 261.119140625 372.171875 c 0
 266.606445312 396.80078125 266.49609375 411.17578125 260.74609375 420.732421875 c 0
 251.975585938 435.310546875 248.87109375 604.540039062 256.967773438 626.6953125 c 0
 272.192382812 668.3515625 302.540039062 712.381835938 320.307617188 718.591796875 c 0
 331.041015625 722.34375 349.833007812 730.126953125 362.068359375 735.88671875 c 0
 389.517578125 748.810546875 566.795898438 753.643554688 656.725585938 743.919921875 c 0
 721.197265625 736.94921875 751.229492188 722.575195312 735.822265625 706.063476562 c 0
 729.138671875 698.899414062 731.12890625 696.91796875 745.299804688 696.623046875 c 0
 767.850585938 696.15625 793.200195312 668.138671875 804.326171875 631.385742188 c 0
 813.916992188 599.70703125 817.221679688 300.814453125 810.590820312 64.8076171875 c 0
 806.9296875 -65.509765625 791.421875 -101.78125 726.609375 -131.616210938 c 0
 701.671875 -143.094726562 678.810546875 -146.545898438 615.798828125 -148.346679688 c 0
 572.134765625 -149.594726562 526.543945312 -153.594726562 514.487304688 -157.235351562 c 1
464.791992188 9.7822265625 m 2
 485.1484375 -8.326171875 490.141601562 -9.6513671875 523.07421875 -5.689453125 c 0
 581.233398438 1.306640625 607.0703125 10.5927734375 612.786132812 26.552734375 c 0
 619.81640625 46.185546875 621.51171875 499.01171875 614.663085938 528.23828125 c 0
 606.1875 564.409179688 577.546875 585.193359375 534.50390625 586.408203125 c 0
 489.606445312 587.67578125 468.149414062 580.987304688 456.846679688 562.204101562 c 0
 450.842773438 552.224609375 447.254882812 467.017578125 445.327148438 288.6484375 c 2
 442.526367188 29.5859375 l 1
 464.791992188 9.7822265625 l 2
EndSplineSet
Validated: 524321
EndChar

StartChar: one
Encoding: 49 49 53
Width: 1000
HStem: 502.64 95.1514<298.541 353.512>
VStem: 423.788 191.772<-79.1445 510.499>
LayerCount: 2
Fore
SplineSet
470.334960938 -139.58984375 m 0
 450.3515625 -146.34765625 384.950195312 -148.147460938 384.950195312 -141.938476562 c 0
 384.950195312 -139.823242188 393.688476562 -124.829101562 404.369140625 -108.618164062 c 2
 423.788085938 -79.14453125 l 1
 420.486328125 212.926757812 l 2
 418.669921875 373.565429688 414.646484375 508.651367188 411.54296875 513.1171875 c 0
 404.8984375 522.680664062 362.336914062 517.159179688 330.76953125 502.639648438 c 0
 297.374023438 487.278320312 294.217773438 490.151367188 294.217773438 535.927734375 c 0
 294.217773438 578.428710938 294.435546875 578.862304688 325.143554688 597.791015625 c 0
 369.620117188 625.208007812 453.243164062 707.748046875 458.0078125 728.934570312 c 0
 461.614257812 744.974609375 466.387695312 747.440429688 501.0078125 751.139648438 c 0
 522.42578125 753.428710938 561.579101562 755.325195312 588.015625 755.360351562 c 0
 630.846679688 755.412109375 635.485351562 754.135742188 630.620117188 743.649414062 c 0
 617.111328125 714.53515625 615.560546875 668.930664062 615.560546875 300.950195312 c 2
 615.560546875 -89.6279296875 l 1
 637.116210938 -114.78515625 l 2
 648.97265625 -128.622070312 656.579101562 -141.805664062 654.020507812 -144.081054688 c 0
 651.461914062 -146.357421875 613.208007812 -144.883789062 569.012695312 -140.806640625 c 0
 518.752929688 -136.169921875 481.793945312 -135.713867188 470.334960938 -139.58984375 c 0
EndSplineSet
Validated: 524321
EndChar

StartChar: two
Encoding: 50 50 54
Width: 1000
HStem: -144.936 21G<677.003 797.957> -142.624 146.174<467.436 713.76> 416.038 47.501G<290.752 309.919 404.003 430.666> 416.038 21G<290.752 309.919>
VStem: 290.519 140.482<455.008 576.401> 765.742 43.2324<34.1906 92.6928>
LayerCount: 2
Fore
SplineSet
375.833984375 -147.310546875 m 1x4c
 375.831054688 -147.310546875 l 2
 368.124023438 -150.98046875 330.125976562 -155.703125 291.393554688 -157.805664062 c 0
 226.434570312 -161.333007812 221.4140625 -160.721679688 226.693359375 -149.919921875 c 0
 248.015625 -106.293945312 260.149414062 -62.1611328125 266.892578125 -3.7021484375 c 0
 282.396484375 130.705078125 287.962890625 146.6015625 339.731445312 204.358398438 c 0
 366.715820312 234.463867188 408.806640625 273.12109375 493.969726562 346.018554688 c 0
 554.698242188 398 603.794921875 451.891601562 596.408203125 458.461914062 c 0
 594.438476562 460.213867188 597.975585938 472.608398438 604.267578125 486.00390625 c 0
 620.249023438 520.025390625 619.05078125 559.818359375 601.623046875 573.84765625 c 0
 584.998046875 587.23046875 522.541015625 595.109375 484.025390625 588.682617188 c 0
 443.703125 581.954101562 431.649414062 560.92578125 431.000976562 496.184570312 c 2
 430.466796875 442.5390625 l 1
 404.002929688 446.01953125 l 2
 389.448242188 447.934570312 367.0390625 451.456054688 354.20703125 453.845703125 c 0
 334.326171875 457.547851562 327.92578125 455.073242188 310.9375 437.114257812 c 2
 290.999023438 416.038085938 l 1
 290.518554688 455.0078125 l 2
 290.25390625 476.44140625 289.7578125 549.965820312 289.416992188 618.397460938 c 2
 288.796875 742.817382812 l 1
 310.485351562 741.236328125 l 2
 342.42578125 738.909179688 385.75 738.713867188 528.759765625 740.250976562 c 0
 717.16796875 742.276367188 740.607421875 736.995117188 784.353515625 682.663085938 c 0
 812.932617188 647.168945312 814.93359375 564.93359375 790.255859375 440.173828125 c 0
 780.190429688 389.291015625 768.065429688 362.8671875 756.581054688 366.787109375 c 0
 751.203125 368.623046875 743.5078125 357.05859375 737.260742188 337.751953125 c 0
 729.611328125 314.109375 714.740234375 294.708007812 680.74609375 264.024414062 c 0
 483.75 86.2021484375 489.462890625 92.1025390625 475.3359375 51.8642578125 c 0
 467.884765625 30.6396484375 464.252929688 11.08203125 467.264648438 8.4033203125 c 0
 470.276367188 5.7236328125 514.265625 3.5498046875 565.01953125 3.5498046875 c 0x6c
 638.317382812 3.5634765625 663.517578125 6.0966796875 687.541015625 15.8662109375 c 0
 704.174804688 22.6298828125 727.9921875 30.185546875 740.467773438 32.65625 c 0
 756.765625 35.8837890625 763.879882812 41.671875 765.7421875 53.2197265625 c 0
 769.264648438 75.0673828125 788.938476562 100.541015625 802.2890625 100.541015625 c 0
 810.780273438 100.541015625 812.274414062 94.15234375 808.974609375 71.9580078125 c 0
 806.63671875 56.2373046875 803.021484375 1.005859375 800.938476562 -50.7802734375 c 2
 797.153320312 -144.935546875 l 1x8c
 677.002929688 -142.624023438 l 2
 572.887695312 -140.62109375 554.18359375 -141.869140625 536.84765625 -151.973632812 c 0
 520.41796875 -161.548828125 507.193359375 -162.834960938 462.875 -159.171875 c 0
 433.194335938 -156.717773438 404.620117188 -151.543945312 399.37890625 -147.674804688 c 0
 392.982421875 -142.954101562 385.239257812 -142.833984375 375.833984375 -147.310546875 c 1x4c
EndSplineSet
Validated: 524321
EndChar

StartChar: three
Encoding: 51 51 55
Width: 1000
HStem: -145.607 150.359<436.627 596.555> 222.784 154.755<438.736 569.191> 233.999 144.578<438.736 570.686> 596.115 147.517<437.915 582.495>
VStem: 246.542 184.537<12.5923 125.718> 260.9 170.179<491.224 588.725> 607.915 184.425<17.4514 213.605>
LayerCount: 2
Fore
SplineSet
676.811523438 -132.411132812 m 0xb6
 650.962890625 -139.436523438 594.572265625 -143.610351562 498.5078125 -145.607421875 c 2
 358.009765625 -148.529296875 l 1
 317.711914062 -127.484375 l 2
 253.682617188 -94.0439453125 247.392578125 -77.634765625 246.541992188 58.1982421875 c 0xba
 246.080078125 131.85546875 248.46484375 169.729492188 253.395507812 167.098632812 c 0
 257.553710938 164.879882812 274.2265625 154.576171875 290.4453125 144.201171875 c 0
 325.235351562 121.944335938 354.00390625 120.4609375 398.9453125 138.606445312 c 2
 431.079101562 151.581054688 l 1
 432.266601562 106.513671875 l 2
 434.616210938 17.380859375 434.927734375 15.7265625 450.356445312 10.357421875 c 0
 458.466796875 7.5341796875 489.93359375 5.0126953125 520.282226562 4.751953125 c 0
 570.571289062 4.3212890625 577.1015625 5.85546875 593.990234375 22.064453125 c 0
 612.014648438 39.36328125 612.393554688 41.8837890625 607.915039062 114.538085938 c 0
 602.264648438 206.21484375 591.642578125 227.353515625 547.888671875 233.999023438 c 0xb6
 520.827148438 238.109375 494.208984375 235.084960938 449.1953125 222.784179688 c 0
 433.544921875 218.5078125 433.331054688 219.725585938 436.01171875 297.98828125 c 2
 438.736328125 377.5390625 l 1xd6
 484.520507812 378.577148438 l 2
 548.703125 380.030273438 571.0234375 389.873046875 586.51171875 423.55078125 c 0
 599.669921875 452.162109375 604.059570312 533.288085938 593.978515625 561.541992188 c 0
 586.254882812 583.186523438 551.087890625 596.115234375 499.932617188 596.115234375 c 0
 443.235351562 596.115234375 431.079101562 584.12890625 431.079101562 528.23046875 c 2
 431.079101562 490.241210938 l 1
 391.967773438 485.625976562 l 2
 364.133789062 482.341796875 340.600585938 473.365234375 310.358398438 454.49609375 c 0
 286.985351562 439.912109375 266.306640625 427.982421875 264.409179688 428.002929688 c 0
 259.120117188 428.038085938 256.118164062 609.3125 260.900390625 639.884765625 c 0
 264.000976562 659.717773438 274.602539062 676.021484375 301.014648438 701.575195312 c 2
 336.916015625 736.309570312 l 1
 425.375 743.631835938 l 2
 516.875 751.206054688 632.045898438 747.879882812 683.852539062 736.16796875 c 0
 727.80078125 726.232421875 759.96484375 700.998046875 779.102539062 661.439453125 c 0
 794.641601562 629.3203125 795.5859375 620.456054688 790.361328125 555.762695312 c 0
 787.224609375 516.922851562 785.243164062 469.456054688 785.958984375 450.278320312 c 0
 787.45703125 410.091796875 770.241210938 374.78125 734.374023438 344.473632812 c 2
 711.16015625 324.858398438 l 1
 753.520507812 290.615234375 l 2
 802.0625 251.376953125 797.749023438 275.412109375 792.33984375 74.3212890625 c 0
 789.51171875 -30.8359375 787.686523438 -43.3876953125 770.8359375 -73.615234375 c 0
 751.646484375 -108.037109375 740.23046875 -115.17578125 676.811523438 -132.411132812 c 0xb6
EndSplineSet
Validated: 524321
EndChar

StartChar: four
Encoding: 52 52 56
Width: 1000
LayerCount: 2
Fore
SplineSet
593.760742188 -155.4609375 m 2
 593.759765625 -155.461914062 l 2
 581.959960938 -159.452148438 544.006835938 -163.948242188 509.418945312 -165.453125 c 2
 446.532226562 -168.189453125 l 1
 461.935546875 -149.658203125 l 2
 480.32421875 -127.53515625 498.694335938 -63.3681640625 499.067382812 -19.9482421875 c 2
 499.337890625 11.291015625 l 1
 467.204101562 14.1396484375 l 2
 449.529296875 15.7060546875 421.458984375 14.2919921875 404.825195312 10.99609375 c 0
 384.862304688 7.041015625 359.754882812 7.77734375 330.966796875 13.162109375 c 0
 305.637695312 17.8994140625 268.182617188 19.537109375 241.625976562 17.068359375 c 0
 207.279296875 13.875 190.129882812 15.470703125 172.712890625 23.482421875 c 0
 149.650390625 34.0908203125 149.5546875 34.3681640625 154.62890625 75.5478515625 c 0
 157.434570312 98.3173828125 160.987304688 130.565429688 162.524414062 147.211914062 c 0
 164.059570312 163.856445312 175.672851562 200.173828125 188.329101562 227.916015625 c 0
 200.985351562 255.658203125 221.865234375 315.505859375 234.728515625 360.91015625 c 0
 247.592773438 406.314453125 264.834960938 453.590820312 273.045898438 465.96875 c 0
 281.256835938 478.34765625 299.323242188 518.450195312 313.193359375 555.084960938 c 0
 327.064453125 591.720703125 344.319335938 631.853515625 351.537109375 644.26953125 c 0
 363.396484375 664.668945312 364.48046875 688.017578125 354.998046875 718.870117188 c 0
 352.3203125 727.5859375 375.625976562 729.220703125 526.3359375 730.880859375 c 2
 700.772460938 732.801757812 l 1
 695.0703125 690.528320312 l 2
 686.826171875 629.3984375 688.3828125 179.022460938 696.870117188 169.822265625 c 0
 703.577148438 162.55078125 720.126953125 164.33984375 768.669921875 177.580078125 c 0
 784.46484375 181.887695312 784.713867188 180.556640625 784.891601562 90.3642578125 c 0
 785.041015625 15.029296875 783.293945312 0.0869140625 775.045898438 6.1767578125 c 0
 769.529296875 10.248046875 746.918945312 15.2431640625 724.799804688 17.2763671875 c 2
 684.58203125 20.9736328125 l 1
 688.955078125 -45.37109375 l 2
 693.060546875 -107.663085938 705.319335938 -148.706054688 719.8203125 -148.706054688 c 0
 723.311523438 -148.706054688 726.16796875 -151.732421875 726.16796875 -155.431640625 c 0
 726.16796875 -164.377929688 633.142578125 -164.15234375 623.057617188 -155.181640625 c 0
 617.641601562 -150.364257812 608.576171875 -150.451171875 593.760742188 -155.4609375 c 2
340.556640625 176.71484375 m 1
 340.556640625 164.837890625 421.1640625 164.704101562 465.313476562 176.508789062 c 2
 495.557617188 184.594726562 l 1
 500.227539062 288.641601562 l 2
 507.422851562 448.951171875 507.5625 570.912109375 500.551757812 570.912109375 c 0
 497.060546875 570.912109375 489.923828125 562.58984375 484.690429688 552.416992188 c 0
 447.185546875 479.505859375 340.556640625 201.564453125 340.556640625 176.71484375 c 1
EndSplineSet
Validated: 524325
EndChar

StartChar: five
Encoding: 53 53 57
Width: 1000
HStem: 506.172 21G<755.155 761.887> 581.336 154.92<443.23 683.144>
VStem: 260.284 180.826<413.287 576.256>
LayerCount: 2
Fore
SplineSet
647.693359375 -154.700195312 m 1
 647.694335938 -154.700195312 l 1
 626.4765625 -164.610351562 415.32421875 -165.178710938 388.913085938 -155.396484375 c 0
 377.203125 -151.059570312 354.342773438 -144.944335938 338.11328125 -141.807617188 c 0
 317.37109375 -137.798828125 301.647460938 -128.431640625 285.186523438 -110.278320312 c 0
 262.409179688 -85.158203125 261.727539062 -82.3974609375 260.284179688 -9.396484375 c 0
 259.466796875 31.8828125 256.86328125 77.076171875 254.49609375 91.0322265625 c 0
 250.283203125 115.870117188 250.634765625 116.321289062 271.102539062 112.34375 c 0
 282.602539062 110.108398438 300.97265625 105.27734375 311.924804688 101.608398438 c 0
 328.299804688 96.1240234375 339.872070312 98.5458984375 377.059570312 115.243164062 c 2
 422.28125 135.547851562 l 1
 418.670898438 92.91796875 l 2
 411.557617188 8.9150390625 436.841796875 -15.2509765625 519.818359375 -3.7509765625 c 0
 544.232421875 -0.3671875 569.07421875 6.6953125 575.022460938 11.943359375 c 0
 587.234375 22.716796875 596.573242188 190.25 587.391601562 233.78515625 c 0
 580.549804688 266.224609375 547.204101562 279.858398438 490.19921875 273.5234375 c 0
 416.96484375 265.385742188 292.142578125 236.76953125 271.345703125 223.3515625 c 2
 250.6796875 210.017578125 l 1
 254.623046875 238.71875 l 2
 256.79296875 254.50390625 259.288085938 373.344726562 260.16796875 502.80859375 c 2
 261.768554688 738.197265625 l 1
 469.423828125 736.255859375 l 2
 633.744140625 734.71875 679.502929688 732.362304688 688.693359375 724.96484375 c 0
 698.734375 716.8828125 704.330078125 718.284179688 730.006835938 735.313476562 c 0
 766.514648438 759.525390625 783.548828125 761.204101562 776.35546875 739.87890625 c 0
 773.548828125 731.556640625 769.282226562 698.34375 766.875976562 666.073242188 c 0
 764.46875 633.802734375 759.782226562 608.893554688 756.461914062 610.71875 c 0
 753.140625 612.543945312 753.607421875 604.163085938 757.499023438 592.094726562 c 0
 766.794921875 563.259765625 766.587890625 506.171875 757.186523438 506.171875 c 0
 753.123046875 506.171875 744.326171875 513.6015625 737.635742188 522.68359375 c 0
 713.6484375 555.247070312 669.080078125 571.118164062 579.328125 579.05859375 c 0
 533.583984375 583.104492188 484.248046875 584.129882812 469.693359375 581.3359375 c 2
 443.23046875 576.255859375 l 1
 441.110351562 490.25 l 2
 439.520507812 425.802734375 441.211914062 405.46484375 447.853515625 409.116210938 c 0
 465.34765625 418.733398438 572.057617188 424.150390625 613.353515625 417.516601562 c 0
 645.06640625 412.422851562 666.60546875 402.864257812 704.084960938 377.250976562 c 0
 731.115234375 358.779296875 758.112304688 335.588867188 764.078125 325.71875 c 0
 780.955078125 297.791992188 783.756835938 -34.8525390625 767.413085938 -70.2509765625 c 0
 751.526367188 -104.657226562 714.490234375 -137.866210938 685.927734375 -143.314453125 c 0
 673.041992188 -145.772460938 655.836914062 -150.896484375 647.693359375 -154.700195312 c 1
EndSplineSet
Validated: 524321
EndChar

StartChar: six
Encoding: 54 54 58
Width: 1000
HStem: -143.614 152.488<467.923 596.314> 518.953 21G<710.749 734.122> 598.526 158.421<435.64 652.693>
VStem: 245.433 185.908<15.6093 251.387 365.205 596.899> 596.314 197.622<11.8312 247.268>
LayerCount: 2
Fore
SplineSet
685.95703125 -138.137695312 m 1
 685.956054688 -138.137695312 l 1
 664.602539062 -147.830078125 487.274414062 -154.387695312 467.776367188 -146.206054688 c 0
 459.459960938 -142.715820312 433.435546875 -141.549804688 409.946289062 -143.614257812 c 0
 353.060546875 -148.614257812 304.609375 -126.189453125 269.490234375 -78.6083984375 c 2
 245.107421875 -45.5712890625 l 1
 245.432617188 107.765625 l 2
 245.612304688 192.100585938 246.176757812 273.20703125 246.6875 288.002929688 c 0
 247.19921875 302.798828125 246.499023438 382.999023438 245.133789062 466.2265625 c 0
 242.952148438 599.158203125 244.29296875 621.225585938 256.170898438 647.811523438 c 0
 276.955078125 694.336914062 301.356445312 719.123046875 345.126953125 738.170898438 c 0
 388.815429688 757.18359375 411.885742188 759.313476562 548.517578125 756.947265625 c 0
 616.428710938 755.771484375 639.521484375 753.014648438 648.522460938 745.008789062 c 0
 657.696289062 736.84765625 663.611328125 736.2109375 675.899414062 742.060546875 c 0
 684.520507812 746.1640625 700.762695312 748.579101562 711.993164062 747.426757812 c 2
 732.411132812 745.330078125 l 1
 733.349609375 632.141601562 l 1
 734.288085938 518.953125 l 1
 706.885742188 542.235351562 l 2
 691.815429688 555.040039062 671.719726562 569.059570312 662.229492188 573.389648438 c 0
 635.716796875 585.486328125 525.811523438 601.157226562 477.228515625 599.76953125 c 2
 433.751953125 598.526367188 l 1
 432.969726562 567.684570312 l 2
 432.541015625 550.721679688 432.638671875 514.14453125 433.188476562 486.40234375 c 0
 433.73828125 458.66015625 431.16796875 419.916015625 427.4765625 400.3046875 c 2
 420.765625 364.647460938 l 1
 440.491210938 380.737304688 l 2
 472.266601562 406.65625 499.575195312 412.119140625 589.038085938 410.454101562 c 0
 672.098632812 408.909179688 672.702148438 408.778320312 716.540039062 382.896484375 c 0
 777.673828125 346.802734375 789.319335938 321.560546875 793.936523438 215.142578125 c 0
 803.452148438 -4.17578125 795.240234375 -50.724609375 738.404296875 -99.611328125 c 0
 718.474609375 -116.75390625 694.873046875 -134.090820312 685.95703125 -138.137695312 c 1
467.514648438 8.1865234375 m 1
 467.514648438 8.1884765625 l 1
 475.9765625 4.92578125 499.912109375 3.724609375 520.705078125 5.5205078125 c 0
 541.497070312 7.3154296875 567.015625 8.830078125 577.412109375 8.8740234375 c 2
 596.314453125 8.9599609375 l 1
 596.314453125 116.033203125 l 2
 596.314453125 212.7109375 594.846679688 224.827148438 581.192382812 240.83984375 c 0
 569.018554688 255.1171875 557.8359375 259.309570312 523.834960938 262.346679688 c 0
 440.409179688 269.796875 425.465820312 246.733398438 431.340820312 119.595703125 c 0
 435.408203125 31.5751953125 439.494140625 18.994140625 467.514648438 8.1865234375 c 1
EndSplineSet
Validated: 524321
EndChar

StartChar: seven
Encoding: 55 55 59
Width: 1000
HStem: 517.695 21G<237.505 257.925> 589.7 164.351<310.292 556.877>
LayerCount: 2
Fore
SplineSet
404.948242188 -139.505859375 m 1
 404.948242188 -139.5078125 l 1
 343.176757812 -148.928710938 302.874023438 -152.120117188 302.874023438 -147.590820312 c 0
 302.874023438 -145.025390625 316.415039062 -118.602539062 332.96484375 -88.8720703125 c 0
 349.513671875 -59.142578125 368.451171875 -13.6328125 375.047851562 12.259765625 c 0
 381.64453125 38.15234375 395.32421875 82.4033203125 405.446289062 110.59375 c 0
 415.568359375 138.784179688 423.850585938 170.125 423.850585938 180.239257812 c 0
 423.850585938 190.353515625 437.165039062 235.3828125 453.4375 280.3046875 c 0
 469.709960938 325.2265625 491.638671875 387.705078125 502.166992188 419.146484375 c 0
 512.6953125 450.587890625 529.971679688 500.30078125 540.557617188 529.619140625 c 0
 551.143554688 558.9375 558.586914062 584.009765625 557.096679688 585.333984375 c 0
 555.607421875 586.659179688 499.466796875 588.18359375 432.33984375 588.721679688 c 2
 310.291992188 589.700195312 l 1
 274.0390625 553.698242188 l 1
 237.786132812 517.6953125 l 1
 236.125 635.873046875 l 1
 234.463867188 754.05078125 l 1
 514.39453125 753.052734375 l 2
 668.35546875 752.502929688 794.33203125 751.7109375 794.33203125 751.290039062 c 0
 794.3359375 750.870117188 790.741210938 734.225585938 786.34375 714.30078125 c 0
 781.946289062 694.375976562 775.26953125 661.911132812 771.505859375 642.155273438 c 0
 767.743164062 622.3984375 754.329101562 582.396484375 741.697265625 553.259765625 c 0
 729.064453125 524.124023438 718.729492188 492.541015625 718.729492188 483.075195312 c 0
 718.729492188 466.235351562 708.193359375 434.641601562 650.309570312 277.913085938 c 0
 634.599609375 235.375 619.372070312 189.978515625 616.470703125 177.032226562 c 0
 613.5703125 164.0859375 601.590820312 128.615234375 589.849609375 98.2080078125 c 0
 578.109375 67.80078125 566.073242188 28.5078125 563.102539062 10.8896484375 c 0
 560.1328125 -6.728515625 553.103515625 -30.9326171875 547.483398438 -42.896484375 c 0
 533.740234375 -72.154296875 534.591796875 -109.002929688 549.4765625 -129.209960938 c 2
 561.6875 -145.787109375 l 1
 517.341796875 -145.116210938 l 2
 492.952148438 -144.748046875 464.491210938 -142.296875 454.094726562 -139.669921875 c 0
 443.698242188 -137.041992188 421.58203125 -136.96875 404.948242188 -139.505859375 c 1
EndSplineSet
Validated: 524321
EndChar

StartChar: eight
Encoding: 56 56 60
Width: 1000
VStem: 215.606 191.317<21.183 213.485> 579.125 194.648<30.3448 224.428>
LayerCount: 2
Fore
SplineSet
608.442382812 -144.295898438 m 0
 382.924804688 -158.450195312 287.416015625 -145.104492188 248.5546875 -94.0068359375 c 0
 217.044921875 -52.576171875 214.995117188 -40.39453125 215.606445312 101.774414062 c 0
 216.174804688 234.08203125 216.942382812 240.944335938 234.657226562 272.040039062 c 0
 244.809570312 289.860351562 263.2421875 311.099609375 275.618164062 319.23828125 c 2
 298.119140625 334.036132812 l 1
 269.129882812 356.107421875 l 2
 227.276367188 387.973632812 216.216796875 430.34375 219.064453125 547.922851562 c 0
 221.137695312 633.5546875 222.6484375 641.775390625 241.6015625 670.54296875 c 0
 252.775390625 687.501953125 272.6875 709.456054688 285.850585938 719.329101562 c 0
 332.53125 754.34375 350.844726562 757.366210938 495.02734375 753.86328125 c 0
 641.311523438 750.309570312 668.626953125 744.369140625 712.552734375 706.5546875 c 0
 742.754882812 680.553710938 753.390625 648.475585938 756.557617188 573.83203125 c 0
 757.891601562 542.391601562 761.215820312 501.279296875 763.9453125 482.47265625 c 0
 769.721679688 442.663085938 759.547851562 420.21484375 713.2890625 370.6953125 c 2
 683.733398438 339.056640625 l 1
 707.05859375 323.716796875 l 2
 745.16015625 298.66015625 760.418945312 270.400390625 760.666015625 224.434570312 c 0
 760.787109375 202.063476562 763.677734375 183.759765625 767.091796875 183.759765625 c 0
 770.504882812 183.759765625 773.51171875 135.005859375 773.7734375 75.41796875 c 0
 774.181640625 -17.814453125 772.2734375 -36.3388671875 760.086914062 -57.4091796875 c 0
 731.05078125 -107.612304688 674.232421875 -140.166992188 608.442382812 -144.295898438 c 0
432.90234375 13.9423828125 m 0
 448.943359375 -2.4140625 506.743164062 -1.673828125 538.020507812 15.2900390625 c 0
 576.126953125 35.95703125 581.53125 51.0341796875 579.125 129.956054688 c 0
 576.631835938 211.703125 570.197265625 224.629882812 521.954101562 244.80078125 c 2
 488.822265625 258.653320312 l 1
 462.94921875 243.567382812 l 2
 420.99609375 219.10546875 410.287109375 195.752929688 406.923828125 121.393554688 c 0
 403.953125 55.728515625 407.889648438 39.44921875 432.90234375 13.9423828125 c 0
442.274414062 405.54296875 m 0
 452.799804688 396.180664062 467.438476562 392.247070312 491.744140625 392.247070312 c 0
 537.51953125 392.247070312 554.1875 401.244140625 570.68359375 434.85546875 c 0
 582.10546875 458.127929688 583.451171875 471.514648438 578.642578125 514.03125 c 0
 575.459960938 542.172851562 570.240234375 568.962890625 567.04296875 573.564453125 c 0
 551.235351562 596.315429688 471.798828125 608.833984375 447.984375 592.327148438 c 0
 393.104492188 554.288085938 389.979492188 452.05859375 442.274414062 405.54296875 c 0
EndSplineSet
Validated: 524321
EndChar

StartChar: nine
Encoding: 57 57 61
Width: 1000
VStem: 201.145 191.281<380.217 580.012> 549.671 192.177<26.3061 235.734 397.617 574.411>
LayerCount: 2
Fore
SplineSet
408.274414062 -137.66015625 m 1
 408.274414062 -137.659179688 l 1
 402.036132812 -137.7109375 390.127929688 -139.341796875 381.810546875 -141.283203125 c 0
 373.494140625 -143.224609375 349.676757812 -138.950195312 328.883789062 -131.78515625 c 0
 273.602539062 -112.734375 261.4765625 -111.991210938 237.2890625 -126.174804688 c 0
 210.111328125 -142.112304688 201.921875 -142.416015625 207.268554688 -127.2890625 c 0
 209.557617188 -120.81640625 211.959960938 -63.5966796875 212.609375 -0.134765625 c 2
 213.788085938 115.250976562 l 1
 243.932617188 105.790039062 l 2
 283.161132812 93.4794921875 305.12890625 94.1162109375 353.45703125 108.966796875 c 2
 393.15234375 121.165039062 l 1
 393.15234375 83.3427734375 l 2
 393.15234375 60.119140625 397.661132812 39.794921875 404.83203125 30.6865234375 c 0
 430.045898438 -1.33203125 507.602539062 1.173828125 537.94140625 34.98828125 c 0
 552.732421875 51.4716796875 553.493164062 58.431640625 549.670898438 142.30859375 c 0
 547.422851562 191.640625 543.630859375 233.739257812 541.244140625 235.862304688 c 0
 538.856445312 237.985351562 530.928710938 235.080078125 523.625976562 229.405273438 c 0
 498.311523438 209.735351562 455.577148438 202.590820312 385.751953125 206.35546875 c 0
 304.0390625 210.759765625 267.083007812 225.537109375 235.42578125 266.46484375 c 0
 204.1171875 306.94140625 198.4375 347.109375 201.14453125 508.908203125 c 2
 203.489257812 649.107421875 l 1
 225.442382812 683.768554688 l 2
 245.059570312 714.743164062 252.887695312 720.474609375 299.048828125 737.655273438 c 0
 342.985351562 754.0078125 354.483398438 755.84765625 376.010742188 749.971679688 c 0
 390.203125 746.096679688 410.458007812 745.393554688 422.125 748.369140625 c 0
 433.567382812 751.288085938 488.721679688 751.245117188 544.6875 748.2734375 c 2
 646.4453125 742.87109375 l 1
 683.471679688 707.248046875 l 2
 744.370117188 648.657226562 742.186523438 662.51953125 741.84765625 336.756835938 c 0
 741.682617188 177.928710938 739.274414062 29.3505859375 736.49609375 6.58203125 c 0
 731.60546875 -33.5087890625 714.248046875 -71.8056640625 700.96875 -71.8056640625 c 0
 697.401367188 -71.8056640625 695.662109375 -77.1025390625 697.102539062 -83.5751953125 c 0
 700.732421875 -99.880859375 648.548828125 -137.46875 614.36328125 -143.172851562 c 0
 599.23046875 -145.698242188 577.647460938 -144.674804688 566.401367188 -140.899414062 c 0
 555.060546875 -137.091796875 541.413085938 -136.530273438 535.7578125 -139.638671875 c 0
 530.151367188 -142.721679688 501.724609375 -143.515625 472.58984375 -141.404296875 c 0
 443.454101562 -139.29296875 414.51171875 -137.606445312 408.274414062 -137.66015625 c 1
441.34765625 363.33984375 m 1
 450.1875 361.842773438 464.176757812 362.111328125 472.432617188 363.9375 c 0
 492.575195312 368.391601562 543.110351562 405.017578125 547.9921875 418.69921875 c 0
 553.064453125 432.915039062 546.920898438 560.2734375 540.442382812 575.19140625 c 0
 537.157226562 582.756835938 523.521484375 587.983398438 500.2265625 590.60546875 c 0
 480.841796875 592.787109375 457.163085938 595.56640625 447.607421875 596.782226562 c 0
 435.318359375 598.345703125 424.959960938 592.842773438 412.217773438 577.983398438 c 0
 395.901367188 558.955078125 394.03515625 549.516601562 392.42578125 477.91015625 c 0
 390.7578125 403.64453125 391.700195312 397.850585938 407.962890625 382.453125 c 0
 417.484375 373.438476562 432.5078125 364.836914062 441.34765625 363.33984375 c 1
EndSplineSet
Validated: 524321
EndChar

StartChar: exclam
Encoding: 33 33 62
Width: 1000
VStem: 356.357 210.342<-95.3435 6.19673 365.58 693.094> 357.757 192.643<276.239 662.147> 388.527 146.137<101.777 380.608>
LayerCount: 2
Fore
SplineSet
488.229492188 -125.080078125 m 0x80
 461.922851562 -132.638671875 439.41015625 -138.767578125 438.201171875 -138.702148438 c 0
 435.735351562 -138.564453125 370.359375 -99.4912109375 365.78125 -95.4189453125 c 0
 364.16796875 -93.9853515625 359.927734375 -81.2900390625 356.357421875 -67.208984375 c 0
 347.681640625 -32.9931640625 368.853515625 10.3974609375 403.352539062 29.1064453125 c 0
 428.387695312 42.6826171875 482.880859375 46.8916015625 508.747070312 37.2451171875 c 0
 535.916015625 27.1142578125 563.0390625 -11.611328125 566.69921875 -45.4970703125 c 0
 571.359375 -88.634765625 554.083007812 -106.155273438 488.229492188 -125.080078125 c 0x80
473.317382812 100.266601562 m 1
 473.317382812 100.265625 l 1
 456.4140625 102.655273438 430.420898438 101.624023438 415.555664062 97.97265625 c 2
 388.52734375 91.333984375 l 1x20
 383.364257812 213.325195312 l 2
 380.524414062 280.419921875 373.525390625 353.474609375 367.811523438 375.668945312 c 0
 361.091796875 401.768554688 357.541015625 456.404296875 357.756835938 530.352539062 c 0
 358.016601562 619.22265625 355.3828125 651.283203125 345.928710938 674.31640625 c 0
 339.239257812 690.614257812 334.975585938 705.024414062 336.454101562 706.33984375 c 0
 337.932617188 707.654296875 365.21484375 705.504882812 397.081054688 701.5625 c 0
 428.947265625 697.620117188 458.7421875 696.44140625 463.291992188 698.942382812 c 0
 471.95703125 703.70703125 584.0625 703.5390625 589.44140625 698.754882812 c 0
 591.1484375 697.237304688 587.092773438 689.073242188 580.431640625 680.61328125 c 0
 572.991210938 671.1640625 568.319335938 651.370117188 568.319335938 629.295898438 c 0
 568.319335938 609.53125 565.262695312 588.262695312 561.52734375 582.033203125 c 0
 557.791992188 575.802734375 552.784179688 526.822265625 550.399414062 473.1875 c 0x40
 548.014648438 419.552734375 543.446289062 339.3515625 540.248046875 294.963867188 c 0
 537.049804688 250.576171875 534.533203125 186.096679688 534.6640625 151.674804688 c 0x20
 534.884765625 92.00390625 534.177734375 89.25 519.47265625 92.5068359375 c 0
 510.990234375 94.384765625 490.219726562 97.876953125 473.317382812 100.266601562 c 1
EndSplineSet
Validated: 524321
EndChar

